<svg xmlns="http://www.w3.org/2000/svg" xmlns:i="http://ns.adobe.com/AdobeIllustrator/10.0/" id="Layer_1" viewBox="0 0 100 100"><defs><style>      .st0 {        fill: #d80000;      }      .st1 {        fill: #fff;      }    </style></defs><path class="st0" d="M89.25,37.08h-31.22v-6.5c0-.26-.16-.5-.41-.59-.25-.09-.52-.03-.7.17-4.71,5.19-11,7.62-18.95,10.7-.84.33-1.7.66-2.57,1h-1.79v-3.6l13.58-2.21c.3-.05.52-.3.53-.6,0-.17-.05-.32-.15-.44l-5.43-6.64,13.81-2.25,5.87,7.18c.14.2.38.31.63.27l26.15-4.27c.17-.03.31-.12.41-.26.1-.14.14-.31.11-.47l-1.11-6.77c-.09-.57-.4-1.08-.87-1.41-.47-.34-1.04-.47-1.61-.38l-52.51,8.56c-1.18.19-1.98,1.31-1.79,2.49l1.1,6.77s.01.04.02.07v3.97h-13.79c-4.65,0-8.44,3.84-8.44,8.55s3.78,8.56,8.44,8.56h.46c-.17,1.66-.23,3.27-.16,4.88.12,2.17.46,5.43,2.14,8.69.84,1.61,1.86,2.99,3.03,4.1,1.21,1.15,2.64,2.12,4.23,2.88l.09.05c.16.08.34.15.56.22.53.18,1.07.26,1.62.26.79,0,1.58-.19,2.3-.55.36-.18.69-.41,1-.66.44.25.95.39,1.47.39h51.63c1.63,0,2.96-1.32,2.96-2.95v-38.54c0-.35-.28-.63-.63-.63ZM85.73,21.24c.24-.04.47.02.67.15.19.14.32.35.36.59l1.01,6.15-9.9,1.62-5.21-6.37,13.07-2.13ZM71.21,23.61l5.21,6.37-13.81,2.25-5.21-6.37,13.81-2.25ZM33.22,29.81l7.48-1.22,5.21,6.37-12.43,2.03-1-6.15c-.08-.49.25-.95.74-1.03ZM88.61,45.48h-10.03l-4.12-7.13h14.15v7.13ZM73,38.35l4.12,7.13h-13.99c-1.11-2-2.89-3.59-5.1-4.44v-2.68h14.97ZM58.03,42.41c3.08,1.39,5.1,4.49,5.1,7.99s-2.02,6.59-5.1,7.99v-15.98ZM38.43,42.03c7.22-2.79,13.53-5.24,18.33-9.89v36.51c-4.79-4.64-11.09-7.09-18.31-9.88-.75-.29-1.52-.59-2.3-.89v-14.97c.77-.3,1.53-.59,2.27-.88ZM11.39,50.4c0-4.02,3.22-7.29,7.17-7.29h16.34v14.57h-16.34c-3.95,0-7.17-3.27-7.17-7.29h0ZM32.13,69.81c-.65-.21-1.19-.47-1.65-.79-.45-.31-.88-.75-1.3-1.35-.78-1.08-1.37-2.71-1.71-4.7-.2-1.23-.3-2.58-.31-4.01h5.18v10.94c-.07-.03-.14-.06-.21-.08ZM32.26,78.35c-.92.47-1.97.54-2.94.22-.15-.05-.29-.11-.41-.16l-.09-.05c-1.49-.71-2.8-1.6-3.92-2.66-1.07-1.01-2.01-2.28-2.78-3.76-1.56-3.04-1.89-6.12-2-8.17-.06-1.59,0-3.17.17-4.82h5.61c0,1.49.11,2.91.32,4.22.37,2.19,1.04,4,1.93,5.23.51.72,1.04,1.26,1.61,1.65.56.39,1.2.7,1.97.95,2.05.68,3.17,2.93,2.5,5.02-.33,1.02-1.03,1.84-1.97,2.32h0ZM86.93,77.94h-51.63c-.19,0-.38-.04-.56-.1.3-.43.54-.9.71-1.42.71-2.19-.1-4.51-1.82-5.82v-11.64h1.81c.88.34,1.74.68,2.58,1,7.95,3.08,14.22,5.51,18.93,10.69.12.14.29.21.47.21.08,0,.15-.01.23-.04.24-.09.41-.33.41-.59v-10.46c3.83-1.47,6.37-5.18,6.37-9.37,0-1.28-.24-2.51-.68-3.66h24.89v29.51c0,.93-.76,1.68-1.69,1.68h0Z"></path><path class="st1" d="M79.37,53.16c-.17,0-.33.07-.45.19l-15.87,15.87c-.12.12-.19.28-.19.45s.07.33.19.45c2.24,2.24,5.21,3.47,8.38,3.47h.01c3.16,0,6.14-1.23,8.38-3.47,2.24-2.24,3.47-5.22,3.47-8.38s-1.23-6.14-3.47-8.38c-.12-.12-.28-.19-.45-.19h0ZM79.36,54.71c1.58,1.78,2.5,4.01,2.64,6.39h-9.03s6.39-6.39,6.39-6.39ZM72.07,63.26l6.39,6.39c-1.78,1.58-4.01,2.51-6.39,2.65v-9.03ZM70.8,63.26v9.02c-2.38-.14-4.61-1.05-6.39-2.64l6.39-6.39ZM79.35,68.75l-6.39-6.39h9.03c-.14,2.38-1.06,4.61-2.65,6.39h0Z"></path><metadata></metadata></svg>