<svg xmlns="http://www.w3.org/2000/svg" xmlns:i="http://ns.adobe.com/AdobeIllustrator/10.0/" id="Layer_1" viewBox="0 0 100 100"><defs><style>      .st0 {        fill: #fff;      }      .st1 {        fill: #e50914;      }    </style></defs><path class="st1" d="M73.54,18.59H26.42c-2.89,0-5.24,2.34-5.24,5.24v45.81c0,.72.59,1.31,1.31,1.31h22.25c.72,0,1.31-.59,1.31-1.31s-.59-1.31-1.31-1.31h-20.94V29.06h52.36v19.63c0,.72.59,1.31,1.31,1.31s1.31-.59,1.31-1.31v-24.87c0-2.89-2.34-5.24-5.24-5.24ZM23.8,26.44v-2.62c0-1.45,1.17-2.62,2.62-2.62h47.12c1.45,0,2.62,1.17,2.62,2.62v2.62H23.8Z"></path><path class="st0" d="M27.73,22.51c-.72,0-1.31.59-1.31,1.31s.59,1.31,1.31,1.31,1.31-.59,1.31-1.31-.59-1.31-1.31-1.31Z"></path><path class="st0" d="M32.97,22.51c-.72,0-1.31.59-1.31,1.31s.59,1.31,1.31,1.31,1.31-.59,1.31-1.31-.59-1.31-1.31-1.31Z"></path><path class="st0" d="M38.2,22.51c-.72,0-1.31.59-1.31,1.31s.59,1.31,1.31,1.31,1.31-.59,1.31-1.31-.59-1.31-1.31-1.31Z"></path><path class="st0" d="M78.2,52.84c-.84-.56-.34-.48-14.07,5.01h-10.22c-3.61.04-6.51,3-6.47,6.61.03,3.11,2.25,5.77,5.31,6.36l1.18,9.44c.08.66.64,1.15,1.3,1.15h5.24c.72,0,1.31-.58,1.32-1.3,0-.06,0-.11,0-.17l-1.14-9.01h3.51c14.1,5.64,12.97,5.24,13.34,5.24.72,0,1.31-.59,1.31-1.31,0-22.62.25-21.47-.58-22.03ZM63.07,68.33h-7.85v-7.85h7.85v7.85ZM52.6,60.69v7.41c-2.05-.72-3.12-2.96-2.4-5.01.4-1.12,1.28-2.01,2.4-2.4ZM58.97,78.8h-2.62l-.98-7.85h2.62l.98,7.85ZM76.16,72.93l-10.47-4.19v-8.69l10.47-4.19v17.07Z"></path><path class="st1" d="M59.14,48.69c0-1.03.26-.59-13.73-8.98-.62-.37-1.42-.16-1.79.46-.12.2-.18.43-.18.67,0,16.82-.26,16.32.67,16.85.4.23.9.23,1.31,0,13.94-8.38,13.73-7.95,13.73-8.99ZM46.06,54.23v-11.07l9.24,5.54-9.24,5.54Z"></path><metadata></metadata></svg>