<svg xmlns="http://www.w3.org/2000/svg" xmlns:i="http://ns.adobe.com/AdobeIllustrator/10.0/" id="Layer_1" viewBox="0 0 100 100"><defs><style>      .st0 {        fill: #d80000;      }      .st1 {        fill: #fff;      }    </style></defs><path id="Shape" class="st1" d="M47.99,28.27c.65.36,1.45.31,2.05-.12.62-.44.94-1.19.81-1.94l-.45-2.76,1.9-1.94c.53-.53.71-1.32.47-2.03-.23-.7-.83-1.21-1.56-1.32l-2.58-.39-1.16-2.47c-.32-.69-1.01-1.12-1.76-1.12s-1.44.44-1.76,1.12l-1.16,2.47-2.58.39c-.73.11-1.33.62-1.56,1.32-.24.71-.06,1.49.46,2.03l1.9,1.94-.45,2.76c-.13.75.19,1.51.81,1.94.6.43,1.4.48,2.05.12l2.29-1.26,2.3,1.27ZM43.68,24.85l.22-1.37c.11-.63-.1-1.27-.54-1.72l-1-1.03,1.33-.2c.65-.1,1.2-.51,1.48-1.1l.54-1.15.54,1.15c.28.59.83,1,1.47,1.1l1.34.2-1,1.02c-.45.45-.65,1.09-.54,1.72l.22,1.37-1.09-.6c-.58-.32-1.28-.32-1.86,0l-1.09.6Z"></path><path id="Shape1" data-name="Shape" class="st1" d="M58.2,23.45l-.45,2.76c-.13.75.19,1.51.81,1.94.6.43,1.4.48,2.05.12l2.29-1.26,2.29,1.26c.65.36,1.45.31,2.05-.12.62-.44.94-1.19.81-1.94l-.45-2.76,1.89-1.94c.53-.53.71-1.32.47-2.03-.23-.7-.83-1.21-1.56-1.32l-2.58-.39-1.16-2.47c-.32-.69-1.01-1.12-1.76-1.12s-1.44.44-1.76,1.12l-1.16,2.47-2.58.39c-.73.11-1.33.62-1.56,1.32-.24.71-.06,1.49.46,2.03l1.91,1.94ZM60.88,20.53c.65-.1,1.2-.51,1.48-1.1l.54-1.15.54,1.15c.28.59.83,1,1.47,1.1l1.34.2-1,1.02c-.45.45-.65,1.09-.54,1.72l.22,1.37-1.09-.6c-.58-.32-1.28-.32-1.86,0l-1.09.6.22-1.37c.11-.63-.1-1.27-.54-1.72l-1-1.03,1.33-.2Z"></path><path id="Shape2" data-name="Shape" class="st1" d="M85.59,18.16l-2.58-.39-1.16-2.47c-.32-.69-1.01-1.12-1.76-1.12s-1.44.44-1.76,1.12l-1.16,2.47-2.58.39c-.73.11-1.33.62-1.56,1.32-.24.71-.06,1.49.46,2.03l1.9,1.94-.45,2.76c-.13.75.19,1.51.81,1.94.6.43,1.4.48,2.05.12l2.29-1.26,2.29,1.26c.65.36,1.45.31,2.05-.12.62-.44.94-1.19.81-1.94l-.45-2.76,1.9-1.94c.53-.53.71-1.32.47-2.03-.23-.7-.83-1.21-1.56-1.32h0ZM82.43,21.76c-.45.45-.65,1.09-.54,1.72l.22,1.37-1.09-.6c-.58-.32-1.28-.32-1.86,0l-1.09.6.22-1.37c.11-.63-.1-1.27-.54-1.72l-1-1.03,1.33-.2c.65-.1,1.2-.51,1.48-1.1l.54-1.15.54,1.15c.28.59.83,1,1.47,1.1l1.34.2-1.01,1.03Z"></path><path id="Shape3" data-name="Shape" class="st0" d="M87.26,7.01h-48.72c-3.17,0-5.73,2.57-5.73,5.73v24.78c-1.42-.28-2.86-.42-4.3-.42-5.14,0-8.99,1.47-11.42,4.37-3.22,3.83-3.21,9.22-2.58,13.24v.02c-.53,1.32-.41,2.8.32,4.01.16.31.29.6.39.84.18.43.28.89.29,1.35-.04.89.28,1.76.89,2.41.37.37.82.64,1.32.8.1,1.25.42,2.46.94,3.6.67,1.08,1.6,1.99,2.7,2.63v3.99h-5.73c-4.75,0-8.59,3.85-8.6,8.6v5.73c0,2.37,1.92,4.3,4.3,4.3h34.39c2.37,0,4.3-1.92,4.3-4.3v-5.73c0-4.75-3.85-8.59-8.6-8.6h-5.73v-3.99c1.1-.65,2.03-1.56,2.7-2.65.52-1.13.83-2.34.93-3.58.5-.15.95-.43,1.32-.8.6-.64.92-1.5.89-2.38,0-.47.1-.94.29-1.38.1-.25.23-.53.39-.84.72-1.21.84-2.7.33-4.01v-.02c.24-1.56.35-3.14.31-4.72h4.32v8.61c0,1.06.6,2.04,1.54,2.53s2.08.42,2.95-.18l16.01-10.96h19.62c3.17,0,5.73-2.57,5.73-5.73V12.74c0-3.17-2.57-5.73-5.73-5.73ZM19.28,43.31c1.86-2.22,4.97-3.34,9.22-3.34s7.36,1.12,9.22,3.34c2.15,2.56,2.38,6.25,2.15,9.12-.12-.53-.26-1.11-.45-1.75-.46-2.08-1.64-3.94-3.32-5.25-1.01-.67-2.37-.42-3.08.57-.13.19-.97,1.13-4.53,1.13s-4.4-.94-4.54-1.14c-.7-.97-2.04-1.22-3.04-.57-1.7,1.31-2.88,3.17-3.35,5.26-.19.63-.33,1.22-.45,1.75-.23-2.87,0-6.57,2.15-9.12h0ZM32.8,75.79c0,2.37-1.92,4.3-4.3,4.3s-4.3-1.92-4.3-4.3v-3.27c1.15,1.13,2.69,1.78,4.3,1.84,1.61-.06,3.14-.71,4.3-1.84v3.27ZM47.13,82.96v5.73c0,.79-.64,1.43-1.43,1.43H11.31c-.79,0-1.43-.64-1.43-1.43v-5.73c0-3.17,2.57-5.73,5.73-5.73h5.88c.68,3.34,3.61,5.74,7.02,5.74s6.34-2.4,7.02-5.74h5.88c3.17,0,5.73,2.57,5.73,5.73ZM39.63,57.44h0c-.19.39-.35.73-.47,1.03-.34.8-.51,1.65-.51,2.52.01.12-.01.24-.07.34-.19.11-.42.15-.64.13-.79,0-1.43.64-1.43,1.43,0,1.21-.23,2.41-.68,3.53-.62.85-1.44,1.53-2.38,1.99l-.29.17c-.29.16-.54.3-.75.42-.36.2-.68.46-.94.78-.71.95-1.78,1.57-2.96,1.71-1.19-.15-2.27-.77-2.98-1.74-.27-.31-.59-.57-.95-.77-.18-.1-.43-.23-.67-.37l-.38-.24c-.92-.45-1.72-1.12-2.32-1.94-.45-1.13-.69-2.33-.69-3.54,0-.79-.64-1.43-1.43-1.43-.22.02-.44-.02-.63-.13-.06-.11-.09-.25-.07-.37,0-.86-.18-1.7-.51-2.49-.12-.3-.29-.64-.48-1.03-.3-.44-.4-.99-.28-1.52.02-.06.07-.11.13-.14.07,0,.15-.01.22,0,.09.02.17.05.25.09.42.16.88.11,1.26-.12.38-.24.63-.63.67-1.08.14-1.06.36-2.12.67-3.14.31-1.24.91-2.39,1.74-3.36,1.21,1.22,3.38,1.84,6.45,1.84s5.25-.62,6.45-1.84c.83.97,1.42,2.12,1.73,3.36.31,1.03.54,2.08.67,3.15.04.44.29.84.67,1.08.38.24.85.28,1.26.12.09-.04.17-.07.22-.08h.07c.09,0,.19,0,.15,0,.03,0,.1.02.15.14.12.52.03,1.07-.27,1.51h0ZM90.12,44.27c0,1.58-1.28,2.87-2.87,2.87h-19.62c-.58,0-1.14.17-1.63.49l-16.01,10.98v-8.61c0-1.58-1.28-2.87-2.87-2.87h-4.63c-.36-2.08-1.25-4.03-2.58-5.66-1.15-1.35-2.61-2.41-4.25-3.08V12.74c0-1.58,1.28-2.87,2.87-2.87h48.72c1.58,0,2.87,1.28,2.87,2.87v31.52Z"></path><path id="Path" class="st1" d="M80.09,32.8h-34.39c-.79,0-1.43.64-1.43,1.43s.64,1.43,1.43,1.43h34.39c.79,0,1.43-.64,1.43-1.43s-.64-1.43-1.43-1.43Z"></path><path id="Path1" data-name="Path" class="st1" d="M71.49,38.54h-17.2c-.79,0-1.43.64-1.43,1.43s.64,1.43,1.43,1.43h17.2c.79,0,1.43-.64,1.43-1.43s-.64-1.43-1.43-1.43Z"></path><metadata></metadata></svg>