<svg xmlns="http://www.w3.org/2000/svg" xmlns:i="http://ns.adobe.com/AdobeIllustrator/10.0/" id="Layer_1" viewBox="0 0 100 100"><defs><style>      .st0 {        fill: #d80000;      }      .st1 {        fill: #fff;      }    </style></defs><path class="st1" d="M33.2,76.84h0l-6.72.04c-.62,0-1.12.5-1.12,1.12s.5,1.12,1.12,1.12h0l6.72-.04c.62,0,1.12-.5,1.12-1.12s-.5-1.12-1.12-1.12Z"></path><path class="st1" d="M38.8,72.36h0l-12.32.04c-.62,0-1.12.5-1.12,1.12s.5,1.12,1.12,1.12h0l12.32-.04c.62,0,1.12-.5,1.12-1.12s-.5-1.12-1.12-1.12Z"></path><g><path class="st0" d="M85.62,61.65l-6.72-8.96c-.21-.28-.54-.45-.9-.45H22c-.35,0-.68.17-.9.45l-6.72,8.96c-.37.49-.27,1.2.22,1.57.19.15.43.22.67.22h5.6v19.04c0,.62.5,1.12,1.12,1.12h56c.62,0,1.12-.5,1.12-1.12h0v-19.04h5.6c.62,0,1.12-.5,1.12-1.12,0-.24-.08-.48-.22-.67ZM17.52,61.2l5.04-6.72h34.16l-5.04,6.72H17.52ZM57.84,81.36H23.12v-17.92h29.12c.35,0,.68-.17.9-.45l4.7-6.27v24.64ZM76.88,81.36h-16.8v-24.64l4.7,6.27c.21.28.54.45.9.45h11.2v17.92ZM66.24,61.2l-5.04-6.72h16.24l5.04,6.72h-16.24Z"></path><path class="st1" d="M40.25,44.17c.16,0,.32-.01.48-.02l6.59,5.16c1.4,1.1,3.43.86,4.53-.54s.86-3.43-.54-4.53c0,0,0,0,0,0l-3.15-2.47c2.17-.69,4.46-.95,6.73-.76.9.29,1.88.22,2.73-.22,2.88-1.54,2.72-7.05-.36-12.82-1.21-2.37-2.89-4.48-4.94-6.18-2.06-1.6-4.02-2.05-5.52-1.25-.82.47-1.43,1.24-1.69,2.14-1.41,3.14-5.85,6.53-8.78,8.43-3.28,2.16-4.19,6.58-2.03,9.86,1.32,2.01,3.57,3.21,5.97,3.2ZM49.91,46c.43.33.51.95.18,1.38-.33.43-.95.51-1.38.18,0,0,0,0,0,0l-5.26-4.12c.75-.31,1.46-.59,2.13-.83l4.35,3.41ZM47.83,22.51c.87-.46,2.31.43,3.08,1.04,1.8,1.51,3.28,3.37,4.34,5.47,2.7,5.05,2.56,9.1,1.28,9.79-.65.34-1.8-.04-3.08-1.04-1.8-1.51-3.28-3.37-4.34-5.47-2.7-5.05-2.56-9.1-1.28-9.79ZM44.87,26.91c.39,2.26,1.16,4.44,2.26,6.45,1.06,2.04,2.45,3.88,4.11,5.47-2.33.35-4.62.95-6.82,1.8l-4.84-9.06c1.93-1.35,3.7-2.92,5.29-4.66ZM37.52,32.99c.07-.05.14-.09.21-.14l4.6,8.61c-.08.03-.15.06-.23.1-2.49,1.04-5.34-.14-6.38-2.62-.9-2.16-.14-4.65,1.81-5.94h0Z"></path><path class="st0" d="M59.32,26.85c.29.55.97.75,1.51.46,0,0,0,0,0,0l8.12-4.34c.55-.29.75-.97.46-1.51-.29-.55-.97-.75-1.51-.46,0,0,0,0,0,0l-8.12,4.34c-.55.29-.75.97-.46,1.51,0,0,0,0,0,0Z"></path><path class="st0" d="M59,22.99l3.99-4.74c.4-.47.35-1.18-.12-1.58-.47-.4-1.18-.35-1.58.12,0,0,0,0,0,.01l-3.99,4.74c-.4.47-.34,1.18.13,1.58.47.4,1.18.34,1.58-.13,0,0,0,0,0,0h0Z"></path><path class="st0" d="M68.51,28.59l-6.16.68c-.61.07-1.06.62-.99,1.24.07.61.62,1.06,1.24.99l6.16-.68c.61-.07,1.06-.62.99-1.24-.07-.61-.62-1.06-1.24-.99h0Z"></path></g><metadata></metadata></svg>