<svg xmlns="http://www.w3.org/2000/svg" xmlns:i="http://ns.adobe.com/AdobeIllustrator/10.0/" id="Layer_1" viewBox="0 0 100 100"><defs><style>      .st0 {        fill: #d80000;      }      .st1 {        fill: #fff;      }    </style></defs><path class="st0" d="M88.37,16.31H11.63c-2.04,0-3.7,1.66-3.7,3.7v59.98c0,2.04,1.66,3.7,3.7,3.7h45.14c.68,0,1.23-.55,1.23-1.23s-.55-1.23-1.23-1.23H11.63c-.68,0-1.23-.55-1.23-1.23V31.09h60.58c.68,0,1.23-.55,1.23-1.23s-.55-1.23-1.23-1.23H10.41v-8.61c0-.68.55-1.23,1.23-1.23h76.73c.68,0,1.23.55,1.23,1.23v8.61h-13.67c-.68,0-1.23.55-1.23,1.23s.55,1.23,1.23,1.23h13.67v48.89c0,.68-.55,1.23-1.23,1.23h-26.65c-.68,0-1.23.55-1.23,1.23s.55,1.23,1.23,1.23h26.65c2.04,0,3.7-1.66,3.7-3.7V20.01c0-2.04-1.66-3.7-3.7-3.7h0Z"></path><path class="st1" d="M14.58,23.58c0,1.14.93,2.07,2.07,2.07s2.07-.93,2.07-2.07-.93-2.07-2.07-2.07-2.07.93-2.07,2.07Z"></path><path class="st1" d="M20.76,23.58c0,1.14.93,2.07,2.07,2.07s2.07-.93,2.07-2.07-.93-2.07-2.07-2.07-2.07.93-2.07,2.07Z"></path><path class="st1" d="M26.94,23.58c0,1.14.93,2.07,2.07,2.07s2.07-.93,2.07-2.07-.93-2.07-2.07-2.07-2.07.93-2.07,2.07Z"></path><path class="st1" d="M40.91,61.91c.54,1.51,2.9.62,2.31-.87l-4.79-12.7s0-.02-.01-.03c-.24-.57-.79-.95-1.41-.95h0c-.62,0-1.18.37-1.41.95,0,0,0,.02-.01.03l-4.84,12.7c-.59,1.48,1.75,2.39,2.31.88l.9-2.37h6.07l.89,2.36ZM34.89,57.08l2.11-5.53,2.09,5.53h-4.19Z"></path><path class="st1" d="M45.81,61.27c-.03.73.49,1.46,1.26,1.44.11,0,2.63-.01,3.64-.03,3.57-.06,6.16-3.2,6.16-7.46,0-4.48-2.52-7.49-6.28-7.49h-3.54c-.67-.01-1.25.58-1.23,1.25v12.28ZM50.59,50.21c2.81,0,3.81,2.59,3.81,5.02s-1.17,4.94-3.73,4.99c-.54,0-1.55.02-2.37.02,0-1.47-.01-3.87-.01-5.02,0-.96,0-3.48,0-5h2.3Z"></path><path class="st1" d="M64.23,60.24c-1.38,0-2.72-.56-3.57-1.5-.46-.51-1.24-.54-1.74-.09-.51.46-.54,1.24-.09,1.74,1.31,1.45,3.33,2.32,5.4,2.32,2.49,0,4.66-1.64,5.05-3.81.29-1.65-.47-3.8-3.51-4.92-1.64-.61-3.17-1.27-3.57-1.44-.38-.28-.56-.73-.49-1.22.09-.62.57-1.12,1.29-1.34,2.02-.61,3.86.86,3.89.89.52.43,1.3.37,1.73-.15.44-.52.37-1.3-.15-1.74-.12-.1-2.86-2.36-6.19-1.36-1.64.49-2.79,1.78-3.02,3.35-.21,1.47.43,2.88,1.66,3.69.05.04.11.07.17.09.07.03,1.84.82,3.82,1.55,1.38.51,2.08,1.3,1.93,2.17-.16.87-1.18,1.77-2.62,1.77h0Z"></path><path class="st0" d="M38.34,68.6h35.12c2.04,0,3.7-1.66,3.7-3.7v-19.73c0-2.04-1.66-3.7-3.7-3.7H26.54c-2.04,0-3.7,1.66-3.7,3.7v19.73c0,2.04,1.66,3.7,3.7,3.7h6.87c.68,0,1.23-.55,1.23-1.23s-.55-1.23-1.23-1.23h-6.87c-.68,0-1.23-.55-1.23-1.23v-19.72c0-.68.55-1.23,1.23-1.23h46.93c.68,0,1.23.55,1.23,1.23v19.73c0,.68-.55,1.23-1.23,1.23h-35.12c-.68,0-1.23.55-1.23,1.23s.55,1.23,1.23,1.23h0Z"></path><metadata></metadata></svg>