<svg xmlns="http://www.w3.org/2000/svg" xmlns:i="http://ns.adobe.com/AdobeIllustrator/10.0/" id="Layer_1" viewBox="0 0 100 100"><defs><style>      .st0 {        fill: #d80000;      }      .st1 {        fill: #fff;      }    </style></defs><path class="st0" d="M81.49,51.64c-3.36-3.34-7.24-.21-7.24-.21v-17.59c0-.59-.48-1.07-1.07-1.07s-1.07.48-1.07,1.07v19.09s-5.1,4.02-7.29,5v-31.67c0-1.47,1.2-2.67,2.67-2.67h1.95c1.47,0,2.67,1.2,2.67,2.67v3.19c0,.59.48,1.07,1.07,1.07s1.07-.48,1.07-1.07v-3.19c0-2.65-2.16-4.81-4.81-4.81h-1.95c-2.65,0-4.81,2.16-4.81,4.81v32.52c-.64.18-1.29.3-1.96.36v-22.56c0-2.67-2.17-4.83-4.83-4.83h-1.91c-2.66,0-4.83,2.17-4.83,4.83v10.9l-1.96,1.04v-3.63c0-2.4-1.95-4.35-4.35-4.35h-2.87c-2.4,0-4.35,1.95-4.35,4.35v9.77l-3.49,1.85-9.81,2.8c-1.71.49-3.13,1.61-4.01,3.15-.88,1.54-1.12,3.34-.67,5.06l1.1,4.22c.15.57.73.91,1.3.77.57-.15.92-.73.77-1.31l-1.1-4.22c-.64-2.45.77-4.91,3.2-5.61l8.97-2.56,6.74,17.99c.45,1.2.38,4.64-3.19,5.91l-6.78,1.54c-2.36.54-4.69-.88-5.3-3.22l-1.38-5.29c-.15-.57-.73-.92-1.3-.77-.57.15-.92.73-.77,1.31l1.38,5.3c.77,2.97,3.42,4.94,6.36,4.94,2.16,0,8.26-1.71,8.26-1.71,1.86-.42,3.44-1.62,4.34-3.3.75-1.38.97-2.97.65-4.49l23.45-5.74c1.94-.48,3.78-1.4,5.32-2.66l11.41-9.38c3.48-3.09,1.44-6.58.42-7.6ZM53.98,33.9h1.91c1.49,0,2.69,1.21,2.69,2.69v22.61h-6.75c-.62,0-.19-.42-.16-.45l1.94-1.57c1.81-1.47,3-3.51,3.52-6.07.33-1.62-.29-3.25-1.62-4.24-1.24-.93-2.84-1.11-4.23-.49v-9.78c0-1.49,1.21-2.69,2.69-2.69ZM37.76,44.9c0-1.22.99-2.21,2.21-2.21h2.87c1.22,0,2.21.99,2.21,2.21v4.76l-7.29,3.87v-8.64h0ZM79.72,57.59l-11.41,9.38c-1.3,1.07-2.84,1.84-4.47,2.24l-23.62,5.78-6.35-16.95,18.14-9.63c.74-.39,1.58-.33,2.25.17.67.5.97,1.29.8,2.1-.42,2.06-1.35,3.69-2.77,4.84l-1.94,1.58c-.8.65-1.09,1.69-.75,2.65.34.97,1.23,1.59,2.25,1.59h7.8s0,0,0,0c2.78,0,5.44-.84,7.71-2.44l8.71-6.13c1.22-.86,2.86-.71,3.9.36.6.61,1.77,2.43-.24,4.45Z"></path><path class="st1" d="M34.51,77.5c0-2.32-1.89-4.22-4.22-4.22s-4.22,1.89-4.22,4.22,1.89,4.22,4.22,4.22,4.22-1.89,4.22-4.22ZM28.22,77.5c0-1.14.93-2.08,2.08-2.08s2.08.93,2.08,2.08-.93,2.08-2.08,2.08-2.08-.93-2.08-2.08Z"></path><path class="st1" d="M22.6,47.07l15.55-15.67,3.5,1.81c1.25.65,2.78.43,3.79-.55l8.47-8.15s-.23,4.19,3.29,4.19c1.81,0,3.29-1.48,3.29-3.29v-8.63s0-.02,0-.03c-.01-2.25-1.66-3.26-3.29-3.26h-8.56c-1.81,0-3.29,1.48-3.29,3.29,0,3.62,3.68,3.29,3.68,3.29l-6.46,6.22-3.55-1.84c-1.28-.66-2.83-.42-3.85.6l-17.25,17.39c-1.28,1.29-1.27,3.38.02,4.65.62.62,2.74,1.9,4.65-.02ZM19.45,43.94l17.25-17.39c.22-.22.58-.62,1.35-.21l4.23,2.19c.41.21.9.14,1.23-.18l8.92-8.59c.31-.3.41-.77.25-1.17-.16-.41-.56-.67-.99-.67h-3.04c-.63,0-1.15-.52-1.15-1.15s.52-1.15,1.15-1.15h8.56c.31,0,1.15,0,1.15,1.14,0,0,0,.02,0,.03v8.61c0,.63-.52,1.15-1.15,1.15s-1.15-.52-1.15-1.15v-3.41c0-.43-.26-.82-.65-.98-.39-.17-.85-.08-1.16.21l-10.28,9.89c-.36.34-.89.42-1.33.19l-4.2-2.17c-.42-.21-.92-.13-1.25.2l-16.11,16.23c-.7.7-1.41.22-1.63,0-.45-.45-.45-1.18,0-1.63Z"></path><metadata></metadata></svg>