<svg xmlns="http://www.w3.org/2000/svg" xmlns:i="http://ns.adobe.com/AdobeIllustrator/10.0/" id="Layer_1" viewBox="0 0 100 100"><defs><style>      .st0, .st1 {        fill: #d80000;      }      .st1, .st2, .st3 {        fill-rule: evenodd;      }      .st2 {        fill: #fff;      }    </style></defs><path class="st1" d="M23.36,14.2h33.44c5.06,0,9.16,4.11,9.16,9.16v53.28c0,5.06-4.11,9.16-9.16,9.16H23.36c-5.06,0-9.16-4.11-9.16-9.16V23.36c0-5.06,4.11-9.16,9.16-9.16Z"></path><path class="st3" d="M56.79,80.81c2.3,0,4.16-1.86,4.16-4.16h0V23.36c0-2.3-1.86-4.16-4.16-4.16H23.36c-2.3,0-4.16,1.87-4.16,4.16v53.28c0,2.3,1.87,4.16,4.16,4.16h33.43Z"></path><path class="st2" d="M36.75,45.61c0-1.5,1.7-2.38,2.92-1.5h0s6.06,4.4,6.06,4.4c1.01.74,1.01,2.25,0,2.99l-6.06,4.39c-1.21.88-2.92,0-2.92-1.5v-8.79Z"></path><rect class="st0" x="71.62" y="25.87" width="5" height="48.26"></rect><rect class="st0" x="80.8" y="33.05" width="5" height="33.89"></rect><metadata></metadata></svg>