<svg xmlns="http://www.w3.org/2000/svg" xmlns:i="http://ns.adobe.com/AdobeIllustrator/10.0/" id="Layer_1" viewBox="0 0 100 100"><defs><style>      .st0 {        fill: #d80000;      }      .st1 {        fill: #fff;      }      .st2 {        fill: #e50914;      }      .st3 {        fill: none;      }    </style></defs><rect class="st3" x="15.52" y="15.14" width="69.86" height="69.86"></rect><g id="path2316"><path class="st2" d="M81.37,80.31H19.53c-2.21,0-4.02-1.8-4.02-4.02v-42.3c0-2.21,1.8-4.02,4.02-4.02h61.83c2.21,0,4.02,1.8,4.02,4.02v42.3c0,2.21-1.8,4.02-4.02,4.02ZM19.53,32.71c-.71,0-1.29.58-1.29,1.29v42.3c0,.71.58,1.29,1.29,1.29h61.83c.71,0,1.29-.58,1.29-1.29v-42.3c0-.71-.58-1.29-1.29-1.29H19.53Z"></path></g><g id="path2318"><path class="st1" d="M64.78,73.78H23.51c-.75,0-1.36-.61-1.36-1.36v-34.55c0-.75.61-1.36,1.36-1.36h41.26c.75,0,1.36.61,1.36,1.36v34.55c0,.75-.61,1.36-1.36,1.36ZM24.88,71.06h38.53v-31.82H24.88v31.82Z"></path></g><g id="path2322"><path class="st1" d="M75.34,72.99c-2.82,0-5.12-2.3-5.12-5.12s2.3-5.12,5.12-5.12,5.12,2.3,5.12,5.12-2.3,5.12-5.12,5.12ZM75.34,65.49c-1.32,0-2.39,1.07-2.39,2.39s1.07,2.39,2.39,2.39,2.39-1.07,2.39-2.39-1.07-2.39-2.39-2.39Z"></path></g><g id="path2326"><path class="st1" d="M79.1,56.51h-7.51c-.75,0-1.36-.61-1.36-1.36s.61-1.36,1.36-1.36h7.51c.75,0,1.36.61,1.36,1.36s-.61,1.36-1.36,1.36Z"></path></g><g id="path2330"><path class="st1" d="M79.1,50.81h-7.51c-.75,0-1.36-.61-1.36-1.36s.61-1.36,1.36-1.36h7.51c.75,0,1.36.61,1.36,1.36s-.61,1.36-1.36,1.36Z"></path></g><g id="path2334"><path class="st1" d="M79.1,45.11h-7.51c-.75,0-1.36-.61-1.36-1.36s.61-1.36,1.36-1.36h7.51c.75,0,1.36.61,1.36,1.36s-.61,1.36-1.36,1.36Z"></path></g><g id="path2338"><path class="st2" d="M50.45,32.57c-.36,0-.71-.14-.96-.4l-7.45-7.45c-.53-.53-.53-1.4,0-1.93.53-.53,1.4-.53,1.93,0l6.49,6.49,9.05-9.05c.53-.53,1.4-.53,1.93,0s.53,1.4,0,1.93l-10.01,10.01c-.26.26-.6.4-.96.4Z"></path></g><g><g id="path2342"><path class="st0" d="M42.97,61.9c-.55,0-1.07-.34-1.28-.89l-2.95-7.84-2.97,7.84c-.27.7-1.06,1.06-1.76.79-.7-.27-1.06-1.05-.79-1.76l4.03-10.63s0-.02.01-.03c.25-.61.83-1,1.49-1h0c.65,0,1.24.39,1.49,1,0,.01.01.03.01.04l3.99,10.63c.27.71-.09,1.49-.8,1.76-.16.06-.32.09-.48.09Z"></path></g><g id="path2346"><path class="st0" d="M41.74,59.25h-5.98c-.75,0-1.36-.61-1.36-1.36s.61-1.36,1.36-1.36h5.98c.75,0,1.36.61,1.36,1.36s-.61,1.36-1.36,1.36Z"></path></g><g id="path2350"><path class="st0" d="M47.42,61.74c-.36,0-.71-.14-.96-.4-.26-.26-.4-.6-.4-.96l-.02-10.46c0-.36.14-.71.4-.97.26-.26.6-.4.97-.4h2.95c3.33,0,5.57,2.65,5.57,6.59s-2.3,6.52-5.46,6.57c-.84.01-2.94.02-3.03.02,0,0,0,0,0,0ZM48.77,51.28l.02,7.72c.6,0,1.25,0,1.63-.02,1.92-.03,2.78-1.95,2.78-3.84,0-.65-.14-3.87-2.84-3.87h-1.58Z"></path></g></g><metadata></metadata></svg>