<svg xmlns="http://www.w3.org/2000/svg" xmlns:i="http://ns.adobe.com/AdobeIllustrator/10.0/" id="Layer_1" viewBox="0 0 100 100"><defs><style>      .st0 {        fill: #d80000;      }    </style></defs><path class="st0" d="M86.21,59.76l2.28-2.28c1.43-1.44,1.43-3.77,0-5.21-.7-.69-1.62-1.08-2.6-1.08-.74,0-1.44.22-2.04.62l-.48-1.61,2.47-2.47c1.44-1.44,1.44-3.77,0-5.21-1.32-1.32-3.4-1.42-4.85-.31l-2.92-9.82c1.17-1.12,2.29-2.22,3.34-3.27,3.04-3.04,5.51-6.25,6.96-9.06,2.45-4.73,1.42-7.27.13-8.55-1.29-1.29-3.82-2.31-8.55.13-2.8,1.45-6.02,3.92-9.05,6.96-1.05,1.05-2.15,2.17-3.27,3.34l-9.82-2.92c1.11-1.44,1.01-3.52-.31-4.85-1.44-1.43-3.77-1.44-5.21,0l-2.47,2.47-1.61-.48c.4-.6.62-1.31.62-2.04,0-.98-.38-1.91-1.08-2.6-1.43-1.44-3.77-1.44-5.21,0l-2.28,2.28-11.62-3.46c-.41-.12-.86,0-1.17.3l-2.99,2.99c-.5.5-.44,1.36.14,1.78l29.31,21.45c-6.61,7.45-12.98,14.91-17.47,20.24l-8.62-3.32c-.43-.17-.92-.06-1.25.27l-3.54,3.54c-.46.46-.46,1.2,0,1.66l17.72,17.72c.45.45,1.21.45,1.66,0l3.54-3.54c.33-.33.43-.82.27-1.25l-3.32-8.62c5.33-4.49,12.79-10.86,20.24-17.47l2.33,3.18c.41.56,1.25.64,1.76.16.42-.4.48-1.07.14-1.54l-2.46-3.36c3.9-3.48,7.75-6.99,11.24-10.29l11.07,37.15-1.53,1.53-15.21-20.78c-.38-.52-1.12-.64-1.64-.25-.52.38-.64,1.12-.25,1.64l16.02,21.89c.42.57,1.28.64,1.78.14l2.99-2.99c.31-.3.42-.75.3-1.17l-3.46-11.62ZM53.93,15.83c.51-.51,1.37-.51,1.88,0s.52,1.36,0,1.88l-.55.55-2.9-.86,1.57-1.57ZM44.19,13.18c.52-.52,1.36-.52,1.88,0s.52,1.36,0,1.88l-.36.36-2.9-.86,1.38-1.38ZM27.1,14.31l1.53-1.53,37.15,11.07c-3.31,3.49-6.82,7.34-10.29,11.24L27.1,14.31ZM27.7,56.24l7.15,2.75c-1.79,2.14-3.17,3.79-3.98,4.77l-5.34-5.34,2.17-2.17ZM32.54,65.43c4.1-4.94,25.74-30.91,40-45.17,2.83-2.83,5.92-5.21,8.47-6.53,1.92-.99,4.48-1.89,5.82-.56s.43,3.9-.56,5.82c-1.32,2.55-3.7,5.64-6.53,8.47-14.26,14.26-40.23,35.91-45.17,40l-2.03-2.03ZM43.76,72.3l-2.17,2.17-5.34-5.34c.98-.81,2.63-2.19,4.77-3.98l2.75,7.15ZM84.94,53.93c.52-.52,1.36-.52,1.88,0s.52,1.36,0,1.88l-1.38,1.38-.86-2.9.36-.36ZM82.29,44.19c.52-.52,1.36-.52,1.88,0,.51.51.51,1.37,0,1.88l-1.57,1.57-.86-2.9.55-.55Z"></path><path class="st0" d="M80.67,77.81l-10.02,10.02c-.43.43-.46,1.13-.06,1.59.44.51,1.25.55,1.72.07l10.02-10.02c.46-.46.46-1.2,0-1.66s-1.2-.46-1.66,0Z"></path><path class="st0" d="M77.32,74.46c.46-.46.46-1.2,0-1.66-.46-.46-1.2-.46-1.66,0l-6.27,6.26c-.43.43-.46,1.13-.06,1.59.44.51,1.25.55,1.72.07l6.26-6.27Z"></path><path class="st0" d="M73.56,68.2c.46-.46.46-1.2,0-1.66-.46-.46-1.2-.46-1.66,0l-4.39,4.39c-.43.43-.46,1.13-.06,1.59.44.51,1.25.55,1.72.07l4.39-4.39Z"></path><path class="st0" d="M22.19,18.3c-.46-.46-1.2-.46-1.66,0l-10.02,10.02c-.46.46-.46,1.2,0,1.66.45.45,1.21.45,1.66,0l10.02-10.02c.46-.46.46-1.2,0-1.66Z"></path><path class="st0" d="M27.2,23.31c-.46-.46-1.2-.46-1.66,0l-6.27,6.27c-.43.43-.46,1.13-.06,1.59.44.51,1.25.55,1.72.07l6.27-6.26c.46-.46.46-1.2,0-1.66Z"></path><path class="st0" d="M27.42,33.11c.45.45,1.21.45,1.66,0l4.39-4.39c.46-.46.46-1.2,0-1.66-.46-.46-1.2-.46-1.66,0l-4.39,4.39c-.46.46-.46,1.2,0,1.66Z"></path><metadata></metadata></svg>