<svg xmlns="http://www.w3.org/2000/svg" xmlns:i="http://ns.adobe.com/AdobeIllustrator/10.0/" id="Layer_1" viewBox="0 0 100 100"><defs><style>      .st0 {        fill: #d80000;      }    </style></defs><path class="st0" d="M80.56,51.97c0-1.24-1.01-2.25-2.25-2.25h-33.8c-1.24,0-2.25,1.01-2.25,2.25v21.41c0,1.24,1.01,2.25,2.25,2.25h33.8c1.24,0,2.25-1.01,2.25-2.25v-21.41ZM44.51,73.38v-21.41h33.8v21.41h-33.8Z"></path><path class="st0" d="M78.63,32.18c-.65-.61-1.69-.49-2.56-.33l-31.27,5.84c-1.54.29-2.86,1.09-2.74,2.82,0,.14,0,.28.05.42.2,1.46.47,2.9.79,4.34.09.64.36,1.24.78,1.73.63.61,1.53.48,2.32.33l31.75-5.93c.9-.17,1.92-.43,2.31-1.25.18-.48.22-1,.12-1.5-.18-1.71-.48-3.4-.9-5.07-.08-.52-.31-1-.66-1.39ZM47.68,44.73l-2.55.48-.9-5.1,3.45-.64v5.27ZM52.75,43.78l-2.82.52v-5.27l2.82-.52v5.27ZM57.82,42.83l-2.82.52v-5.27l2.82-.52v5.27ZM62.89,41.89l-2.82.52v-5.27l2.82-.52v5.27ZM67.96,40.94l-2.82.52v-5.27l2.82-.52v5.27ZM73.03,40l-2.82.52v-5.27l2.82-.52v5.27ZM75.28,39.57v-5.27l1.85-.34.89,5.1-2.74.51Z"></path><path class="st0" d="M67.89,66.62h-11.55c-.62,0-1.13.5-1.13,1.13s.5,1.13,1.13,1.13h11.55c.62,0,1.13-.5,1.13-1.13s-.5-1.13-1.13-1.13Z"></path><path class="st0" d="M65.63,45.96v1.5h2.25v-1.93l-2.25.42Z"></path><path class="st0" d="M23.88,86.06h42.88c.62,0,1.13-.5,1.13-1.13v-7.04h-2.25v5.92H30.7V24.09h34.93v7.43l2.25-.42v-9.1c.09-.61-.32-1.18-.93-1.28-5.27-.95-6.2-2.33-6.36-2.88-.25-.9.83-1.9.86-1.92.46-.42.49-1.13.07-1.59-.23-.25-.55-.38-.89-.36H24.61c-2.83-.03-5.14,2.24-5.17,5.07,0,.19.01.38.03.56h-.03v61.97c-.02,2.47,1.96,4.49,4.43,4.51,0,0,.01,0,.02,0ZM24.61,16.2h33.97c-.29.72-.34,1.51-.13,2.25.39,1.43,1.69,2.55,3.94,3.38H24.65c-1.58.03-2.89-1.23-2.92-2.82.03-1.57,1.31-2.82,2.88-2.82ZM21.69,23.2c.86.58,1.88.89,2.92.89h3.84v59.72h-4.57c-1.23-.02-2.21-1.02-2.19-2.25,0,0,0,0,0,0V23.2Z"></path><metadata></metadata></svg>