<svg xmlns="http://www.w3.org/2000/svg" xmlns:i="http://ns.adobe.com/AdobeIllustrator/10.0/" id="Layer_1" viewBox="0 0 100 100"><defs><style>      .st0 {        fill: #d80000;      }      .st1 {        fill: #fff;      }    </style></defs><g id="path3876"><path class="st0" d="M55.03,64.39s-.07,0-.1,0c-.23-.03-.44-.17-.56-.37-.74-1.29-1.38-2.42-1.47-2.56-.3-.46-.78-.75-1.33-.8l-1.38-.13c-.11,0-.23-.03-.34-.05-1.03-.21-1.9-.9-2.34-1.85l-7.32-15.92c-.86-1.87-1.09-3.92-.67-5.94l.66-3.17c.11-.53.52-.92,1.05-1,.53-.08,1.04.17,1.3.63l11.66,20.94s0,0,0,0l3.79,6.81c.16.3.11.66-.13.9l-2.3,2.3c-.14.14-.34.22-.53.22ZM41.53,34.53l-.53,2.55c-.35,1.7-.16,3.42.57,5l7.32,15.92c.24.51.71.89,1.26,1,.06.01.12.02.18.03l1.38.13c1.01.09,1.93.66,2.47,1.51,0,0,.01.02.02.03,0,0,.42.73.99,1.72l1.19-1.19-3.51-6.31-11.34-20.37Z"></path></g><g id="path3880"><path class="st0" d="M45.09,64.18c-.2,0-.39-.08-.53-.22l-2.3-2.3c-.24-.24-.29-.61-.13-.9l3.67-6.6c.2-.36.66-.5,1.03-.29s.5.66.29,1.03l-3.39,6.1,1.2,1.2c.51-.88.87-1.52.87-1.52,0,0,.01-.02.02-.03.55-.86,1.45-1.41,2.47-1.51l1.38-.13c.06,0,.12-.01.19-.03.41-.08.81.19.89.6s-.19.81-.6.89c-.12.02-.23.04-.34.05l-1.38.13c-.55.05-1.03.34-1.32.8-.08.14-.66,1.15-1.35,2.36-.12.2-.32.34-.56.37-.03,0-.07,0-.1,0ZM53.53,55.29c-.11,0-.21-.02-.32-.07-.38-.17-.55-.62-.37-1l3.1-6.75c.17-.38.62-.55,1-.37.38.17.55.62.37,1l-3.1,6.75c-.13.28-.4.44-.69.44ZM54.37,41.09c-.12,0-.25-.03-.37-.1-.36-.2-.5-.66-.29-1.03l3.75-6.74c.27-.47.78-.72,1.31-.64.53.08.94.47,1.05,1l.66,3.18c.21.99.25,2,.14,3.01-.05.41-.42.71-.84.67-.41-.05-.71-.42-.67-.84.09-.84.05-1.7-.12-2.53l-.53-2.55-3.44,6.18c-.14.25-.4.39-.66.39Z"></path></g><g id="path3884"><path class="st1" d="M49.23,54.75c0-.43.35-.77.77-.77s.77.35.77.77-.35.77-.77.77-.77-.35-.77-.77"></path><path class="st0" d="M50,55.56c-.45,0-.81-.36-.81-.81s.36-.81.81-.81.81.36.81.81-.36.81-.81.81ZM50,54.01c-.41,0-.74.33-.74.74s.33.74.74.74.74-.33.74-.74-.33-.74-.74-.74Z"></path></g><g id="path3888"><path class="st0" d="M35.83,75.37c-2.02,0-3.92-.79-5.34-2.24-1.42-1.44-2.18-3.35-2.15-5.38.03-1.92.79-3.73,2.15-5.12,1.35-1.38,3.15-2.18,5.07-2.25,1.96-.07,3.84.61,5.3,1.93.09.08.19.08.24.07.06,0,.16-.04.22-.15l.82-1.48c.12-.21.32-.35.56-.38.23-.03.47.05.64.21l2.3,2.3c.24.24.29.61.12.91-1.73,3.02-2.26,3.97-2.43,4.27-.1,4.04-3.42,7.3-7.49,7.3ZM35.83,61.9c-.07,0-.15,0-.22,0-3.18.11-5.71,2.7-5.76,5.88-.03,1.62.59,3.14,1.72,4.29s2.65,1.78,4.26,1.78c3.3,0,5.98-2.68,5.98-5.98q0-.22.94-1.88c.43-.76.96-1.69,1.4-2.45l-1.18-1.18-.33.6c-.27.49-.74.82-1.29.91-.55.09-1.09-.07-1.5-.44-1.1-1-2.52-1.54-4.01-1.54ZM43.25,68.19h0s0,0,0,0ZM35.83,72.11c-2.33,0-4.23-1.9-4.23-4.23s1.9-4.23,4.23-4.23,4.23,1.9,4.23,4.23-1.9,4.23-4.23,4.23ZM35.83,65.16c-1.5,0-2.72,1.22-2.72,2.72s1.22,2.72,2.72,2.72,2.72-1.22,2.72-2.72-1.22-2.72-2.72-2.72Z"></path></g><g id="path3892"><path class="st0" d="M35.83,72.11c-2.33,0-4.23-1.9-4.23-4.23s1.9-4.23,4.23-4.23,4.23,1.9,4.23,4.23-1.9,4.23-4.23,4.23ZM35.83,65.16c-1.5,0-2.72,1.22-2.72,2.72s1.22,2.72,2.72,2.72,2.72-1.22,2.72-2.72-1.22-2.72-2.72-2.72Z"></path></g><g id="path3896"><path class="st0" d="M64.17,75.37c-4.07,0-7.39-3.26-7.49-7.3-.16-.29-.68-1.21-2.31-4.06-.17-.3-.12-.67.12-.91l2.3-2.3c.17-.17.4-.25.64-.21.23.03.44.17.56.38l.71,1.27c.06.11.16.15.22.15.05,0,.15.01.24-.07,1.45-1.31,3.33-2,5.3-1.93,1.6.06,3.12.62,4.38,1.63,1.22.97,2.13,2.33,2.55,3.82.11.4-.12.82-.52.93-.4.11-.82-.12-.93-.52-.7-2.47-2.98-4.26-5.53-4.35-1.57-.05-3.07.49-4.23,1.54-.41.37-.96.53-1.5.44-.55-.09-1.02-.42-1.29-.91l-.22-.39-1.18,1.18c.42.73.92,1.61,1.33,2.33q.89,1.57.89,1.79c0,3.3,2.68,5.98,5.98,5.98,2.71,0,5.09-1.83,5.78-4.44.11-.4.52-.64.92-.54.4.11.64.52.54.92-.87,3.28-3.85,5.57-7.24,5.57ZM56.75,68.19h0ZM64.17,72.11c-2.33,0-4.23-1.9-4.23-4.23s1.9-4.23,4.23-4.23,4.23,1.9,4.23,4.23-1.9,4.23-4.23,4.23ZM64.17,65.16c-1.5,0-2.72,1.22-2.72,2.72s1.22,2.72,2.72,2.72,2.72-1.22,2.72-2.72-1.22-2.72-2.72-2.72Z"></path></g><g id="path3900"><path class="st0" d="M64.17,72.11c-2.33,0-4.23-1.9-4.23-4.23s1.9-4.23,4.23-4.23,4.23,1.9,4.23,4.23-1.9,4.23-4.23,4.23ZM64.17,65.16c-1.5,0-2.72,1.22-2.72,2.72s1.22,2.72,2.72,2.72,2.72-1.22,2.72-2.72-1.22-2.72-2.72-2.72Z"></path></g><g id="path3904"><path class="st0" d="M50,48.94c-.42,0-.76-.34-.76-.76s.34-.76.76-.76c2.38,0,4.78-.16,7.13-.47l17.81-2.34c.41-.05.79.24.85.65.05.41-.24.79-.65.85l-17.81,2.34c-2.42.32-4.88.48-7.33.48Z"></path></g><g id="path3908"><path class="st0" d="M50,41.26c-1.48,0-2.96-.06-4.43-.18-.42-.03-.73-.4-.69-.81.03-.42.4-.73.81-.69,3.81.3,7.66.2,11.44-.3l17.81-2.34c.41-.05.79.24.85.65.05.41-.24.79-.65.85l-17.81,2.34c-2.42.32-4.88.48-7.33.48Z"></path></g><g id="path3912"><path class="st0" d="M39.64,48.05s-.07,0-.1,0l-14.68-1.93c-.41-.05-.71-.43-.65-.85.05-.41.43-.71.85-.65l14.68,1.93c.41.05.71.43.65.85-.05.38-.37.66-.75.66Z"></path></g><g id="path3916"><path class="st0" d="M40.14,40.45s-.07,0-.1,0l-15.17-2c-.41-.05-.71-.43-.65-.85.05-.41.43-.71.85-.65l15.17,2c.41.05.71.43.65.85-.05.38-.37.66-.75.66Z"></path></g><g id="path3920"><path class="st0" d="M44.27,28.47c-.19,0-.39-.07-.53-.22-.3-.3-.3-.77,0-1.07l2.33-2.33c.3-.3.77-.3,1.07,0,.3.3.3.77,0,1.07l-2.33,2.33c-.15.15-.34.22-.53.22Z"></path></g><g id="path3924"><path class="st0" d="M46.61,28.47c-.19,0-.39-.07-.53-.22l-2.33-2.33c-.3-.3-.3-.77,0-1.07.3-.3.77-.29,1.07,0l2.33,2.33c.3.3.3.77,0,1.07-.15.15-.34.22-.53.22Z"></path></g><metadata></metadata></svg>