<svg xmlns="http://www.w3.org/2000/svg" xmlns:i="http://ns.adobe.com/AdobeIllustrator/10.0/" id="Layer_1" viewBox="0 0 100 100"><defs><style>      .st0 {        fill: #d80000;      }    </style></defs><path class="st0" d="M79.12,53.28v-7.03c0-.7-.34-1.35-.92-1.74s-1.31-.48-1.96-.23l-16.38,6.26h-9.34c-2.16,0-3.95,1.63-4.2,3.73-2.98.25-5.33,2.76-5.33,5.8s2.35,5.55,5.33,5.8c.22,1.85,1.64,3.34,3.47,3.66l5.06,12.41c.48,1.19,1.62,1.95,2.9,1.95h2.36c1.04,0,2.01-.51,2.6-1.38.58-.86.7-1.95.32-2.92l-4-10h.84l16.38,6.26c.24.09.5.14.76.14.42,0,.84-.13,1.2-.37.57-.4.92-1.05.92-1.74v-7.03c2.71-.5,4.77-2.88,4.77-5.73v-2.12c0-2.85-2.06-5.23-4.77-5.73h0ZM43.12,60.06c0-1.86,1.38-3.41,3.18-3.67v7.34c-1.79-.26-3.18-1.8-3.18-3.67ZM48.41,65.36v-10.59c0-1.17.95-2.12,2.12-2.12h8.47v14.83h-8.47c-1.17,0-2.12-.95-2.12-2.12ZM61.05,80.38c.13.32.09.66-.1.95-.19.28-.5.45-.84.45h-2.36c-.42,0-.79-.25-.94-.63l-4.7-11.55h4.64l4.31,10.78ZM77.01,73.88l-15.89-6.07v-15.49l15.89-6.07v27.63ZM81.77,61.12c0,1.68-1.12,3.1-2.65,3.55v-9.22c1.53.46,2.65,1.88,2.65,3.55v2.12Z"></path><path class="st0" d="M65.36,46.29c.58,0,1.06-.47,1.06-1.06v-25c0-2.27-1.85-4.12-4.12-4.12H27.12c-2.27,0-4.12,1.85-4.12,4.12v44.59c0,1.17.95,2.12,2.12,2.12h14.83c.58,0,1.06-.47,1.06-1.06s-.47-1.06-1.06-1.06h-14.83V29.88h39.18v15.36c0,.58.47,1.06,1.06,1.06ZM25.11,27.76v-7.53c0-1.1.9-2,2-2h35.18c1.1,0,2,.9,2,2v7.53H25.11Z"></path><path class="st0" d="M59.53,21.41c-.88,0-1.59.71-1.59,1.59s.71,1.59,1.59,1.59,1.59-.71,1.59-1.59-.71-1.59-1.59-1.59ZM59.53,23.52c-.29,0-.53-.24-.53-.53s.24-.53.53-.53.53.24.53.53-.24.53-.53.53Z"></path><path class="st0" d="M52.65,21.41c-.88,0-1.59.71-1.59,1.59s.71,1.59,1.59,1.59,1.59-.71,1.59-1.59-.71-1.59-1.59-1.59ZM52.65,23.52c-.29,0-.53-.24-.53-.53s.24-.53.53-.53.53.24.53.53-.24.53-.53.53Z"></path><path class="st0" d="M46.29,21.94h-16.94c-.58,0-1.06.47-1.06,1.06s.47,1.06,1.06,1.06h16.94c.58,0,1.06-.47,1.06-1.06s-.47-1.06-1.06-1.06Z"></path><path class="st0" d="M41.25,35.08c-.14-.08-.29-.13-.45-.14-.92-.07-1.91.29-2.6.92-.59.55-.92,1.27-.92,2.04v11.47c0,.95.49,1.81,1.32,2.29.42.24.87.36,1.33.36s.9-.12,1.31-.35l10.04-5.74c.71-.41,1.18-1.09,1.3-1.92.15-1.02-.24-2.15-1.05-3.01-.07-.08-.16-.14-.25-.2l-10.04-5.74ZM50.5,43.71c-.04.24-.16.34-.26.39l-10.04,5.74c-.24.14-.45.04-.53,0s-.26-.18-.26-.46v-11.47c0-.07,0-.27.24-.49.21-.19.51-.32.8-.36l9.64,5.51c.36.43.45.87.41,1.14h0Z"></path><path class="st0" d="M20.35,73.83h14.3v7.94h-4.24c-.58,0-1.06.47-1.06,1.06s.47,1.06,1.06,1.06h20.65c.58,0,1.06-.47,1.06-1.06s-.47-1.06-1.06-1.06h-14.3v-7.94h10.59c.58,0,1.06-.47,1.06-1.06s-.47-1.06-1.06-1.06h-27.01c-1.17,0-2.12-.95-2.12-2.12V32c0-1.17.95-2.12,2.12-2.12.58,0,1.06-.47,1.06-1.06s-.47-1.06-1.06-1.06c-2.34,0-4.24,1.9-4.24,4.24v37.6c0,2.34,1.9,4.24,4.24,4.24Z"></path><path class="st0" d="M72.24,43.65c.58,0,1.06-.47,1.06-1.06v-10.59c0-2.34-1.9-4.24-4.24-4.24-.58,0-1.06.47-1.06,1.06s.47,1.06,1.06,1.06c1.17,0,2.12.95,2.12,2.12v10.59c0,.58.47,1.06,1.06,1.06Z"></path><metadata></metadata></svg>