<svg xmlns="http://www.w3.org/2000/svg" xmlns:i="http://ns.adobe.com/AdobeIllustrator/10.0/" id="Layer_1" viewBox="0 0 100 100"><defs><style>      .st0 {        fill: #d80000;      }    </style></defs><g id="Outline"><g><path class="st0" d="M54.38,32.26c.07.02.14.03.22.03.33,0,.63-.22.72-.54l.88-2.92c.12-.4-.11-.82-.51-.94-.4-.12-.82.11-.94.51h0l-.88,2.92c-.12.4.11.82.51.94,0,0,0,0,0,0Z"></path><path class="st0" d="M59.35,33.46c.37.2.82.06,1.02-.3l1.46-2.69c.2-.37.06-.82-.3-1.02s-.82-.06-1.02.3l-1.46,2.69c-.2.37-.06.82.3,1.02,0,0,0,0,0,0Z"></path><path class="st0" d="M64.99,35.92c.22,0,.43-.1.58-.27l1.98-2.35c.27-.31.24-.79-.08-1.06-.31-.27-.79-.24-1.06.08,0,0,0,0-.01.01l-1.98,2.35c-.27.32-.23.79.09,1.06.14.11.31.18.48.18Z"></path><path class="st0" d="M69.59,39.66c.18,0,.35-.06.48-.18l2.34-1.96c.31-.27.34-.75.07-1.06-.27-.3-.72-.34-1.04-.09l-2.34,1.96c-.32.27-.36.74-.09,1.06.14.17.35.27.58.27h0Z"></path><path class="st0" d="M34.36,35.65c.26.32.74.37,1.06.1s.37-.74.1-1.06c0,0,0,0-.01-.01l-1.98-2.35c-.27-.31-.75-.35-1.06-.08-.31.27-.35.73-.09,1.05l1.98,2.35Z"></path><path class="st0" d="M39.55,33.16c.2.37.66.5,1.02.3.37-.2.5-.66.3-1.02l-1.46-2.69c-.2-.37-.66-.5-1.02-.3-.37.2-.5.66-.3,1.02l1.46,2.69Z"></path><path class="st0" d="M29.88,39.51c.32.26.8.22,1.06-.1s.22-.8-.1-1.06c-.01-.01-.02-.02-.04-.03l-2.23-1.72c-.32-.26-.8-.22-1.06.1-.26.32-.22.8.1,1.06.01.01.02.02.04.03l2.23,1.72Z"></path><path class="st0" d="M44.61,31.75c.1.32.39.54.72.54.07,0,.15-.01.22-.03.4-.12.63-.54.51-.94,0,0,0,0,0,0l-.88-2.92c-.12-.4-.54-.63-.94-.51s-.63.54-.51.94l.88,2.92Z"></path><path class="st0" d="M49.96,31.91c.42,0,.75-.34.75-.75v-3.01c0-.42-.34-.75-.75-.75s-.75.34-.75.75v3.01c0,.42.34.75.75.75Z"></path><path class="st0" d="M39.72,55.32c-4.16-1.9-7.81-4.76-10.65-8.34,1.45-1.81,3.1-3.45,4.92-4.88.33-.26.38-.73.13-1.06-.26-.33-.73-.38-1.06-.13-2.07,1.63-3.93,3.52-5.54,5.6-.21.27-.21.65,0,.92,3.05,3.99,7.03,7.17,11.59,9.25.38.17.83,0,1-.38s0-.83-.38-1h0Z"></path><path class="st0" d="M72.41,47.45c.21-.27.21-.65,0-.92-5.71-7.37-13.89-11.6-22.45-11.6-5.17.02-10.22,1.52-14.56,4.32-.35.22-.45.69-.23,1.04s.69.45,1.04.23h0c1.91-1.22,3.98-2.19,6.14-2.88-5.16,4.19-5.94,11.77-1.75,16.92.54.67,1.15,1.28,1.83,1.81v1.15c-1.25,0-2.26,1.01-2.26,2.26s1.01,2.26,2.26,2.26h15.07c.42,0,.75.34.75.75s-.34.75-.75.75h-15.07c-.42,0-.75.34-.75.75s.34.75.75.75c0,4.16,3.37,7.54,7.54,7.54s7.54-3.37,7.54-7.54c1.24,0,2.26-1,2.26-2.24,0-.56-.21-1.11-.59-1.53.84-.92.77-2.34-.15-3.18-.42-.38-.96-.59-1.53-.59v-1.15c2.87-2.27,4.53-5.74,4.52-9.4,0-.87-.1-1.73-.28-2.57-.08-.41-.48-.67-.89-.58-.41.08-.67.48-.58.89,0,0,0,0,0,.01.16.74.25,1.5.25,2.25,0,3.32-1.56,6.45-4.22,8.43-.19.14-.3.37-.3.6v1.52h-3.01v-5.34c2.55-1.47,3.67-4.57,2.63-7.32-.1-.27-.35-.46-.63-.49-.29-.03-.57.11-.72.36-.27.45-.76.73-1.28.73-.83,0-1.51-.67-1.51-1.51,0-.53.28-1.01.73-1.28.36-.22.47-.68.25-1.04-.09-.14-.22-.25-.38-.31-3.11-1.17-6.58.4-7.75,3.51-.26.68-.39,1.4-.39,2.13,0,2.15,1.16,4.13,3.01,5.21v5.34h-3.01v-1.52c0-.24-.11-.46-.3-.6-4.65-3.5-5.59-10.11-2.09-14.76s10.11-5.59,14.76-2.09c1.25.94,2.27,2.15,3,3.53.19.37.65.51,1.02.32.37-.19.51-.65.32-1.02-.75-1.44-1.79-2.71-3.04-3.73,5.24,1.75,9.84,4.99,13.26,9.33-2.84,3.58-6.49,6.44-10.65,8.34-.38.17-.55.61-.38,1s.61.55,1,.38c4.57-2.09,8.55-5.26,11.59-9.25ZM49.96,71.1c-3.33,0-6.03-2.7-6.03-6.03h12.06c0,3.33-2.7,6.03-6.03,6.03ZM58.25,59.8c0,.42-.34.75-.75.75h-15.07c-.42,0-.75-.34-.75-.75s.34-.75.75-.75h15.07c.42,0,.75.34.75.75ZM48.03,51.07c-2.25-1.08-3.21-3.78-2.13-6.03.75-1.57,2.33-2.57,4.07-2.57.13,0,.26,0,.39.02-.82,1.45-.32,3.29,1.13,4.11.92.52,2.05.52,2.98,0,.01.13.02.26.02.39,0,1.74-1.01,3.33-2.58,4.08-.26.12-.43.39-.43.68v5.79h-3.01v-5.79c0-.29-.17-.56-.43-.68Z"></path><path class="st0" d="M65.57,57.24c-.27-.32-.75-.36-1.06-.09-.32.27-.36.75-.09,1.06l1.98,2.35c.27.32.74.36,1.06.09s.36-.74.09-1.06l-1.98-2.36Z"></path><path class="st0" d="M70.07,53.41c-.31-.28-.79-.25-1.06.06-.28.31-.25.79.06,1.06.01.01.03.02.04.03l2.34,1.96c.32.26.8.21,1.06-.12.25-.31.21-.77-.09-1.04l-2.34-1.96Z"></path><path class="st0" d="M34.36,57.24l-1.98,2.35c-.27.32-.23.79.09,1.06.32.27.79.23,1.06-.09l1.98-2.35c.27-.31.24-.79-.08-1.06s-.79-.24-1.06.08c0,0,0,0-.01.01h0Z"></path><path class="st0" d="M29.88,53.39l-2.23,1.72c-.34.24-.41.72-.17,1.05.24.34.72.41,1.05.17.01,0,.03-.02.04-.03l2.23-1.72c.34-.24.41-.72.17-1.05-.24-.34-.72-.41-1.05-.17-.01,0-.03.02-.04.03Z"></path></g></g><metadata></metadata></svg>