<svg xmlns="http://www.w3.org/2000/svg" xmlns:i="http://ns.adobe.com/AdobeIllustrator/10.0/" id="Layer_1" viewBox="0 0 100 100"><defs><style>      .st0 {        fill: #d80000;        fill-rule: evenodd;      }    </style></defs><path class="st0" d="M37.8,30.14c-.2-.35-.08-.79.26-.99.35-.2.79-.08.99.27l1.06,1.84c.28.48-.07,1.09-.63,1.09-.25,0-.49-.13-.63-.36l-1.06-1.84ZM29.32,37.89c.2-.35.64-.47.99-.27l1.84,1.06c.64.37.37,1.35-.36,1.35-.12,0-.25-.03-.36-.1l-1.84-1.06c-.35-.2-.46-.64-.26-.99ZM73.88,49.83c0,.4-.32.72-.72.72h-2.13c-.4,0-.72-.32-.72-.72s.32-.72.72-.72h2.13c.4,0,.72.32.72.72h0ZM28.97,50.56h-2.13c-.4,0-.72-.32-.72-.72s.32-.72.72-.72h2.13c.4,0,.72.32.72.72,0,.4-.32.72-.72.72ZM67.59,39.68c-.2-.35-.08-.79.26-.99l1.84-1.06c.35-.2.79-.08.99.27.2.35.08.79-.26.99l-1.84,1.06c-.34.2-.79.09-.99-.27h0ZM49.28,28.8v-2.13c0-.4.32-.72.72-.72s.72.32.72.72v2.13c0,.4-.32.72-.72.72s-.72-.32-.72-.72ZM59.89,31.26l1.06-1.84c.2-.35.64-.47.99-.27.35.2.46.64.26.99l-1.06,1.84c-.2.35-.65.46-.99.27-.35-.2-.46-.64-.26-.99ZM46.44,35.87c0-.43.35-.77.77-.77h5.58c.43,0,.77.35.77.77v1.68h-7.12v-1.68ZM59.8,40.14v1.41l-8.44,4.52c-.87.47-1.83.47-2.7,0l-8.44-4.52v-1.41c0-.63.51-1.15,1.15-1.15h17.3c.63,0,1.15.52,1.15,1.15ZM58.65,52.35c.63,0,1.15-.51,1.15-1.15v-8.01l-7.76,4.16c-1.31.7-2.76.7-4.07,0l-7.76-4.16v8.01c0,.63.51,1.15,1.15,1.15h17.3ZM38.76,40.14v11.06c0,1.43,1.16,2.59,2.59,2.59h17.3c1.43,0,2.59-1.16,2.59-2.59v-11.06c0-1.43-1.16-2.59-2.59-2.59h-3.64v-1.68c0-1.22-1-2.22-2.22-2.22h-5.58c-1.22,0-2.22,1-2.22,2.22v1.68h-3.64c-1.43,0-2.59,1.16-2.59,2.59h0ZM68.47,60.43l-11.11,6.42c-2.95,1.7-4.69,2.55-7.97,3.04-3.46.51-6.91.25-10.12-.11-1.46-.16-2.79-.29-4.13-.38v-9.37c2.7-.25,5.08-.21,8.13.6.06.02.12.02.19.02h7.84c1.19,0,1.99,1.22,1.54,2.3-.26.63-.87,1.04-1.54,1.04h-7.84c-.4,0-.72.32-.72.72s.32.72.72.72h7.84c1.05,0,2-.52,2.58-1.37.27.05.54.08.8.08,1.26,0,1.9-.48,2.78-.99l9.45-5.46c.75-.44,1.72-.18,2.16.58.44.76.18,1.72-.58,2.16h0ZM33.68,70.6c0,.37-.3.67-.67.67h-3.25c-.37,0-.67-.3-.67-.67v-11.06c0-.37.3-.67.67-.67h3.25c.37,0,.67.3.67.67v11.06ZM66.17,56.44l-9.45,5.46c-.86.5-1.32.88-2.34.78.21-1.85-1.23-3.48-3.1-3.48h-7.74c-3.25-.86-5.77-.89-8.64-.61-.35-.68-1.06-1.15-1.88-1.15h-3.25c-1.17,0-2.11.95-2.11,2.11v11.06c0,1.17.95,2.11,2.11,2.11h3.25c1.08,0,1.98-.82,2.1-1.88,1.3.09,2.58.21,3.99.37,3.46.39,6.95.63,10.5.1,3.65-.54,5.64-1.57,8.48-3.22l11.11-6.42c1.45-.83,1.94-2.69,1.11-4.14-.83-1.45-2.69-1.94-4.14-1.11h0Z"></path><metadata></metadata></svg>