<svg xmlns="http://www.w3.org/2000/svg" xmlns:i="http://ns.adobe.com/AdobeIllustrator/10.0/" id="Layer_1" viewBox="0 0 100 100"><defs><style>      .st0 {        fill: #d80000;      }    </style></defs><path class="st0" d="M52.43,75.28c1.4,0,2.78-.3,4.05-.88l8.79-4.02c1.39-.64,2.62-1.59,3.58-2.79l7.4-9.23c.9-1.12.76-2.75-.31-3.7l-.21-.19c-1.01-.9-2.54-.89-3.55,0l-8.35,7.45c-.69.62-1.48,1.11-2.34,1.45l-6.38,2.56c-.33.13-.7.05-.95-.2l-.91-.91,5.69-2.4s.07-.03.11-.06c.85-.51,1.57-1.23,2.07-2.08.76-1.27.35-2.92-.92-3.68-.55-.33-1.2-.45-1.84-.34l-9.59,1.7c-1.24.22-2.42.68-3.49,1.35l-3.49,2.19c-1.27.8-2.74,1.23-4.24,1.23h-5.46v-.88c0-.49-.4-.89-.89-.89h-7.16c-.49,0-.89.4-.89.89v13.42c0,.49.4.89.89.89h7.16c.49,0,.89-.4.89-.89v-.98l6.4-.64c1.01-.1,2.02-.01,3,.27l3.4.98c.88.25,1.78.38,2.69.38h4.84ZM30.31,74.39h-5.37v-11.63h5.37v11.63ZM42,72.21c-1.19-.34-2.44-.45-3.67-.33l-6.23.63v-7.97h5.46c1.84,0,3.63-.52,5.19-1.5l3.49-2.19c.87-.55,1.84-.92,2.85-1.1l9.59-1.7c.34-.06.68.08.88.37.21.29.22.68.03.98-.34.58-.82,1.08-1.4,1.43l-6.84,2.89c-.45.19-.67.72-.47,1.17.04.11.11.2.19.28l1.84,1.85c.76.76,1.89,1,2.89.6l6.37-2.57c1.05-.42,2.02-1.02,2.86-1.78l8.35-7.45c.33-.3.84-.3,1.17,0l.21.19c.36.32.41.87.1,1.24l-7.4,9.23c-.78.97-1.79,1.75-2.92,2.27l-8.79,4.02c-1.04.48-2.17.72-3.31.72h-4.84c-.74,0-1.48-.1-2.2-.31l-3.4-.97Z"></path><path class="st0" d="M26.74,70.81h1.79v1.79h-1.79v-1.79Z"></path><path class="st0" d="M34.79,29.65v23.26c0,.49.4.89.89.89h28.63c.49,0,.89-.4.89-.89v-23.26c0-.49-.4-.89-.89-.89h-28.63c-.49,0-.89.4-.89.89ZM36.58,30.55h26.84v21.47h-26.84v-21.47Z"></path><path class="st0" d="M57.29,38.71l-4.47-.68-2.01-4.28c-.21-.45-.74-.64-1.19-.43-.19.09-.34.24-.43.43l-2.01,4.28-4.47.68c-.49.07-.82.53-.75,1.02.03.18.11.36.24.49l3.26,3.34-.77,4.73c-.08.49.25.95.74,1.03.2.03.4,0,.58-.1l3.99-2.21,3.99,2.21c.43.24.98.08,1.22-.35.1-.18.13-.38.1-.58l-.77-4.73,3.26-3.34c.35-.35.34-.92-.02-1.27-.13-.13-.31-.22-.49-.24h0ZM52.94,42.64c-.2.2-.29.49-.24.77l.55,3.36-2.81-1.55c-.27-.15-.6-.15-.86,0l-2.81,1.55.55-3.36c.05-.28-.04-.57-.24-.77l-2.36-2.42,3.23-.49c.29-.05.55-.23.67-.5l1.4-2.99,1.4,2.99c.13.27.38.46.67.5l3.22.49-2.36,2.42Z"></path><path class="st0" d="M49.1,22.49h1.79v3.58h-1.79v-3.58Z"></path><path class="st0" d="M68.79,40.39h3.58v1.79h-3.58v-1.79Z"></path><path class="st0" d="M27.63,40.39h3.58v1.79h-3.58v-1.79Z"></path><path class="st0" d="M29.31,25.44l1.27-1.27,2.53,2.53-1.27,1.27-2.53-2.53Z"></path><path class="st0" d="M66.88,26.71l2.53-2.53,1.27,1.27-2.53,2.53-1.27-1.27Z"></path><metadata></metadata></svg>