<svg xmlns="http://www.w3.org/2000/svg" xmlns:i="http://ns.adobe.com/AdobeIllustrator/10.0/" id="Layer_1" viewBox="0 0 100 100"><defs><style>      .st0 {        fill: #d80000;      }      .st1 {        fill: #fff;      }      .st2 {        fill: none;      }    </style></defs><rect class="st2" x="-31.91" y="-36.14" width="126.81" height="160.66"></rect><g><path class="st0" d="M59.31,22.3c1.31-1.27.58-3.49-1.22-3.75l-4.01-.58c-.29-.04-.53-.22-.66-.48l-1.79-3.63c-.81-1.64-3.14-1.63-3.95,0l-1.79,3.63c-.13.26-.37.44-.66.48l-4.01.58c-1.8.26-2.53,2.48-1.22,3.75l2.9,2.83c.21.2.3.49.25.78l-.69,3.99c-.31,1.8,1.59,3.17,3.19,2.32l3.58-1.88c.26-.13.56-.13.82,0l3.58,1.88c1.61.85,3.5-.52,3.19-2.32l-.68-3.99c-.05-.28.05-.58.25-.78l2.9-2.83ZM55.49,24.18c-.52.51-.75,1.23-.63,1.95l.68,3.99c.12.72-.63,1.26-1.27.92l-3.58-1.88c-.64-.34-1.41-.34-2.05,0l-3.58,1.88c-.64.34-1.4-.21-1.27-.92l.69-3.99c.12-.71-.11-1.44-.63-1.95l-2.9-2.83c-.52-.51-.24-1.39.49-1.5l4.01-.58c.72-.1,1.34-.55,1.66-1.2l1.79-3.63c.32-.65,1.25-.65,1.57,0l1.79,3.63c.32.65.94,1.1,1.66,1.21l4.01.58c.72.1,1.01.99.49,1.5l-2.9,2.83Z"></path><path class="st0" d="M77.12,43.71c0-1.09-.89-1.98-1.98-1.98h-6.61v1.32h6.61c.37,0,.66.3.66.66v2.65c0,.36-.3.66-.66.66h-6.61v1.32h4.63v25.8h1.32v-25.8h.66c1.09,0,1.98-.89,1.98-1.98v-2.65Z"></path><path class="st0" d="M22.88,43.71v2.65c0,1.09.89,1.98,1.98,1.98h.66v25.8h1.32v-25.8h4.63v-1.32h-6.61c-.37,0-.66-.3-.66-.66v-2.65c0-.36.3-.66.66-.66h6.61v-1.32h-6.61c-1.09,0-1.98.89-1.98,1.98Z"></path><path class="st0" d="M17.59,87.37h1.32v-3.97c0-.36.3-.66.66-.66h60.86c.37,0,.66.3.66.66v3.97h1.32v-3.97c0-1.09-.89-1.98-1.98-1.98H19.57c-1.09,0-1.98.89-1.98,1.98v3.97Z"></path><path class="st1" d="M77.12,79.43v-1.32c0-1.09-.89-1.98-1.98-1.98H24.86c-1.09,0-1.98.89-1.98,1.98v1.32h1.32v-1.32c0-.36.3-.66.66-.66h50.27c.37,0,.66.3.66.66v1.32h1.32Z"></path><path class="st1" d="M40.74,48.35h2.65c1.09,0,1.98-.89,1.98-1.98v-2.65c0-1.09-.89-1.98-1.98-1.98h-2.65c-1.09,0-1.98.89-1.98,1.98v2.65c0,1.09.89,1.98,1.98,1.98ZM40.08,43.71c0-.36.3-.66.66-.66h2.65c.37,0,.66.3.66.66v2.65c0,.36-.3.66-.66.66h-2.65c-.37,0-.66-.3-.66-.66v-2.65Z"></path><path class="st0" d="M48.68,48.35h2.65c1.09,0,1.98-.89,1.98-1.98v-2.65c0-1.09-.89-1.98-1.98-1.98h-2.65c-1.09,0-1.98.89-1.98,1.98v2.65c0,1.09.89,1.98,1.98,1.98ZM48.02,43.71c0-.36.3-.66.66-.66h2.65c.37,0,.66.3.66.66v2.65c0,.36-.3.66-.66.66h-2.65c-.37,0-.66-.3-.66-.66v-2.65Z"></path><path class="st1" d="M61.24,43.71c0-1.09-.89-1.98-1.98-1.98h-2.65c-1.09,0-1.98.89-1.98,1.98v2.65c0,1.09.89,1.98,1.98,1.98h2.65c1.09,0,1.98-.89,1.98-1.98v-2.65ZM59.92,46.36c0,.36-.3.66-.66.66h-2.65c-.37,0-.66-.3-.66-.66v-2.65c0-.36.3-.66.66-.66h2.65c.37,0,.66.3.66.66v2.65Z"></path><path class="st1" d="M38.76,54.3c0,1.09.89,1.98,1.98,1.98h2.65c1.09,0,1.98-.89,1.98-1.98v-2.65c0-1.09-.89-1.98-1.98-1.98h-2.65c-1.09,0-1.98.89-1.98,1.98v2.65ZM40.08,51.65c0-.36.3-.66.66-.66h2.65c.37,0,.66.3.66.66v2.65c0,.36-.3.66-.66.66h-2.65c-.37,0-.66-.3-.66-.66v-2.65Z"></path><path class="st0" d="M46.69,54.3c0,1.09.89,1.98,1.98,1.98h2.65c1.09,0,1.98-.89,1.98-1.98v-2.65c0-1.09-.89-1.98-1.98-1.98h-2.65c-1.09,0-1.98.89-1.98,1.98v2.65ZM48.02,51.65c0-.36.3-.66.66-.66h2.65c.37,0,.66.3.66.66v2.65c0,.36-.3.66-.66.66h-2.65c-.37,0-.66-.3-.66-.66v-2.65Z"></path><path class="st1" d="M61.24,51.65c0-1.09-.89-1.98-1.98-1.98h-2.65c-1.09,0-1.98.89-1.98,1.98v2.65c0,1.09.89,1.98,1.98,1.98h2.65c1.09,0,1.98-.89,1.98-1.98v-2.65ZM59.92,54.3c0,.36-.3.66-.66.66h-2.65c-.37,0-.66-.3-.66-.66v-2.65c0-.36.3-.66.66-.66h2.65c.37,0,.66.3.66.66v2.65Z"></path><path class="st1" d="M38.76,62.24c0,1.09.89,1.98,1.98,1.98h2.65c1.09,0,1.98-.89,1.98-1.98v-2.65c0-1.09-.89-1.98-1.98-1.98h-2.65c-1.09,0-1.98.89-1.98,1.98v2.65ZM40.08,59.59c0-.36.3-.66.66-.66h2.65c.37,0,.66.3.66.66v2.65c0,.36-.3.66-.66.66h-2.65c-.37,0-.66-.3-.66-.66v-2.65Z"></path><path class="st0" d="M46.69,62.24c0,1.09.89,1.98,1.98,1.98h2.65c1.09,0,1.98-.89,1.98-1.98v-2.65c0-1.09-.89-1.98-1.98-1.98h-2.65c-1.09,0-1.98.89-1.98,1.98v2.65ZM48.02,59.59c0-.36.3-.66.66-.66h2.65c.37,0,.66.3.66.66v2.65c0,.36-.3.66-.66.66h-2.65c-.37,0-.66-.3-.66-.66v-2.65Z"></path><path class="st1" d="M59.26,64.22c1.09,0,1.98-.89,1.98-1.98v-2.65c0-1.09-.89-1.98-1.98-1.98h-2.65c-1.09,0-1.98.89-1.98,1.98v2.65c0,1.09.89,1.98,1.98,1.98h2.65ZM55.95,62.24v-2.65c0-.36.3-.66.66-.66h2.65c.37,0,.66.3.66.66v2.65c0,.36-.3.66-.66.66h-2.65c-.37,0-.66-.3-.66-.66Z"></path><path class="st1" d="M55.95,74.14v-6.61c0-1.09-.89-1.98-1.98-1.98h-7.94c-1.09,0-1.98.89-1.98,1.98v6.61h1.32v-6.61c0-.36.3-.66.66-.66h7.94c.37,0,.66.3.66.66v6.61h1.32Z"></path><path class="st1" d="M62.57,22.55c0,1.09.89,1.98,1.98,1.98h2.65c1.09,0,1.98-.89,1.98-1.98s-.89-1.98-1.98-1.98h-2.65c-1.09,0-1.98.89-1.98,1.98ZM67.86,22.55c0,.36-.3.66-.66.66h-2.65c-.37,0-.66-.3-.66-.66s.3-.66.66-.66h2.65c.37,0,.66.3.66.66Z"></path><path class="st1" d="M62.6,13.76l-1.87,1.87c-.77.77-.77,2.03,0,2.81.77.77,2.03.78,2.81,0l1.87-1.87c.77-.77.77-2.03,0-2.81-.75-.75-2.06-.75-2.81,0h0ZM64.47,15.63l-1.87,1.87c-.26.26-.68.26-.94,0-.26-.26-.26-.68,0-.94l1.87-1.87c.26-.26.68-.26.94,0,.26.26.26.67,0,.94Z"></path><path class="st1" d="M60.73,29.24l1.87,1.87c.77.77,2.03.78,2.81,0,.77-.77.77-2.03,0-2.81l-1.87-1.87c-.77-.78-2.03-.77-2.81,0-.77.77-.77,2.03,0,2.81ZM61.67,27.37c.26-.26.68-.26.94,0l1.87,1.87c.26.26.26.68,0,.94-.25.25-.69.25-.94,0l-1.87-1.87c-.26-.26-.26-.68,0-.94h0Z"></path><path class="st1" d="M30.82,22.55c0,1.09.89,1.98,1.98,1.98h2.65c1.09,0,1.98-.89,1.98-1.98s-.89-1.98-1.98-1.98h-2.65c-1.09,0-1.98.89-1.98,1.98ZM36.11,22.55c0,.36-.3.66-.66.66h-2.65c-.37,0-.66-.3-.66-.66s.3-.66.66-.66h2.65c.37,0,.66.3.66.66Z"></path><path class="st1" d="M36.46,26.44l-1.87,1.87c-.77.77-.77,2.03,0,2.81.78.78,2.03.77,2.81,0l1.87-1.87c.77-.77.77-2.03,0-2.81s-2.03-.78-2.81,0ZM38.33,28.31l-1.87,1.87c-.25.25-.68.25-.94,0-.26-.26-.26-.68,0-.94l1.87-1.87c.26-.26.68-.26.94,0s.26.68,0,.94h0Z"></path><path class="st1" d="M37.4,13.76c-.75-.75-2.06-.75-2.81,0-.77.77-.77,2.03,0,2.81l1.87,1.87c.77.77,2.03.78,2.81,0,.77-.77.77-2.03,0-2.81l-1.87-1.87ZM38.33,17.5c-.26.26-.68.26-.94,0l-1.87-1.87c-.26-.26-.26-.68,0-.94.26-.26.68-.26.94,0l1.87,1.87c.26.26.26.68,0,.94h0Z"></path><path class="st0" d="M30.82,38.42c0,1.09.89,1.98,1.98,1.98h.66v33.73h1.32v-33.73h30.43v33.73h1.32v-33.73h.66c1.09,0,1.98-.89,1.98-1.98v-2.65c0-1.09-.89-1.98-1.98-1.98h-34.4c-1.09,0-1.98.89-1.98,1.98v2.65ZM32.14,35.78c0-.36.3-.66.66-.66h34.4c.37,0,.66.3.66.66v2.65c0,.36-.3.66-.66.66h-34.4c-.37,0-.66-.3-.66-.66v-2.65Z"></path></g><metadata></metadata></svg>