<svg xmlns="http://www.w3.org/2000/svg" xmlns:i="http://ns.adobe.com/AdobeIllustrator/10.0/" id="Layer_1" viewBox="0 0 100 100"><defs><style>      .st0 {        fill: #d80000;      }      .st1 {        fill: #fff;      }      .st2 {        fill: none;      }    </style></defs><rect class="st2" x="-31.91" y="-36.14" width="126.81" height="160.66"></rect><g><path class="st0" d="M71.82,36.69v-12.8c0-.6-.49-1.09-1.09-1.09h-8.15c-.6,0-1.09.49-1.09,1.09h0v3.94l-7.87-6.74c-2.08-1.8-5.17-1.8-7.25,0l-26.17,22.43c-.92.82-1,2.23-.18,3.15.41.47,1,.74,1.63.75h6.53v20.66c0,5.18,4.2,9.38,9.38,9.39h11.44c.6-.01,1.08-.51,1.07-1.12-.01-.58-.48-1.05-1.07-1.07h-11.44c-3.97,0-7.19-3.23-7.2-7.21v-21.75c0-.6-.49-1.09-1.09-1.09h0l-7.64-.05,26.17-22.43c1.27-1.1,3.14-1.1,4.41,0l9.67,8.29c.47.39,1.16.32,1.55-.14.16-.19.25-.43.25-.69v-5.22h5.96v12.21c0,.32.14.62.38.83l8.33,7.21h-7.62c-.6,0-1.09.49-1.09,1.09h0v4.04c.01.6.51,1.08,1.11,1.07.59-.01,1.06-.48,1.07-1.07v-2.95h6.53c1.23-.02,2.21-1.04,2.19-2.27-.01-.62-.28-1.21-.75-1.63l-7.97-6.82Z"></path><path class="st0" d="M63.1,61.16c-2.71,0-4.91,2.2-4.91,4.91s2.2,4.91,4.91,4.91c2.71,0,4.91-2.2,4.91-4.91,0-2.71-2.2-4.91-4.91-4.91ZM63.1,68.8c-1.51,0-2.73-1.22-2.73-2.73,0-1.51,1.22-2.73,2.73-2.73h0c1.51,0,2.73,1.22,2.73,2.73,0,1.51-1.22,2.73-2.73,2.73Z"></path><path class="st1" d="M74.72,67.39l-1.03-.59c.04-.48.04-.97,0-1.46l1.03-.59c1.66-.96,2.23-3.08,1.27-4.75l-1.19-2.06c-.96-1.65-3.08-2.22-4.75-1.27l-1.03.59c-.4-.27-.82-.52-1.26-.73v-1.18c0-1.92-1.56-3.47-3.47-3.47h-2.38c-1.92,0-3.47,1.56-3.47,3.47v1.18c-.44.21-.86.46-1.26.73l-1.03-.59c-1.66-.95-3.78-.38-4.74,1.27l-1.19,2.06c-.96,1.66-.39,3.78,1.27,4.75l1.03.59c-.04.48-.04.97,0,1.46l-1.03.59c-1.66.96-2.23,3.08-1.27,4.75l1.19,2.06c.96,1.65,3.08,2.22,4.75,1.27l1.03-.59c.4.27.82.52,1.26.73v1.18c0,1.92,1.56,3.47,3.47,3.47h2.38c1.92,0,3.47-1.56,3.47-3.47v-1.18c.44-.21.86-.46,1.26-.73l1.03.59c1.66.95,3.78.38,4.74-1.27l1.19-2.06c.96-1.66.39-3.78-1.27-4.75h0ZM74.1,71.04l-1.19,2.06c-.36.61-1.14.83-1.76.47-.91-.42-2-1.57-2.86-.86-.77.86-2.65.94-2.7,2.18v1.89c0,.71-.58,1.29-1.29,1.29h-2.38c-.71,0-1.29-.58-1.29-1.29-.09-1.03.35-2.51-.68-2.9-.99-.26-1.71-1.23-2.69-1.4-1.23.13-2.89,2.32-3.95.62l-1.19-2.06c-.36-.62-.14-1.41.47-1.76.85-.59,2.35-.95,2.18-2.04-.12-.77-.12-1.56,0-2.33.06-.44-.15-.87-.54-1.09l-1.64-.95c-.62-.36-.83-1.15-.47-1.76l1.19-2.06c.36-.61,1.14-.82,1.76-.47l1.64.95c1.11.58,2.13-1.03,3.24-1.26,1.03-.4.59-1.87.68-2.9,0-.71.58-1.29,1.29-1.29h2.38c.71,0,1.29.58,1.29,1.29.09,1.03-.35,2.51.68,2.9,1.11.23,2.1,1.83,3.24,1.26l1.64-.95c1.55-.85,2.16,1.33,2.95,2.53.36.62.14,1.41-.47,1.76l-1.64.95c-.86.44-.41,1.58-.44,2.26.04.68-.41,1.82.44,2.26l1.64.95c.62.36.83,1.14.47,1.76h0Z"></path></g><metadata></metadata></svg>