<svg xmlns="http://www.w3.org/2000/svg" xmlns:i="http://ns.adobe.com/AdobeIllustrator/10.0/" id="Layer_1" viewBox="0 0 100 100"><defs><style>      .st0 {        fill: #d80000;      }      .st1 {        fill: #fff;      }      .st2 {        fill: none;      }    </style></defs><rect class="st2" x="-31.91" y="-36.14" width="126.81" height="160.66"></rect><g><path class="st0" d="M61.71,42.85v-13.88l12.03,6.93-12.03,6.95ZM64.73,34.19v3.46l2.99-1.73-2.99-1.73Z"></path><path class="st0" d="M78.56,54.5h2.99v15.02h-2.99v-15.02Z"></path><path class="st0" d="M21.46,69.53h-3.02v-33.04c0-2.47,2.03-4.5,4.5-4.5h24.03v2.99h-24.01c-.82,0-1.51.67-1.51,1.51v33.04Z"></path><path class="st0" d="M81.55,80.04H18.45c-2.47,0-4.5-2.03-4.5-4.5v-4.5h72.12v4.5c0,2.47-2.03,4.5-4.5,4.5h0ZM16.96,74.03v1.51c0,.82.67,1.51,1.51,1.51h63.11c.82,0,1.51-.67,1.51-1.51v-1.51H16.96Z"></path><path class="st0" d="M48.52,69.53h-2.99v-2.99c0-2.47-2.03-4.5-4.5-4.5h-10.54c-2.47,0-4.5,2.03-4.5,4.5v2.99h-2.99v-2.99c0-4.13,3.37-7.52,7.52-7.52h10.52c4.13,0,7.52,3.37,7.52,7.52v2.99h-.02Z"></path><path class="st1" d="M35.74,57.52c-3.74,0-6.76-3.04-6.76-6.76s3.02-6.78,6.76-6.78,6.76,3.04,6.76,6.76-3.04,6.78-6.76,6.78ZM35.74,47.01c-2.08,0-3.76,1.68-3.76,3.76s1.68,3.76,3.76,3.76,3.76-1.68,3.76-3.76-1.71-3.76-3.76-3.76h0Z"></path><path class="st1" d="M53.02,62.65v-11.14h-6.01v-31.55h39.05v31.55h-21.9l-11.14,11.14ZM50,48.49h6.01v6.88l6.88-6.88h20.15v-25.54h-33.04v25.54Z"></path></g><metadata></metadata></svg>