<svg xmlns="http://www.w3.org/2000/svg" xmlns:i="http://ns.adobe.com/AdobeIllustrator/10.0/" id="Layer_1" viewBox="0 0 100 100"><defs><style>      .st0 {        fill: #d80000;      }      .st1 {        fill: #fff;      }      .st2 {        fill: none;      }    </style></defs><rect class="st2" x="-31.91" y="-36.14" width="126.81" height="160.66"></rect><g><path class="st0" d="M63.16,70.17h-10.09v-8.97c0-3.1-2.51-5.6-5.6-5.6h-6.72v-6.15l15.22-10.87c.25-.17.41-.44.46-.74.04-.3-.03-.6-.21-.84l-3.36-4.48c-.36-.48-1.04-.59-1.54-.25l-11.49,7.95c2.03-3.83.58-8.58-3.25-10.61-3.83-2.03-8.58-.58-10.61,3.25-1.63,3.08-1.04,6.86,1.45,9.3h-1.24c-.32,0-.62.14-.83.37l-7.24,8.05c-1.99,2.22-1.89,5.61.22,7.71l5.93,5.96c.23.23.56.35.89.33.33-.03.64-.2.83-.47l1.32-1.87v20.28c0,.62.5,1.12,1.12,1.12h6.72c.62,0,1.12-.5,1.12-1.12v-17.93h7.85v5.6h-3.36c-.62,0-1.12.5-1.12,1.12v11.21c0,.62.5,1.12,1.12,1.12h22.42c.62,0,1.12-.5,1.12-1.12v-11.21c0-.62-.5-1.12-1.12-1.12ZM27.29,36.55c0-3.1,2.51-5.6,5.6-5.6s5.6,2.51,5.6,5.6-2.51,5.6-5.6,5.6-5.6-2.51-5.6-5.6ZM35.56,44.4l-1.55,3.09-1.55-3.09h3.09ZM27.29,56.4l-1.79-1.92,1.79-1.79v3.71ZM35.13,62.33c-.62,0-1.12.5-1.12,1.12v17.93h-4.48v-31.38c0-.45-.28-.86-.69-1.03-.42-.18-.9-.08-1.22.24l-4.48,4.48c-.43.44-.43,1.13,0,1.57l3.67,3.82-1.89,2.65-5.02-5c-1.28-1.27-1.33-3.32-.12-4.65l6.92-7.68h3.28l3.06,6.11c.28.55.96.77,1.51.49.21-.11.38-.28.49-.49l3.24-6.47,13.45-9.31,2.03,2.7-14.76,10.55c-.29.21-.47.55-.47.91v7.85c0,.62.5,1.12,1.12,1.12h7.85c1.86,0,3.36,1.51,3.36,3.36v8.97h-4.48v-6.72c0-.62-.5-1.12-1.12-1.12h-10.09ZM62.03,81.38h-20.17v-8.97h20.17v8.97Z"></path><path class="st1" d="M82.21,25.34c-4.33,0-7.85-3.51-7.85-7.85,0-.62-.5-1.12-1.12-1.12s-1.12.5-1.12,1.12c0,4.33-3.51,7.85-7.85,7.85-.62,0-1.12.5-1.12,1.12s.5,1.12,1.12,1.12c4.33,0,7.85,3.51,7.85,7.85,0,.62.5,1.12,1.12,1.12s1.12-.5,1.12-1.12c0-4.33,3.51-7.85,7.85-7.85.62,0,1.12-.5,1.12-1.12s-.5-1.12-1.12-1.12ZM73.24,30.81c-.97-1.86-2.49-3.38-4.35-4.35,1.86-.97,3.38-2.49,4.35-4.35.97,1.86,2.49,3.38,4.35,4.35-1.86.97-3.38,2.49-4.35,4.35Z"></path><rect class="st1" x="51.58" y="45.51" width="3.79" height="2.24" transform="translate(-17.23 40.65) rotate(-36.25)"></rect><rect class="st1" x="56.21" y="38.42" width="13.9" height="2.24" transform="translate(-11.15 45.03) rotate(-36.27)"></rect><rect class="st1" x="56.87" y="30.94" width="8.08" height="2.24" transform="translate(-7.56 39.17) rotate(-33.69)"></rect></g><metadata></metadata></svg>