<svg xmlns="http://www.w3.org/2000/svg" xmlns:i="http://ns.adobe.com/AdobeIllustrator/10.0/" id="Layer_1" viewBox="0 0 100 100"><defs><style>      .st0 {        fill: #d80000;      }      .st1 {        fill: #fff;      }      .st2 {        fill: none;      }    </style></defs><rect class="st2" x="-31.91" y="-36.14" width="126.81" height="160.66"></rect><g><path class="st1" d="M63.83,37.49h-24.54c-1.51,0-2.75,1.24-2.75,2.75v16.58c0,1.51,1.24,2.75,2.75,2.75h24.54c1.51,0,2.75-1.24,2.75-2.75v-16.58c0-1.51-1.24-2.75-2.75-2.75ZM64.39,56.84c0,.32-.26.58-.58.58h-24.52c-.32,0-.58-.26-.58-.58v-16.6c0-.32.26-.58.58-.58h24.54c.32,0,.58.26.58.58v16.6h-.01Z"></path><path class="st1" d="M43.63,62.08h-6c-.61,0-1.09.48-1.09,1.09s.48,1.09,1.09,1.09h6c.61,0,1.09-.48,1.09-1.09.01-.59-.48-1.09-1.09-1.09Z"></path><path class="st1" d="M54.55,62.08h-6c-.61,0-1.09.48-1.09,1.09s.48,1.09,1.09,1.09h6c.61,0,1.09-.48,1.09-1.09.01-.59-.48-1.09-1.09-1.09Z"></path><path class="st1" d="M65.48,62.08h-6c-.61,0-1.09.48-1.09,1.09s.48,1.09,1.09,1.09h6c.61,0,1.09-.48,1.09-1.09.01-.59-.48-1.09-1.09-1.09Z"></path><path class="st0" d="M90.49,36.13c-.29-.21-.67-.25-1-.12l-17.72,6.7v-6.3c0-1.98-1.61-3.58-3.58-3.58h-2.04c2.82-2.06,4.68-5.39,4.68-9.15,0-6.25-5.08-11.33-11.33-11.33s-11.33,5.08-11.33,11.33c0,3.76,1.84,7.09,4.68,9.15h-9.63c1.65-1.51,2.68-3.67,2.68-6.08,0-4.55-3.7-8.26-8.26-8.26s-8.26,3.7-8.26,8.26c0,2.41,1.05,4.57,2.68,6.08h-4.87c-1.98,0-3.58,1.61-3.58,3.58v1.65h-4.24l-8.85-3.55c-.33-.14-.72-.1-1.02.11s-.48.54-.48.91v14.05c0,.36.18.7.48.91.18.12.4.19.61.19.14,0,.28-.03.4-.08l8.86-3.55h4.22v18.72c0,1.98,1.61,3.58,3.58,3.58h18.22l-13.38,16.54c-.39.47-.3,1.16.17,1.53.47.39,1.16.3,1.53-.17l13.97-17.27,13.95,17.27c.22.26.54.4.85.4.23,0,.48-.08.69-.25.47-.39.54-1.06.17-1.53l-13.36-16.54h18.21c1.98,0,3.58-1.61,3.58-3.58v-6.3l17.72,6.7c.12.04.26.07.39.07.22,0,.44-.07.62-.19.29-.21.47-.54.47-.89v-28.09c-.01-.36-.18-.7-.48-.91ZM50.33,23.68c0-5.05,4.1-9.15,9.15-9.15s9.15,4.1,9.15,9.15-4.1,9.15-9.15,9.15-9.15-4.1-9.15-9.15ZM31.55,26.75c0-3.34,2.72-6.08,6.08-6.08s6.08,2.72,6.08,6.08-2.72,6.08-6.08,6.08-6.08-2.72-6.08-6.08ZM11.19,37.14l6.88,2.75v5.31l-6.88,2.75v-10.82ZM20.25,44.84v-4.61h3.34v4.61h-3.34ZM69.58,65.74c0,.77-.63,1.4-1.4,1.4H27.18c-.77,0-1.4-.63-1.4-1.4v-19.71s.03-.07.03-.1v-6.8s-.01-.07-.03-.1v-2.63c0-.77.63-1.4,1.4-1.4h40.99c.77,0,1.4.63,1.4,1.4v29.33ZM88.78,63.54l-17.02-6.43v-12.07l17.02-6.43v24.92Z"></path><path class="st1" d="M59.48,18.49c-2.86,0-5.19,2.33-5.19,5.19s2.33,5.19,5.19,5.19,5.19-2.33,5.19-5.19-2.33-5.19-5.19-5.19ZM59.48,26.69c-1.65,0-3-1.35-3-3s1.35-3,3-3,3,1.35,3,3-1.35,3-3,3Z"></path><path class="st1" d="M37.63,22.8c-2.19,0-3.96,1.78-3.96,3.96s1.78,3.96,3.96,3.96,3.96-1.78,3.96-3.96-1.78-3.96-3.96-3.96ZM37.63,28.53c-.98,0-1.78-.8-1.78-1.78s.8-1.78,1.78-1.78,1.78.8,1.78,1.78-.8,1.78-1.78,1.78Z"></path></g><metadata></metadata></svg>