<svg xmlns="http://www.w3.org/2000/svg" xmlns:i="http://ns.adobe.com/AdobeIllustrator/10.0/" id="Layer_1" viewBox="0 0 100 100"><defs><style>      .st0 {        fill: #d80000;      }      .st1 {        fill: #fff;      }      .st2 {        fill: none;      }    </style></defs><rect class="st2" x="-31.91" y="-36.14" width="126.81" height="160.66"></rect><g><path class="st1" d="M44.08,75.64l-.19.95.19-.95c-.53-.1-1.04.24-1.14.77-.1.53.24,1.04.77,1.14,0,0,.02,0,.02,0,.06.01.12.02.18.02.46,0,.87-.32.95-.79.1-.53-.24-1.04-.77-1.14Z"></path><path class="st1" d="M51.52,75.95l.1.97-.1-.97c-.53.05-.92.53-.87,1.07.05.5.47.87.97.87.03,0,.07,0,.1,0h.03c.53-.07.91-.54.85-1.08-.06-.53-.54-.91-1.07-.86Z"></path><path class="st1" d="M47.79,76.08s-.01,0-.01,0c-.54-.02-.98.39-1.01.93-.02.54.4.99.93,1.01.02,0,.03,0,.05,0,.52,0,.95-.41.97-.93.02-.54-.39-.99-.93-1.02Z"></path><path class="st1" d="M40.49,74.65h-.01c-.51-.19-1.06.08-1.24.58-.18.51.09,1.06.59,1.25.11.04.22.06.33.06.4,0,.77-.25.92-.64.18-.51-.08-1.06-.59-1.24Z"></path><path class="st1" d="M55.19,75.27l.24.94-.24-.94c-.52.13-.83.66-.7,1.18.11.44.51.73.94.73.08,0,.16-.01.24-.03,0,0,.02,0,.03,0,.52-.14.82-.67.68-1.19-.14-.52-.67-.82-1.19-.69Z"></path><path class="st1" d="M58.7,74.05l.39.89-.39-.89c-.49.21-.72.79-.5,1.28.16.37.52.58.89.58.13,0,.26-.03.39-.08,0,0,.02,0,.02-.01.49-.22.7-.79.49-1.28-.22-.49-.79-.71-1.28-.49Z"></path><path class="st1" d="M36.78,29.72c.16,0,.31-.04.46-.12.47-.25.65-.84.4-1.32-.25-.47-.84-.65-1.32-.4h-.01c-.47.26-.65.84-.39,1.32.17.33.51.51.86.51Z"></path><path class="st1" d="M25.53,40.58c.14.08.3.11.45.11.35,0,.69-.19.86-.52l.02-.03c.24-.48.04-1.07-.44-1.3-.48-.24-1.06-.04-1.3.43-.25.48-.06,1.06.41,1.31Z"></path><path class="st1" d="M24.16,44.24c.1.03.21.05.31.05.41,0,.78-.26.92-.66v-.04c.17-.51-.12-1.06-.63-1.22-.51-.16-1.05.13-1.21.63-.17.51.1,1.06.61,1.23Z"></path><path class="st1" d="M27.45,37.18c.17.13.37.19.57.19.3,0,.6-.14.79-.4v-.02c.32-.44.22-1.04-.21-1.35-.44-.31-1.04-.21-1.36.22l.78.58-.79-.57c-.32.43-.22,1.04.21,1.36Z"></path><path class="st1" d="M33.47,31.82c.2,0,.41-.06.59-.2.43-.32.53-.93.21-1.36-.32-.43-.93-.53-1.36-.21l-.02.02c-.43.32-.51.94-.19,1.36.19.25.48.39.78.39Z"></path><path class="st1" d="M23.29,58.99c.13.42.51.69.93.69.09,0,.19-.01.29-.04.51-.16.8-.7.65-1.21-.15-.51-.68-.81-1.19-.67-.52.14-.82.68-.68,1.19,0,.01,0,.03.01.04Z"></path><path class="st1" d="M30.54,34.38c.25,0,.51-.1.7-.29.38-.38.38-1,0-1.38s-1-.38-1.38,0l-.02.02c-.38.38-.37,1,.02,1.37.19.19.43.28.68.28Z"></path><path class="st1" d="M24.37,54.75c-.07-.53-.55-.9-1.08-.84-.53.06-.91.55-.85,1.08v.04c.08.48.49.83.97.83.05,0,.09,0,.14-.01.53-.08.9-.57.82-1.1Z"></path><path class="st1" d="M23.14,51.96s.02,0,.03,0c.52,0,.96-.42.97-.94v-.04c0-.54-.43-.97-.97-.97s-.97.43-.97.96c-.01.54.41.98.94,1Z"></path><path class="st1" d="M23.36,48.06c.06.01.12.02.17.02.46,0,.87-.33.96-.8,0-.01,0-.03,0-.04.08-.53-.29-1.03-.82-1.1-.53-.08-1.02.28-1.1.81-.09.53.26,1.03.79,1.13Z"></path><path class="st1" d="M69.23,37.48c.19.27.49.42.8.42.19,0,.38-.06.55-.17.44-.3.55-.91.25-1.35l-.81.54.81-.55c-.3-.44-.91-.56-1.35-.26-.44.3-.56.91-.26,1.35v.02Z"></path><path class="st1" d="M74.19,47.27c-.53.06-.92.54-.86,1.08v.04c.07.48.49.83.97.83.05,0,.09,0,.14,0,.53-.08.89-.56.83-1.09-.06-.53-.54-.91-1.07-.85Z"></path><path class="st1" d="M72.55,44.53h0c.12.44.51.71.93.71.09,0,.18-.01.27-.04.52-.15.81-.69.66-1.21h0c-.15-.53-.69-.82-1.21-.67-.52.15-.81.69-.66,1.21Z"></path><path class="st1" d="M71.18,40.89c.17.34.52.55.88.55.14,0,.29-.03.43-.1.48-.24.68-.82.44-1.3l-.88.41.88-.41c-.23-.49-.81-.7-1.29-.47s-.7.81-.47,1.29v.03Z"></path><path class="st1" d="M66.78,34.45c.19.19.44.29.69.29s.49-.09.68-.28c.38-.37.39-.98.02-1.37-.36-.39-.98-.42-1.37-.05-.39.36-.42.98-.05,1.37l.03.03Z"></path><path class="st1" d="M74.51,51.33c-.53-.01-.98.41-1,.94-.02.53.38.99.92,1.02.02,0,.04,0,.06,0,.51,0,.94-.4.97-.92v-.04c.02-.54-.41-.98-.94-1Z"></path><path class="st1" d="M60.56,29.67h.02c.14.09.3.13.45.13.35,0,.68-.19.86-.51.25-.47.07-1.06-.4-1.32l-.47.85.47-.85c-.47-.26-1.06-.09-1.32.39-.26.47-.09,1.06.39,1.32Z"></path><path class="st1" d="M63.85,31.81h.02c.18.14.38.21.59.21.29,0,.58-.13.78-.38.32-.43.24-1.04-.19-1.36h0c-.43-.33-1.04-.25-1.36.17s-.25,1.04.18,1.36Z"></path><path class="st0" d="M82.59,66.05l-4.56-4.57c-.39-.39-.9-.6-1.45-.6s-1.07.21-1.45.6l-.11.11-.3-.3c-.37-.37-.66-.8-.85-1.27-.02-.06-.04-.12-.07-.18-.15-.42-.23-.86-.23-1.32v-1.29c.09.05.19.08.29.1.06,0,.11.01.17.01.46,0,.87-.33.96-.8.1-.53-.24-1.04-.76-1.14-.23-.05-.46,0-.65.1-.06-1.38-.62-2.67-1.61-3.66l-4.43-4.44c-.99-1-2.32-1.54-3.72-1.54-1.09,0-2.12.33-3,.94l-.47-.47v-11.12c0-1.34-.49-2.63-1.37-3.64-.63-.72-.97-1.64-.97-2.59v-.81h.07c1.13,0,2.06-.92,2.06-2.06v-6.47c0-1.13-.92-2.06-2.06-2.06h-18.16c-1.13,0-2.06.92-2.06,2.06v6.47c0,1.13.92,2.06,2.06,2.06h.15v.43c0,1.05-.41,2.03-1.15,2.77l-1.96,1.96c-1.04,1.04-1.61,2.43-1.61,3.9v6.27c0,.85.2,1.66.56,2.37-1.29.07-2.49.61-3.41,1.53l-4.43,4.44c-1.04,1.04-1.61,2.43-1.61,3.9v2.78c0,1.05-.41,2.03-1.15,2.77l-.3.3s0,0,0,0l-.11-.11c-.39-.39-.9-.6-1.45-.6s-1.07.21-1.45.6l-4.57,4.57c-.8.8-.8,2.11,0,2.91l1.56,1.57c.38.38,1,.38,1.38,0,.38-.38.38-1,0-1.38l-1.56-1.57s-.04-.12,0-.16l4.57-4.57s.11-.04.15,0l.79.8h0l10.84,10.86,1.21,1.22s.04.12,0,.16l-4.56,4.57s-.11.04-.15,0l-8.53-8.54c-.38-.38-1-.38-1.38,0-.38.38-.38,1,0,1.38l8.53,8.54c.39.39.9.6,1.45.6s1.07-.21,1.45-.6l4.56-4.57c.8-.8.8-2.11,0-2.91l-.05-.05.58-.58c.67-.67,1.57-1.08,2.52-1.14,1.34-.09,2.59-.66,3.54-1.61l4.19-4.2c1.21-.32,2.15-1.3,2.41-2.54.43.21.91.32,1.42.32,1.83,0,3.32-1.49,3.32-3.32v-2.31c.42.19.88.3,1.37.3,1.83,0,3.32-1.49,3.32-3.32v-6.83l2.99,3.01c.19.19.44.29.69.29s.5-.09.69-.28c.38-.38.38-.99,0-1.38l-2.49-2.51c.48-.27,1.03-.41,1.59-.41.89,0,1.72.35,2.34.97l4.43,4.44c.67.68,1.04,1.57,1.04,2.53v2.78c0,1.57.61,3.04,1.72,4.15l.3.3-1.41,1.41-8.53,8.55-.48-.48s0,0-.01-.01l-.08-.08c-1.01-1.01-2.34-1.61-3.77-1.71-.86-.06-1.68-.42-2.29-1.04l-3.2-3.18c-.38-.38-1-.38-1.38,0-.38.38-.38,1,0,1.38l3.19,3.18c.95.95,2.2,1.52,3.54,1.61.95.06,1.84.47,2.52,1.14l.05.05s.05.06.08.08l.45.45-.05.05c-.8.8-.8,2.11,0,2.91l4.56,4.57c.39.39.9.6,1.45.6s1.07-.21,1.45-.6l12.85-12.87c.8-.8.8-2.11,0-2.91ZM74.22,56.38h-.02s-.18-.04-.18-.04l.2.04ZM42.93,69.6c-.61.61-1.43.98-2.29,1.04-1.42.09-2.76.7-3.77,1.71l-.57.57-.52-.52s-.01-.01-.02-.02l-9.41-9.42.3-.3c1.11-1.11,1.72-2.58,1.72-4.15v-2.78c0-.95.37-1.85,1.04-2.53l4.43-4.44c.63-.63,1.46-.97,2.34-.97.57,0,1.11.14,1.6.41l-2.5,2.5c-.38.38-.38,1,0,1.38.19.19.44.28.69.28s.5-.1.69-.29l2.98-2.99v12.14c0,1.83,1.49,3.32,3.32,3.32.52,0,1-.12,1.44-.33.2.96.81,1.78,1.65,2.24l-3.13,3.13ZM58.39,55.9c0,.76-.62,1.38-1.37,1.38s-1.37-.62-1.37-1.38v-10.85c0-.54-.44-.97-.97-.97s-.97.44-.97.97v16.18c0,.76-.62,1.38-1.37,1.38-.68,0-1.24-.5-1.35-1.15v-16.42c0-.54-.44-.97-.97-.97-.17,0-.34.05-.48.12-.31.16-.52.49-.52.86v16.18c0,.12,0,.24.02.36v1.96c0,.76-.62,1.38-1.37,1.38s-1.37-.62-1.37-1.38v-18.53c0-.54-.44-.97-.97-.97s-.97.44-.97.97v16.2c0,.76-.62,1.38-1.37,1.38s-1.37-.62-1.37-1.38v-18.09c0-.54-.44-.97-.97-.97s-.97.44-.97.97v3.35c-.08.03-.16.06-.23.11-1.26-.47-2.16-1.69-2.16-3.11v-6.27c0-.95.37-1.85,1.04-2.53l1.96-1.96c1.11-1.11,1.72-2.58,1.72-4.15v-.43h1.96c.54,0,.97-.44.97-.97s-.44-.97-.97-.97h-4.05c-.06,0-.11-.05-.11-.11v-6.47c0-.06.05-.11.11-.11h18.16c.06,0,.11.05.11.11v6.47c0,.06-.05.11-.11.11h-9.55c-.54,0-.97.44-.97.97s.44.97.97.97h7.54v.81c0,1.43.52,2.8,1.46,3.87.57.65.89,1.49.89,2.36v20.71ZM81.22,67.59l-12.85,12.87s-.05.03-.08.03-.06-.01-.08-.03l-4.56-4.57s-.04-.12,0-.16l.73-.74h0s7.46-7.47,7.46-7.47l4.65-4.66s.11-.04.15,0l4.57,4.57s.04.12,0,.16Z"></path><path class="st1" d="M42.97,21.82c-.57,0-1.04.47-1.04,1.04s.46,1.04,1.04,1.04,1.04-.46,1.04-1.04-.46-1.04-1.04-1.04Z"></path><path class="st1" d="M76.89,66.15c-.57,0-1.04.47-1.04,1.04s.46,1.04,1.04,1.04,1.04-.47,1.04-1.04-.46-1.04-1.04-1.04Z"></path><path class="st1" d="M33.01,76.07c0-.57-.46-1.04-1.04-1.04s-1.04.47-1.04,1.04.46,1.04,1.04,1.04,1.04-.47,1.04-1.04Z"></path></g><metadata></metadata></svg>