<svg xmlns="http://www.w3.org/2000/svg" xmlns:i="http://ns.adobe.com/AdobeIllustrator/10.0/" id="Layer_1" viewBox="0 0 100 100"><defs><style>      .st0 {        fill: #d80000;      }      .st1 {        fill: #fff;      }      .st2 {        fill: none;      }    </style></defs><rect class="st2" x="-31.91" y="-36.14" width="126.81" height="160.66"></rect><g><path class="st1" d="M47.29,31.03c0,.33.18.63.47.79l2.64,1.44,1.47,3.53c.19.46.72.68,1.18.49.22-.09.39-.27.49-.49l1.47-3.53,2.64-1.44c.44-.24.6-.79.36-1.23-.08-.15-.21-.28-.36-.36l-2.64-1.44-1.48-3.53c-.19-.46-.72-.68-1.18-.49-.22.09-.39.27-.49.49l-1.47,3.53-2.64,1.44c-.29.16-.47.46-.47.79h0ZM51.55,30.23c.18-.1.32-.26.4-.44l.76-1.83.76,1.83c.08.19.22.35.4.44l1.47.8-1.47.8c-.18.1-.32.26-.4.44l-.76,1.83-.76-1.83c-.08-.19-.22-.35-.4-.44l-1.47-.8,1.47-.8Z"></path><path class="st0" d="M72.58,35.55c-2.49,0-4.51,2.02-4.52,4.51,0,1.17.45,2.29,1.26,3.14-1.16.73-1.59,2.22-1,3.46l-2.01,2.01c-.62.62-1.28,1.21-1.97,1.76.07-.13.1-.27.1-.42v-12.07c1.32-1.5,1.18-3.78-.32-5.1-1.5-1.32-3.78-1.18-5.1.32-1.19,1.35-1.21,3.38-.03,4.75-5.06,4.75-12.95,4.75-18.01,0,1.3-1.51,1.13-3.79-.38-5.1-1.51-1.3-3.79-1.13-5.1.38-1.18,1.37-1.17,3.39.03,4.75v12.07c0,.15.04.29.1.42-.69-.55-1.35-1.14-1.97-1.76l-2.01-2.01c.59-1.24.16-2.73-1-3.46,1.73-1.8,1.68-4.66-.12-6.39-1.8-1.73-4.66-1.68-6.39.12-1.69,1.75-1.69,4.52,0,6.27-1.27.8-1.64,2.47-.85,3.73.33.52.81.91,1.39,1.11v23.79c-1.08.38-1.81,1.4-1.81,2.55v1.82c0,.5.4.9.9.9h7.23c.5,0,.9-.4.9-.9v-1.82c0-1.15-.73-2.17-1.81-2.55v-19.65l.73.73c2.32,2.32,5.05,4.21,8.04,5.55l-6.01,17.44c-.16.47.09.99.56,1.15.09.03.19.05.29.05h32.52c.5,0,.9-.4.9-.9,0-.1-.02-.2-.05-.29l-6.01-17.44c3-1.34,5.72-3.22,8.04-5.55l.73-.73v19.65c-1.08.38-1.81,1.4-1.81,2.55v1.82c0,.5.4.9.9.9h7.23c.5,0,.9-.4.9-.9v-1.82c0-1.15-.73-2.17-1.81-2.55v-23.79c1.41-.5,2.15-2.05,1.65-3.46-.2-.57-.59-1.06-1.11-1.39,1.73-1.79,1.68-4.65-.12-6.38-.84-.81-1.97-1.27-3.14-1.26h0ZM72.58,37.35c1.5,0,2.71,1.21,2.71,2.71s-1.21,2.71-2.71,2.71-2.71-1.21-2.71-2.71c0-1.5,1.21-2.71,2.71-2.71ZM71.68,71.68v-23.49h1.81v23.49h-1.81ZM60.84,39.05c.59.15,1.21.15,1.81,0v10.05h-1.81v-10.05ZM61.74,33.74c1,0,1.81.81,1.81,1.81s-.81,1.81-1.81,1.81-1.81-.81-1.81-1.81c0-1,.81-1.81,1.81-1.81ZM37.35,39.05c.59.15,1.21.15,1.81,0v10.05h-1.81v-10.05ZM38.26,33.74c1,0,1.81.81,1.81,1.81s-.81,1.81-1.81,1.81-1.81-.81-1.81-1.81c0-1,.81-1.81,1.81-1.81ZM36.45,50.9h3.61c.5,0,.9-.4.9-.9v-9.76c5.34,4.04,12.72,4.04,18.07,0v9.76c0,.5.4.9.9.9h3.61c.07,0,.14,0,.2-.02-1.36,1.01-2.83,1.87-4.38,2.55l-1.29-3.73c-.13-.36-.47-.61-.85-.61h-14.45c-.39,0-.73.24-.85.61l-1.29,3.73c-1.55-.69-3.02-1.54-4.38-2.55.07.02.13.02.2.02ZM57.69,54.1c-4.97,1.76-10.4,1.76-15.37,0l1.1-3.2h13.17l1.1,3.2ZM26.51,71.68v-23.49h1.81v23.49h-1.81ZM25.61,44.58h3.61c.5,0,.9.4.9.9s-.4.9-.9.9h-3.61c-.5,0-.9-.4-.9-.9s.4-.9.9-.9ZM27.42,37.35c1.5,0,2.71,1.21,2.71,2.71s-1.21,2.71-2.71,2.71-2.71-1.21-2.71-2.71c0-1.5,1.21-2.71,2.71-2.71ZM30.13,75.29h-5.42v-.91c0-.49.4-.89.89-.89h3.64c.49,0,.89.4.89.89v.91ZM35.01,75.29l5.57-16.15c6.08,2.26,12.77,2.26,18.85,0l5.57,16.15h-29.98ZM67.86,51.63c-9.87,9.87-25.86,9.87-35.73,0,0,0,0,0,0,0l-2.01-2.01v-1.59c.09-.03.18-.07.26-.11l2.01,2.01c9.72,9.72,25.48,9.72,35.2,0l2.01-2.01c.09.04.17.08.26.11v1.59l-2.01,2.01ZM75.29,75.29h-5.42v-.91c0-.49.4-.89.89-.89h3.64c.49,0,.89.4.89.89v.91ZM74.39,46.39h-3.61c-.5,0-.9-.4-.9-.9s.4-.9.9-.9h3.61c.5,0,.9.4.9.9s-.4.9-.9.9Z"></path><path class="st1" d="M42.77,24.71h1.81v1.81h-1.81v-1.81Z"></path><path class="st1" d="M46.39,24.71h1.81v1.81h-1.81v-1.81Z"></path><path class="st1" d="M44.58,22.9h1.81v1.81h-1.81v-1.81Z"></path><path class="st1" d="M44.58,26.51h1.81v1.81h-1.81v-1.81Z"></path><path class="st1" d="M44.58,34.64h1.81v1.81h-1.81v-1.81Z"></path><path class="st1" d="M64.45,24.71h1.81v1.81h-1.81v-1.81Z"></path><path class="st1" d="M34.64,25.61h1.81v1.81h-1.81v-1.81Z"></path></g><metadata></metadata></svg>