<svg xmlns="http://www.w3.org/2000/svg" xmlns:i="http://ns.adobe.com/AdobeIllustrator/10.0/" id="Layer_1" viewBox="0 0 100 100"><defs><style>      .st0 {        fill: #d80000;      }      .st1 {        fill: #fff;      }      .st2 {        fill: none;      }    </style></defs><rect class="st2" x="-31.91" y="-36.14" width="126.81" height="160.66"></rect><g><path class="st0" d="M14.03,81.86l.95,2.14,34.18-14.17,5.95.71,2.14,6.55-2.86,2.74c-1.07.95-1.43,2.5-.83,3.93l1.19,2.98,19.77-7.74-1.07-2.86c-.48-1.43-1.79-2.26-3.33-2.26h-3.93l-2.14-5.12,5.24-2.62c1.67-.83,2.38-2.74,1.79-4.41l-6.79-18.22c-.71-1.91-2.74-2.74-4.65-2.14,0,0-.12,0-.12.12l-5,2.14-.71-1.79,2.74-3.22c1.91-2.14,3.1-4.76,3.45-7.62l3.45-4.17c2.26-2.62,1.79-6.55-.83-8.81-.48-.36-.95-.71-1.43-.95-1.31-.6-2.62-.71-4.05-.36l-.36-1.07c-.6-1.91-2.74-2.86-4.53-2.14l-25.13,9.05c-1.91.71-2.86,2.74-2.14,4.53v.12l.6,1.55c-3.1,1.43-4.53,5-3.45,8.1.83,2.38,2.98,4.05,5.48,4.41l5.6.6c2.26,1.67,5,2.74,7.74,2.98l3.93.36.71,1.79c-.83.48-1.43,1.31-1.67,2.38l-.83,4.05-29.06,11.79.83,2.26,16.67-6.67,4.05,12.15-21.56,8.93ZM71.08,76.86l.24.71-15.24,6.07-.36-.71c-.12-.48,0-.95.24-1.31l4.05-3.81,5.12-1.67h4.76c.6,0,.95.24,1.19.71ZM63.58,74l-4.29,1.43-1.55-4.53c.71.12,1.31,0,1.91-.36l2.02-.95,1.91,4.41ZM60.36,43.27c.6-.24,1.31,0,1.55.6l.95,2.5-5.84,1.91.71,2.26,5.84-1.91,1.43,3.81-5.6,1.91.71,2.26,5.72-1.91,1.43,3.81-5.48,1.79.71,2.26,5.6-1.91.6,1.55c.24.6,0,1.19-.6,1.43l-9.41,4.64c-.24.12-.48.12-.71.12l-8.1-.95-4.41-13.22.83-4.41c.12-.36.36-.71.71-.83l13.34-5.72ZM60.24,19.21c1.91.83,2.86,3.1,2.02,5.12-.12.36-.36.6-.6.95l-1.43,1.79c-.12-1.19-.36-2.26-.71-3.45l-1.55-4.64c.83-.12,1.55,0,2.26.24ZM24.51,36.24c-.71-2.02.12-4.17,2.02-5.12l1.67,4.05c.6,1.43,1.43,2.86,2.38,4.05l-2.5-.24c-1.67-.12-3.1-1.19-3.57-2.74ZM41.43,42.56c-4.88-.48-9.17-3.57-10.96-8.22l-3.1-7.86c-.24-.6,0-1.31.6-1.55l25.13-9.05c.36-.12.6-.12.95,0,.24.12.48.36.6.71l2.62,7.86c1.43,4.41.48,9.17-2.5,12.62l-3.69,4.29,1.07,2.86-4.29,1.79-1.19-2.98-5.24-.48ZM33.8,59.82l2.74-1.07,2.98,9.05,2.26-.71-3.1-9.29,4.76-1.91,4.05,12.03-9.65,4.05-4.05-12.15Z"></path><path class="st1" d="M72.87,34.1v1.19h2.38v-1.19c0-3.33,2.62-5.95,5.95-5.95v-2.38c-3.33,0-5.95-2.62-5.95-5.95v-1.19h-2.38v1.19c0,3.34-2.62,5.95-5.95,5.95v2.38c3.34,0,5.95,2.62,5.95,5.95ZM74.06,24.1c.71,1.19,1.67,2.14,2.86,2.86-1.19.71-2.14,1.67-2.86,2.86-.71-1.19-1.67-2.14-2.86-2.86,1.19-.71,2.14-1.67,2.86-2.86Z"></path><path class="st1" d="M20.46,57.92v1.19h2.38v-1.19c0-3.33,2.62-5.95,5.95-5.95v-2.38c-3.33,0-5.95-2.62-5.95-5.95v-1.19h-2.38v1.19c0,3.34-2.62,5.95-5.95,5.95v2.38c3.34,0,5.95,2.62,5.95,5.95ZM21.65,47.92c.71,1.19,1.67,2.14,2.86,2.86-1.19.71-2.14,1.67-2.86,2.86-.71-1.19-1.67-2.14-2.86-2.86,1.19-.71,2.14-1.67,2.86-2.86Z"></path><path class="st1" d="M80.01,43.63v-1.19h-2.38v1.19c0,3.34-2.62,5.95-5.95,5.95v2.38c3.34,0,5.95,2.62,5.95,5.95v1.19h2.38v-1.19c0-3.33,2.62-5.95,5.95-5.95v-2.38c-3.33,0-5.95-2.62-5.95-5.95ZM78.82,53.63c-.71-1.19-1.67-2.14-2.86-2.86,1.19-.71,2.14-1.67,2.86-2.86.71,1.19,1.67,2.14,2.86,2.86-1.19.71-2.14,1.67-2.86,2.86Z"></path><path class="st1" d="M49.4,34.46l1.67,1.67c6.55-6.55.48-16.55.12-16.91l-2.02,1.31c.12,0,5.48,8.69.24,13.93Z"></path></g><metadata></metadata></svg>