<svg xmlns="http://www.w3.org/2000/svg" xmlns:i="http://ns.adobe.com/AdobeIllustrator/10.0/" id="Layer_1" viewBox="0 0 100 100"><defs><style>      .st0 {        fill: #d80000;      }      .st1 {        fill: none;      }    </style></defs><rect class="st1" x="-31.91" y="-36.14" width="126.81" height="160.66"></rect><rect class="st1" x="32" y="27.76" width="31.76" height="27.3"></rect><rect class="st1" x="-37.27" y="-26.62" width="178.28" height="133.97"></rect><path class="st0" d="M48.72,18.72v-8.45c0-.71.57-1.28,1.28-1.28s1.28.57,1.28,1.28v8.44c0,.71-.57,1.28-1.28,1.28s-1.28-.57-1.28-1.28h0ZM82.98,41.97h-8.44c-.71,0-1.28.57-1.28,1.28s.57,1.28,1.28,1.28h8.44c.71,0,1.28-.57,1.28-1.28s-.57-1.28-1.28-1.28ZM67.35,27.19c.33,0,.66-.12.91-.37l5.97-5.97c.5-.5.5-1.31,0-1.81s-1.31-.5-1.81,0l-5.97,5.97c-.5.5-.5,1.31,0,1.81.25.25.58.37.91.37ZM33.56,26.81c.5-.5.5-1.31,0-1.81l-5.97-5.97c-.5-.5-1.31-.5-1.81,0-.5.5-.5,1.31,0,1.81l5.97,5.97c.25.25.58.37.91.37s.66-.12.91-.37h0ZM25.47,41.97h-8.44c-.71,0-1.28.57-1.28,1.28s.57,1.28,1.28,1.28h8.44c.71,0,1.28-.57,1.28-1.28s-.57-1.28-1.28-1.28ZM82.04,86.08c.44.76.56,1.65.33,2.49s-.77,1.56-1.53,1.99c-.5.29-1.07.44-1.64.44-.29,0-.58-.04-.86-.11-.85-.23-1.56-.77-1.99-1.53l-6.62-11.46c-.34-.59-.43-1.28-.26-1.94.13-.48.38-.9.74-1.23l-.93-1.61c-1.72.79-3.57,1.19-5.44,1.19-1.15,0-2.3-.15-3.44-.46-1.58-.42-3.03-1.12-4.32-2.05-1.37,1.19-3.12,1.85-4.96,1.85h-2.26c-3.83,0-7-2.85-7.52-6.54-.01-.07-.02-.14-.03-.21-.03-.28-.05-.56-.05-.85v-2.92c0-2.26-.71-4.19-2.18-5.91-.43-.51-.87-1-1.3-1.48-2.79-3.13-5.43-6.08-5.43-12.51,0-9.73,7.91-17.64,17.64-17.64s17.64,7.91,17.64,17.64c0,1.86-.22,3.51-.67,5.02.09.02.18.04.27.07,3.41.91,6.26,3.1,8.02,6.15,1.77,3.06,2.23,6.62,1.32,10.03-.8,2.99-2.59,5.55-5.08,7.33l.93,1.61c.46-.14.95-.16,1.43-.03.66.18,1.22.6,1.56,1.19l6.61,11.46ZM43.44,60.03h2.14v-13.28h-1.33c-2.15,0-3.89-1.75-3.89-3.89s1.75-3.89,3.89-3.89,3.89,1.75,3.89,3.89v1.33h3.73v-1.33c0-2.15,1.75-3.89,3.89-3.89s3.89,1.75,3.89,3.89-1.75,3.89-3.89,3.89h-1.33v5.06c.82-.83,1.76-1.56,2.79-2.15,2.21-1.28,4.69-1.87,7.18-1.76.45-1.36.68-2.89.68-4.65,0-8.31-6.76-15.08-15.08-15.08s-15.08,6.76-15.08,15.08c0,5.46,2.11,7.82,4.78,10.8.44.49.89.99,1.34,1.52,1.17,1.37,1.97,2.84,2.4,4.45h0ZM43.83,63.15v2.42h7.56c-.35-.97-.58-1.96-.7-2.97h-6.87c0,.18.01.37.01.55h0ZM45.57,42.87c0-.73-.6-1.33-1.33-1.33s-1.33.6-1.33,1.33.6,1.33,1.33,1.33h1.33v-1.33ZM51.87,55.49v-8.73h-3.73v13.28h2.53c.07-.79.2-1.57.41-2.35.2-.76.47-1.49.8-2.19h0ZM55.76,44.2c.73,0,1.33-.6,1.33-1.33s-.6-1.33-1.33-1.33-1.33.6-1.33,1.33v1.33h1.33ZM51.13,71.1c1.1,0,2.15-.36,3.02-1.01-.55-.6-1.06-1.25-1.5-1.96h-8.37c.79,1.75,2.55,2.97,4.59,2.97h2.26ZM69.15,70.32c2.47-1.42,4.23-3.72,4.96-6.46.74-2.75.36-5.62-1.07-8.08-1.42-2.46-3.72-4.22-6.46-4.96-.47-.13-.94-.22-1.42-.28-.03,0-.06,0-.09,0-.42-.05-.85-.08-1.27-.08-1.85,0-3.67.48-5.31,1.43-1.84,1.07-3.29,2.62-4.22,4.49,0,0,0,.01-.01.02-.3.62-.55,1.27-.73,1.95-.26.97-.38,1.96-.36,2.94,0,0,0,.02,0,.03,0,0,0,.01,0,.02.04,1.77.52,3.51,1.43,5.09,1.42,2.47,3.72,4.23,6.46,4.96,2.75.74,5.62.36,8.08-1.06h0ZM79.82,87.36l-6.62-11.46h0s-1.25.71-1.25.71l6.62,11.47c.1.16.25.28.44.33.19.05.38.03.55-.07.17-.1.29-.25.33-.44s.02-.38-.07-.55Z"></path><metadata></metadata></svg>