<svg xmlns="http://www.w3.org/2000/svg" xmlns:i="http://ns.adobe.com/AdobeIllustrator/10.0/" id="Layer_1" viewBox="0 0 100 100"><defs><style>      .st0 {        fill: #d80000;      }      .st1 {        fill: none;      }    </style></defs><rect class="st1" x="-31.91" y="-36.14" width="126.81" height="160.66"></rect><rect class="st1" x="32" y="27.76" width="31.76" height="27.3"></rect><rect class="st1" x="-37.27" y="-26.62" width="178.28" height="133.97"></rect><g><path class="st0" d="M50.05,16.13c-6.03,0-10.93,4.89-10.93,10.92,0,4.35,2.57,8.28,6.56,10.02v8.56c0,.6.49,1.09,1.09,1.09s1.09-.49,1.09-1.09v-7.87c.36.07.73.13,1.09.17v4.43c0,.6.49,1.09,1.09,1.09s1.09-.49,1.09-1.09v-4.43c.37-.04.73-.09,1.09-.17v6.78c0,.6.49,1.09,1.09,1.09s1.09-.49,1.09-1.09v-7.47c5.53-2.41,8.06-8.85,5.64-14.38-1.74-3.98-5.67-6.56-10.02-6.56ZM50.05,35.79c-4.83,0-8.74-3.91-8.74-8.74s3.91-8.74,8.74-8.74,8.74,3.91,8.74,8.74c0,4.83-3.92,8.74-8.74,8.74Z"></path><path class="st0" d="M46.22,32.23c.33.2.75.2,1.08.01l7.65-4.23c.53-.29.72-.96.43-1.49-.1-.18-.25-.33-.43-.43l-7.65-4.23c-.53-.29-1.19-.1-1.49.43-.09.16-.14.34-.14.53v8.47c0,.39.2.74.54.94ZM47.87,24.67l4.3,2.38-4.3,2.38v-4.76Z"></path><path class="st0" d="M83.75,27.67c-.1-.27-.31-.49-.58-.61l-3.99-1.79c-.54-.24-1.18,0-1.43.53l-10.91,23.1h-33.58l-11.01-23.1c-.25-.54-.89-.77-1.43-.53l-3.99,1.79c-.55.25-.8.89-.55,1.44,0,0,0,0,0,0l9.74,21.72v32.55c0,.6.49,1.09,1.09,1.09h45.89c.6,0,1.09-.49,1.09-1.09v-32.79l9.63-21.48c.12-.26.13-.57.02-.84ZM18.72,28.61l2.02-.9,10.1,21.2h-3.02l-9.1-20.29ZM71.91,81.69H28.2v-30.6h43.71v30.6ZM72.18,48.91h-2.92l10.01-21.2,2.01.9-9.1,20.29Z"></path></g><metadata></metadata></svg>