<svg xmlns="http://www.w3.org/2000/svg" xmlns:i="http://ns.adobe.com/AdobeIllustrator/10.0/" id="Layer_1" viewBox="0 0 100 100"><defs><style>      .st0 {        fill: #d80000;        fill-rule: evenodd;      }      .st1 {        fill: none;      }    </style></defs><rect class="st1" x="-31.91" y="-36.14" width="126.81" height="160.66"></rect><rect class="st1" x="32" y="27.76" width="31.76" height="27.3"></rect><rect class="st1" x="-37.27" y="-26.62" width="178.28" height="133.97"></rect><path class="st0" d="M47.4,33.35c0-.53.43-.97.97-.97h2.42c.53,0,.97.43.97.97s-.43.97-.97.97h-2.42c-.53,0-.97-.43-.97-.97h0ZM40.39,33.69c-.12-.52.21-1.04.73-1.15.89-.2,1.72-.15,2.63-.15.53,0,.97.43.97.97s-.43.97-.97.97c-.72,0-1.53-.04-2.21.11-.51.11-1.04-.2-1.15-.73ZM38.03,42.26c.37-.39.98-.4,1.37-.03.48.47,1.08.82,1.71,1.03,1.04.34.78,1.88-.3,1.88-.1,0-.2-.02-.3-.05-.9-.3-1.75-.81-2.44-1.47-.38-.37-.4-.98-.03-1.37h0ZM48.64,46.71c-1.25,0-2.26-1.02-2.26-2.26s1.02-2.26,2.26-2.26,2.26,1.01,2.26,2.26-1.02,2.26-2.26,2.26h0ZM48.82,65.68h-6.31c-2.48,0-4.5-2.02-4.5-4.5v-.17c0-2.48,2.02-4.5,4.5-4.5h12.26c3.55,0,6.43-2.89,6.43-6.43v-.16c0-3.55-2.89-6.43-6.43-6.43h-2.05c-.44-1.85-2.1-3.23-4.08-3.23-2.31,0-4.2,1.88-4.2,4.2s1.88,4.2,4.2,4.2c1.98,0,3.65-1.38,4.08-3.23h2.05c2.48,0,4.5,2.02,4.5,4.5v.16c0,2.48-2.02,4.5-4.5,4.5h-12.26c-3.55,0-6.43,2.89-6.43,6.43v.17c0,3.55,2.89,6.43,6.43,6.43h6.31c.53,0,.97-.43.97-.97s-.43-.97-.97-.97h0ZM54.43,33.35c0-.53.43-.97.97-.97h3.98l-1.16-1.16c-.38-.38-.38-.99,0-1.37.38-.38.99-.38,1.37,0l2.89,2.91c.3.38.26.92-.08,1.27l-2.81,2.81c-.38.38-.99.38-1.37,0-.38-.38-.38-.99,0-1.37l1.16-1.16h-3.98c-.53,0-.97-.43-.97-.97ZM36.08,38.6c.03-.97.28-1.9.73-2.76.25-.47.83-.65,1.31-.41.47.25.65.83.41,1.31-.32.6-.49,1.25-.51,1.92-.02.53-.45.94-1,.93-.53-.02-.95-.47-.93-1h0ZM68.21,58.32c-1.27,1.55-3.01,2.37-5.01,2.37h-3.12l10.68-12.99c1.27-1.55,3.01-2.37,5.01-2.37h3.12l-10.68,12.99ZM67.4,73.38c.56,0,1.02-.46,1.02-1.02v-11.53c-1.46,1.18-3.24,1.8-5.22,1.8h-4.71l-3.82,4.64c-.19.23-.47.35-.75.35-.79,0-1.27-.94-.75-1.58l15.25-18.54v-19.85c0-.56-.46-1.02-1.02-1.02H30.33v46.75h37.07ZM58.73,77.51c0,.56-.46,1.02-1.02,1.02H24.21c-2.31,0-4.19-1.88-4.19-4.19,0-2.31,1.88-4.18,4.19-4.18,1.97,0,3.62,1.36,4.07,3.2l.13,1.1c.06.49.47.86.96.86h29.36v2.2h0ZM20.03,25.65c0-2.31,1.88-4.19,4.19-4.19s4.19,1.87,4.19,4.19v44.22c-2.36-2.22-6.02-2.21-8.38,0V25.65h0ZM81.82,43.95c-.16-.34-.5-.55-.87-.55h-5.17c-2.07,0-3.91.67-5.41,1.96v-17.71c0-1.63-1.33-2.95-2.96-2.95H30.26c-.46-2.92-3-5.16-6.05-5.16-3.38,0-6.12,2.75-6.12,6.12v48.69c0,3.38,2.75,6.12,6.13,6.12h33.49c1.63,0,2.96-1.33,2.96-2.95v-2.2h6.74c1.63,0,2.96-1.33,2.96-2.96v-13.6l11.33-13.78c.24-.29.29-.69.13-1.03h0Z"></path><metadata></metadata></svg>