<svg xmlns="http://www.w3.org/2000/svg" xmlns:i="http://ns.adobe.com/AdobeIllustrator/10.0/" id="Layer_1" viewBox="0 0 100 100"><defs><style>      .st0 {        fill: #d80000;      }      .st1 {        fill: none;      }    </style></defs><rect class="st1" x="-31.91" y="-36.14" width="126.81" height="160.66"></rect><rect class="st1" x="32" y="27.76" width="31.76" height="27.3"></rect><rect class="st1" x="-37.27" y="-26.62" width="178.28" height="133.97"></rect><g><path class="st0" d="M23.91,62.03c-.64,0-1.16-.52-1.16-1.16v-28.27c0-.64.52-1.16,1.16-1.16h29.09c.64,0,1.16.52,1.16,1.16s-.52,1.16-1.16,1.16h-27.93v27.1c0,.64-.52,1.16-1.16,1.16h0Z"></path><path class="st0" d="M76.09,68.56h-29.09c-.64,0-1.16-.52-1.16-1.16s.52-1.16,1.16-1.16h27.93v-27.1c0-.64.52-1.16,1.16-1.16s1.16.52,1.16,1.16v28.26c0,.64-.52,1.16-1.16,1.16Z"></path><path class="st0" d="M76.09,62.03h-37.27c-.64,0-1.16-.52-1.16-1.16s.52-1.16,1.16-1.16h37.27c.64,0,1.16.52,1.16,1.16s-.52,1.16-1.16,1.16Z"></path><path class="st0" d="M76.09,40.29H23.91c-.64,0-1.16-.52-1.16-1.16s.52-1.16,1.16-1.16h52.18c.64,0,1.16.52,1.16,1.16s-.52,1.16-1.16,1.16Z"></path><path class="st0" d="M50,62.03c-.64,0-1.16-.52-1.16-1.16v-21.74c0-.64.52-1.16,1.16-1.16s1.16.52,1.16,1.16v21.74c0,.64-.52,1.16-1.16,1.16Z"></path><path class="st0" d="M46.27,40.29c-.64,0-1.16-.52-1.16-1.16v-6.52c0-.64.52-1.16,1.16-1.16s1.16.52,1.16,1.16v6.52c0,.64-.52,1.16-1.16,1.16Z"></path><path class="st0" d="M38.82,40.29c-.64,0-1.16-.52-1.16-1.16v-6.52c0-.64.52-1.16,1.16-1.16s1.16.52,1.16,1.16v6.52c0,.64-.52,1.16-1.16,1.16Z"></path><path class="st0" d="M31.36,40.29c-.64,0-1.16-.52-1.16-1.16v-6.52c0-.64.52-1.16,1.16-1.16s1.16.52,1.16,1.16v6.52c0,.64-.52,1.16-1.16,1.16h0Z"></path><path class="st0" d="M68.64,68.56c-.64,0-1.16-.52-1.16-1.16v-6.52c0-.64.52-1.16,1.16-1.16s1.16.52,1.16,1.16v6.52c0,.64-.52,1.16-1.16,1.16Z"></path><path class="st0" d="M61.18,68.56c-.64,0-1.16-.52-1.16-1.16v-6.52c0-.64.52-1.16,1.16-1.16s1.16.52,1.16,1.16v6.52c0,.64-.52,1.16-1.16,1.16Z"></path><path class="st0" d="M53.73,68.56c-.64,0-1.16-.52-1.16-1.16v-6.52c0-.64.52-1.16,1.16-1.16s1.16.52,1.16,1.16v6.52c0,.64-.52,1.16-1.16,1.16Z"></path><path class="st0" d="M34,56.17c-1.43,0-2.59-1.17-2.59-2.6v-7.15c0-1.43,1.16-2.59,2.59-2.59.48,0,.95.13,1.35.38l5.84,3.57c1.22.75,1.6,2.34.86,3.56-.21.35-.51.64-.86.86l-5.84,3.57c-.41.25-.87.39-1.35.39h0ZM34,46.16s-.09.01-.13.04c-.09.04-.14.13-.13.23v7.15c0,.15.12.26.26.26.05,0,.1-.01.14-.04l5.84-3.57c.12-.08.16-.24.09-.36-.02-.04-.05-.06-.09-.09l-5.84-3.57s-.09-.04-.14-.04Z"></path><path class="st0" d="M60.14,56.17c-1.43,0-2.59-1.17-2.59-2.6v-7.15c0-1.43,1.16-2.59,2.59-2.59.48,0,.95.13,1.36.38l5.84,3.57c1.22.75,1.6,2.34.86,3.56-.21.35-.51.64-.86.86l-5.84,3.57c-.41.25-.88.39-1.35.39ZM60.14,46.16s-.09.01-.13.04c-.09.04-.14.13-.13.23v7.15c0,.15.12.26.26.26.05,0,.1-.01.14-.04l5.84-3.57c.12-.08.16-.24.08-.36-.02-.03-.05-.06-.08-.08l-5.84-3.57s-.09-.04-.14-.04h0Z"></path><path class="st0" d="M33.95,77.01c-.64,0-1.16-.52-1.16-1.16v-4.79c0-.64.52-1.16,1.16-1.16s1.16.52,1.16,1.16v4.79c0,.64-.52,1.16-1.16,1.16Z"></path><path class="st0" d="M26.41,70.07c-.64,0-1.16-.52-1.16-1.16v-4.8c0-.64.52-1.16,1.16-1.16s1.16.52,1.16,1.16v4.8c0,.64-.52,1.16-1.16,1.16Z"></path><path class="st0" d="M33.95,67.69c-.64,0-1.16-.52-1.16-1.16v-2.42c0-.64.52-1.16,1.16-1.16s1.16.52,1.16,1.16v2.42c0,.64-.52,1.16-1.16,1.16Z"></path><path class="st0" d="M26.41,77.01c-.64,0-1.16-.52-1.16-1.16v-2.41c0-.64.52-1.16,1.16-1.16s1.16.52,1.16,1.16v2.41c0,.64-.52,1.16-1.16,1.16Z"></path><path class="st0" d="M33.95,72.22c-1.89,0-3.43-1.53-3.43-3.43s1.53-3.43,3.43-3.43,3.43,1.53,3.43,3.43h0c0,1.89-1.53,3.42-3.43,3.43ZM33.95,67.69c-.61,0-1.1.49-1.1,1.1s.49,1.1,1.1,1.1,1.1-.49,1.1-1.1h0c0-.61-.49-1.1-1.1-1.1Z"></path><path class="st0" d="M26.41,74.6c-1.89,0-3.43-1.53-3.43-3.43s1.53-3.43,3.43-3.43,3.43,1.53,3.43,3.43h0c0,1.89-1.53,3.42-3.43,3.43h0ZM26.41,70.07c-.61,0-1.1.49-1.1,1.1s.49,1.1,1.1,1.1,1.1-.49,1.1-1.1h0c0-.61-.49-1.1-1.1-1.1h0Z"></path><path class="st0" d="M41.49,70.07c-.64,0-1.16-.52-1.16-1.16v-4.8c0-.64.52-1.16,1.16-1.16s1.16.52,1.16,1.16v4.8c0,.64-.52,1.16-1.16,1.16Z"></path><path class="st0" d="M41.49,77.01c-.64,0-1.16-.52-1.16-1.16v-2.41c0-.64.52-1.16,1.16-1.16s1.16.52,1.16,1.16v2.41c0,.64-.52,1.16-1.16,1.16Z"></path><path class="st0" d="M41.49,74.6c-1.89,0-3.43-1.53-3.43-3.43,0-1.89,1.53-3.43,3.43-3.43s3.43,1.53,3.43,3.43h0c0,1.89-1.53,3.42-3.43,3.43ZM41.49,70.07c-.61,0-1.1.49-1.1,1.1s.49,1.1,1.1,1.1,1.1-.49,1.1-1.1h0c0-.61-.49-1.1-1.1-1.1h0Z"></path><path class="st0" d="M44.4,80.26h-20.89c-2.08,0-3.76-1.69-3.76-3.76v-13.02c0-2.08,1.69-3.76,3.76-3.76h23.49c.64,0,1.16.52,1.16,1.16v15.62c0,2.08-1.69,3.76-3.76,3.76ZM23.51,62.03c-.79,0-1.43.64-1.43,1.44v13.02c0,.79.64,1.43,1.43,1.43h20.89c.79,0,1.43-.64,1.43-1.43v-14.46h-22.33Z"></path><path class="st0" d="M76.49,40.29h-23.49c-.64,0-1.16-.52-1.16-1.16v-15.62c0-2.08,1.69-3.76,3.76-3.76h20.89c2.08,0,3.76,1.69,3.76,3.76v13.02c0,2.08-1.69,3.76-3.76,3.76h0ZM54.17,37.97h22.33c.79,0,1.43-.64,1.43-1.44v-13.02c0-.79-.64-1.43-1.43-1.43h-20.89c-.79,0-1.43.64-1.43,1.43v14.46Z"></path><path class="st0" d="M70.38,37.33c-1.92,0-3.48-1.56-3.48-3.48,0-1.92,1.56-3.48,3.48-3.48,1.92,0,3.48,1.56,3.48,3.48h0c0,1.92-1.56,3.48-3.48,3.48ZM70.38,32.7c-.63,0-1.15.51-1.15,1.15,0,.63.51,1.15,1.15,1.15.63,0,1.15-.51,1.15-1.15,0-.63-.51-1.15-1.14-1.15,0,0,0,0,0,0Z"></path><path class="st0" d="M70.38,32.7c-.17,0-.34-.04-.5-.11l-10.98-5.17c-.58-.27-.83-.97-.56-1.55s.97-.83,1.55-.56l10.97,5.17c.58.27.83.97.56,1.55-.19.41-.6.67-1.05.67h0Z"></path><path class="st0" d="M70.38,29.66c-1.92,0-3.48-1.56-3.48-3.48,0-1.92,1.56-3.48,3.48-3.48,1.92,0,3.48,1.56,3.48,3.48h0c0,1.92-1.56,3.48-3.48,3.48ZM70.38,25.04c-.63,0-1.15.51-1.15,1.15,0,.63.51,1.15,1.15,1.15.63,0,1.15-.51,1.15-1.15h0c0-.63-.51-1.15-1.15-1.15h0Z"></path><path class="st0" d="M59.4,34.83c-.64,0-1.16-.52-1.16-1.17,0-.45.26-.86.67-1.05l10.98-5.17c.57-.29,1.27-.06,1.56.52.29.57.06,1.27-.52,1.56-.02,0-.04.02-.05.03l-10.97,5.17c-.15.07-.32.11-.5.11Z"></path></g><metadata></metadata></svg>