<svg xmlns="http://www.w3.org/2000/svg" xmlns:i="http://ns.adobe.com/AdobeIllustrator/10.0/" id="Layer_1" viewBox="0 0 100 100"><defs><style>      .st0 {        fill: #d80000;      }      .st1 {        fill: none;      }    </style></defs><rect class="st1" x="-31.91" y="-36.14" width="126.81" height="160.66"></rect><rect class="st1" x="32" y="27.76" width="31.76" height="27.3"></rect><rect class="st1" x="-37.27" y="-26.62" width="178.28" height="133.97"></rect><g id="layer1"><path id="use38856" class="st0" d="M14.43,46.66c0,.66-.53,1.19-1.19,1.19s-1.19-.53-1.19-1.19.53-1.19,1.19-1.19,1.19.53,1.19,1.19Z"></path><path id="use38916" class="st0" d="M17.77,46.66c0,.66-.53,1.19-1.19,1.19s-1.19-.53-1.19-1.19.53-1.19,1.19-1.19,1.19.53,1.19,1.19Z"></path><path id="use38918" class="st0" d="M17.77,50c0,.66-.53,1.19-1.19,1.19s-1.19-.53-1.19-1.19.53-1.19,1.19-1.19,1.19.53,1.19,1.19Z"></path><path id="use38970" class="st0" d="M21.11,36.63c0,.66-.53,1.19-1.19,1.19s-1.19-.53-1.19-1.19.53-1.19,1.19-1.19,1.19.53,1.19,1.19Z"></path><path id="use38972" class="st0" d="M21.11,39.97c0,.66-.53,1.19-1.19,1.19s-1.19-.53-1.19-1.19.53-1.19,1.19-1.19,1.19.53,1.19,1.19Z"></path><path id="use38974" class="st0" d="M21.11,43.32c0,.66-.53,1.19-1.19,1.19s-1.19-.53-1.19-1.19.53-1.19,1.19-1.19,1.19.53,1.19,1.19Z"></path><path id="use38976" class="st0" d="M21.11,46.66c0,.66-.53,1.19-1.19,1.19s-1.19-.53-1.19-1.19.53-1.19,1.19-1.19,1.19.53,1.19,1.19Z"></path><path id="use38978" class="st0" d="M21.11,50c0,.66-.53,1.19-1.19,1.19s-1.19-.53-1.19-1.19.53-1.19,1.19-1.19,1.19.53,1.19,1.19Z"></path><path id="use38980" class="st0" d="M21.11,53.34c0,.66-.53,1.19-1.19,1.19s-1.19-.53-1.19-1.19.53-1.19,1.19-1.19,1.19.53,1.19,1.19Z"></path><path id="use39028" class="st0" d="M24.45,33.29c0,.66-.53,1.19-1.19,1.19s-1.19-.53-1.19-1.19c0-.66.53-1.19,1.19-1.19s1.19.53,1.19,1.19Z"></path><path id="use39030" class="st0" d="M24.45,36.63c0,.66-.53,1.19-1.19,1.19s-1.19-.53-1.19-1.19.53-1.19,1.19-1.19,1.19.53,1.19,1.19Z"></path><path id="use39032" class="st0" d="M24.45,39.97c0,.66-.53,1.19-1.19,1.19s-1.19-.53-1.19-1.19.53-1.19,1.19-1.19,1.19.53,1.19,1.19Z"></path><path id="use39034" class="st0" d="M24.45,43.32c0,.66-.53,1.19-1.19,1.19s-1.19-.53-1.19-1.19.53-1.19,1.19-1.19,1.19.53,1.19,1.19Z"></path><path id="use39036" class="st0" d="M24.45,46.66c0,.66-.53,1.19-1.19,1.19s-1.19-.53-1.19-1.19.53-1.19,1.19-1.19,1.19.53,1.19,1.19Z"></path><path id="use39038" class="st0" d="M24.45,50c0,.66-.53,1.19-1.19,1.19s-1.19-.53-1.19-1.19.53-1.19,1.19-1.19,1.19.53,1.19,1.19Z"></path><path id="use39086" class="st0" d="M27.8,29.95c0,.66-.53,1.19-1.19,1.19s-1.19-.53-1.19-1.19.53-1.19,1.19-1.19,1.19.53,1.19,1.19Z"></path><path id="use39088" class="st0" d="M27.8,33.29c0,.66-.53,1.19-1.19,1.19s-1.19-.53-1.19-1.19c0-.66.53-1.19,1.19-1.19s1.19.53,1.19,1.19Z"></path><path id="use39090" class="st0" d="M27.8,36.63c0,.66-.53,1.19-1.19,1.19s-1.19-.53-1.19-1.19.53-1.19,1.19-1.19,1.19.53,1.19,1.19Z"></path><path id="use39092" class="st0" d="M27.8,39.97c0,.66-.53,1.19-1.19,1.19s-1.19-.53-1.19-1.19.53-1.19,1.19-1.19,1.19.53,1.19,1.19Z"></path><path id="use39094" class="st0" d="M27.8,43.32c0,.66-.53,1.19-1.19,1.19s-1.19-.53-1.19-1.19.53-1.19,1.19-1.19,1.19.53,1.19,1.19Z"></path><path id="use39096" class="st0" d="M27.8,46.66c0,.66-.53,1.19-1.19,1.19s-1.19-.53-1.19-1.19.53-1.19,1.19-1.19,1.19.53,1.19,1.19Z"></path><path id="use39098" class="st0" d="M27.8,50c0,.66-.53,1.19-1.19,1.19s-1.19-.53-1.19-1.19.53-1.19,1.19-1.19,1.19.53,1.19,1.19Z"></path><path id="use39100" class="st0" d="M27.8,53.34c0,.66-.53,1.19-1.19,1.19s-1.19-.53-1.19-1.19.53-1.19,1.19-1.19,1.19.53,1.19,1.19Z"></path><path id="use39102" class="st0" d="M27.8,56.68c0,.66-.53,1.19-1.19,1.19h0c-.66,0-1.19-.53-1.19-1.19h0c0-.66.53-1.19,1.19-1.19h0c.66,0,1.19.53,1.19,1.19h0Z"></path><path id="use39104" class="st0" d="M27.8,60.03c0,.66-.53,1.19-1.19,1.19s-1.19-.53-1.19-1.19.53-1.19,1.19-1.19h0c.66,0,1.19.53,1.19,1.19h0Z"></path><path id="use39106" class="st0" d="M27.8,63.37c0,.66-.53,1.19-1.19,1.19s-1.19-.53-1.19-1.19.53-1.19,1.19-1.19,1.19.53,1.19,1.19Z"></path><path id="use39108" class="st0" d="M27.8,66.71c0,.66-.53,1.19-1.19,1.19s-1.19-.53-1.19-1.19.53-1.19,1.19-1.19,1.19.53,1.19,1.19Z"></path><path id="use39110" class="st0" d="M27.8,70.05c0,.66-.53,1.19-1.19,1.19s-1.19-.53-1.19-1.19.53-1.19,1.19-1.19h0c.66,0,1.19.53,1.19,1.19h0Z"></path><path id="use39134" class="st0" d="M31.14,9.89c0,.66-.53,1.19-1.19,1.19s-1.19-.53-1.19-1.19.53-1.19,1.19-1.19,1.19.53,1.19,1.19Z"></path><path id="use39136" class="st0" d="M31.14,13.23c0,.66-.53,1.19-1.19,1.19s-1.19-.53-1.19-1.19.53-1.19,1.19-1.19,1.19.53,1.19,1.19Z"></path><path id="use39138" class="st0" d="M31.14,16.58c0,.66-.53,1.19-1.19,1.19s-1.19-.53-1.19-1.19.53-1.19,1.19-1.19,1.19.53,1.19,1.19Z"></path><path id="use39144" class="st0" d="M31.14,26.6c0,.66-.53,1.19-1.19,1.19s-1.19-.53-1.19-1.19.53-1.19,1.19-1.19,1.19.53,1.19,1.19Z"></path><path id="use39146" class="st0" d="M31.14,29.95c0,.66-.53,1.19-1.19,1.19s-1.19-.53-1.19-1.19.53-1.19,1.19-1.19,1.19.53,1.19,1.19Z"></path><path id="use39148" class="st0" d="M31.14,33.29c0,.66-.53,1.19-1.19,1.19s-1.19-.53-1.19-1.19c0-.66.53-1.19,1.19-1.19s1.19.53,1.19,1.19Z"></path><path id="use39150" class="st0" d="M31.14,36.63c0,.66-.53,1.19-1.19,1.19s-1.19-.53-1.19-1.19.53-1.19,1.19-1.19,1.19.53,1.19,1.19Z"></path><path id="use39152" class="st0" d="M31.14,39.97c0,.66-.53,1.19-1.19,1.19s-1.19-.53-1.19-1.19.53-1.19,1.19-1.19,1.19.53,1.19,1.19Z"></path><path id="use39154" class="st0" d="M31.14,43.32c0,.66-.53,1.19-1.19,1.19s-1.19-.53-1.19-1.19.53-1.19,1.19-1.19,1.19.53,1.19,1.19Z"></path><path id="use39156" class="st0" d="M31.14,46.66c0,.66-.53,1.19-1.19,1.19s-1.19-.53-1.19-1.19.53-1.19,1.19-1.19,1.19.53,1.19,1.19Z"></path><path id="use39158" class="st0" d="M31.14,50c0,.66-.53,1.19-1.19,1.19s-1.19-.53-1.19-1.19.53-1.19,1.19-1.19,1.19.53,1.19,1.19Z"></path><path id="use39160" class="st0" d="M31.14,53.34c0,.66-.53,1.19-1.19,1.19s-1.19-.53-1.19-1.19.53-1.19,1.19-1.19,1.19.53,1.19,1.19Z"></path><path id="use39162" class="st0" d="M31.14,56.68c0,.66-.53,1.19-1.19,1.19h0c-.66,0-1.19-.53-1.19-1.19h0c0-.66.53-1.19,1.19-1.19h0c.66,0,1.19.53,1.19,1.19h0Z"></path><path id="use39164" class="st0" d="M31.14,60.03c0,.66-.53,1.19-1.19,1.19s-1.19-.53-1.19-1.19.53-1.19,1.19-1.19h0c.66,0,1.19.53,1.19,1.19h0Z"></path><path id="use39166" class="st0" d="M31.14,63.37c0,.66-.53,1.19-1.19,1.19s-1.19-.53-1.19-1.19.53-1.19,1.19-1.19,1.19.53,1.19,1.19Z"></path><path id="use39168" class="st0" d="M31.14,66.71c0,.66-.53,1.19-1.19,1.19s-1.19-.53-1.19-1.19.53-1.19,1.19-1.19,1.19.53,1.19,1.19Z"></path><path id="use39170" class="st0" d="M31.14,70.05c0,.66-.53,1.19-1.19,1.19s-1.19-.53-1.19-1.19.53-1.19,1.19-1.19h0c.66,0,1.19.53,1.19,1.19h0Z"></path><path id="use39172" class="st0" d="M31.14,73.4c0,.66-.53,1.19-1.19,1.19s-1.19-.53-1.19-1.19.53-1.19,1.19-1.19,1.19.53,1.19,1.19Z"></path><path id="use39174" class="st0" d="M31.14,76.74c0,.66-.53,1.19-1.19,1.19s-1.19-.53-1.19-1.19.53-1.19,1.19-1.19,1.19.53,1.19,1.19Z"></path><path id="use39176" class="st0" d="M31.14,80.08c0,.66-.53,1.19-1.19,1.19s-1.19-.53-1.19-1.19.53-1.19,1.19-1.19,1.19.53,1.19,1.19Z"></path><path id="use39194" class="st0" d="M34.48,9.89c0,.66-.53,1.19-1.19,1.19s-1.19-.53-1.19-1.19.53-1.19,1.19-1.19,1.19.53,1.19,1.19Z"></path><path id="use39196" class="st0" d="M34.48,13.23c0,.66-.53,1.19-1.19,1.19s-1.19-.53-1.19-1.19.53-1.19,1.19-1.19,1.19.53,1.19,1.19Z"></path><path id="use39198" class="st0" d="M34.48,16.58c0,.66-.53,1.19-1.19,1.19s-1.19-.53-1.19-1.19.53-1.19,1.19-1.19,1.19.53,1.19,1.19Z"></path><path id="use39200" class="st0" d="M34.48,19.92c0,.66-.53,1.19-1.19,1.19s-1.19-.53-1.19-1.19.53-1.19,1.19-1.19,1.19.53,1.19,1.19Z"></path><path id="use39202" class="st0" d="M34.48,23.26c0,.66-.53,1.19-1.19,1.19s-1.19-.53-1.19-1.19.53-1.19,1.19-1.19,1.19.53,1.19,1.19Z"></path><path id="use39204" class="st0" d="M34.48,26.6c0,.66-.53,1.19-1.19,1.19s-1.19-.53-1.19-1.19.53-1.19,1.19-1.19,1.19.53,1.19,1.19Z"></path><path id="use39206" class="st0" d="M34.48,29.95c0,.66-.53,1.19-1.19,1.19s-1.19-.53-1.19-1.19.53-1.19,1.19-1.19,1.19.53,1.19,1.19Z"></path><path id="use39208" class="st0" d="M34.48,33.29c0,.66-.53,1.19-1.19,1.19s-1.19-.53-1.19-1.19c0-.66.53-1.19,1.19-1.19s1.19.53,1.19,1.19Z"></path><path id="use39210" class="st0" d="M34.48,36.63c0,.66-.53,1.19-1.19,1.19s-1.19-.53-1.19-1.19.53-1.19,1.19-1.19,1.19.53,1.19,1.19Z"></path><path id="use39212" class="st0" d="M34.48,39.97c0,.66-.53,1.19-1.19,1.19s-1.19-.53-1.19-1.19.53-1.19,1.19-1.19,1.19.53,1.19,1.19Z"></path><path id="use39214" class="st0" d="M34.48,43.32c0,.66-.53,1.19-1.19,1.19s-1.19-.53-1.19-1.19.53-1.19,1.19-1.19,1.19.53,1.19,1.19Z"></path><path id="use39216" class="st0" d="M34.48,46.66c0,.66-.53,1.19-1.19,1.19s-1.19-.53-1.19-1.19.53-1.19,1.19-1.19,1.19.53,1.19,1.19Z"></path><path id="use39218" class="st0" d="M34.48,50c0,.66-.53,1.19-1.19,1.19s-1.19-.53-1.19-1.19.53-1.19,1.19-1.19,1.19.53,1.19,1.19Z"></path><path id="use39220" class="st0" d="M34.48,53.34c0,.66-.53,1.19-1.19,1.19s-1.19-.53-1.19-1.19.53-1.19,1.19-1.19,1.19.53,1.19,1.19Z"></path><path id="use39222" class="st0" d="M34.48,56.68c0,.66-.53,1.19-1.19,1.19h0c-.66,0-1.19-.53-1.19-1.19h0c0-.66.53-1.19,1.19-1.19h0c.66,0,1.19.53,1.19,1.19h0Z"></path><path id="use39224" class="st0" d="M34.48,60.03c0,.66-.53,1.19-1.19,1.19s-1.19-.53-1.19-1.19.53-1.19,1.19-1.19h0c.66,0,1.19.53,1.19,1.19h0Z"></path><path id="use39226" class="st0" d="M34.48,63.37c0,.66-.53,1.19-1.19,1.19s-1.19-.53-1.19-1.19.53-1.19,1.19-1.19,1.19.53,1.19,1.19Z"></path><path id="use39228" class="st0" d="M34.48,66.71c0,.66-.53,1.19-1.19,1.19s-1.19-.53-1.19-1.19.53-1.19,1.19-1.19,1.19.53,1.19,1.19Z"></path><path id="use39230" class="st0" d="M34.48,70.05c0,.66-.53,1.19-1.19,1.19s-1.19-.53-1.19-1.19.53-1.19,1.19-1.19h0c.66,0,1.19.53,1.19,1.19h0Z"></path><path id="use39232" class="st0" d="M34.48,73.4c0,.66-.53,1.19-1.19,1.19s-1.19-.53-1.19-1.19.53-1.19,1.19-1.19,1.19.53,1.19,1.19Z"></path><path id="use39234" class="st0" d="M34.48,76.74c0,.66-.53,1.19-1.19,1.19s-1.19-.53-1.19-1.19.53-1.19,1.19-1.19,1.19.53,1.19,1.19Z"></path><path id="use39236" class="st0" d="M34.48,80.08c0,.66-.53,1.19-1.19,1.19s-1.19-.53-1.19-1.19.53-1.19,1.19-1.19,1.19.53,1.19,1.19Z"></path><path id="use39238" class="st0" d="M34.48,83.42c0,.66-.53,1.19-1.19,1.19s-1.19-.53-1.19-1.19.53-1.19,1.19-1.19,1.19.53,1.19,1.19Z"></path><path id="use39240" class="st0" d="M34.48,86.77c0,.66-.53,1.19-1.19,1.19s-1.19-.53-1.19-1.19.53-1.19,1.19-1.19,1.19.53,1.19,1.19Z"></path><path id="use39256" class="st0" d="M37.82,13.23c0,.66-.53,1.19-1.19,1.19s-1.19-.53-1.19-1.19.53-1.19,1.19-1.19,1.19.53,1.19,1.19Z"></path><path id="use39258" class="st0" d="M37.82,16.58c0,.66-.53,1.19-1.19,1.19s-1.19-.53-1.19-1.19.53-1.19,1.19-1.19,1.19.53,1.19,1.19Z"></path><path id="use39260" class="st0" d="M37.82,19.92c0,.66-.53,1.19-1.19,1.19s-1.19-.53-1.19-1.19.53-1.19,1.19-1.19,1.19.53,1.19,1.19Z"></path><path id="use39262" class="st0" d="M37.82,23.26c0,.66-.53,1.19-1.19,1.19s-1.19-.53-1.19-1.19.53-1.19,1.19-1.19,1.19.53,1.19,1.19Z"></path><path id="use39264" class="st0" d="M37.82,26.6c0,.66-.53,1.19-1.19,1.19s-1.19-.53-1.19-1.19.53-1.19,1.19-1.19,1.19.53,1.19,1.19Z"></path><path id="use39266" class="st0" d="M37.82,29.95c0,.66-.53,1.19-1.19,1.19s-1.19-.53-1.19-1.19.53-1.19,1.19-1.19,1.19.53,1.19,1.19Z"></path><path id="use39268" class="st0" d="M37.82,33.29c0,.66-.53,1.19-1.19,1.19s-1.19-.53-1.19-1.19c0-.66.53-1.19,1.19-1.19s1.19.53,1.19,1.19Z"></path><path id="use39270" class="st0" d="M37.82,36.63c0,.66-.53,1.19-1.19,1.19s-1.19-.53-1.19-1.19.53-1.19,1.19-1.19,1.19.53,1.19,1.19Z"></path><path id="use39272" class="st0" d="M37.82,39.97c0,.66-.53,1.19-1.19,1.19s-1.19-.53-1.19-1.19.53-1.19,1.19-1.19,1.19.53,1.19,1.19Z"></path><path id="use39274" class="st0" d="M37.82,43.32c0,.66-.53,1.19-1.19,1.19s-1.19-.53-1.19-1.19.53-1.19,1.19-1.19,1.19.53,1.19,1.19Z"></path><path id="use39276" class="st0" d="M37.82,46.66c0,.66-.53,1.19-1.19,1.19s-1.19-.53-1.19-1.19.53-1.19,1.19-1.19,1.19.53,1.19,1.19Z"></path><path id="use39278" class="st0" d="M37.82,50c0,.66-.53,1.19-1.19,1.19s-1.19-.53-1.19-1.19.53-1.19,1.19-1.19,1.19.53,1.19,1.19Z"></path><path id="use39280" class="st0" d="M37.82,53.34c0,.66-.53,1.19-1.19,1.19s-1.19-.53-1.19-1.19.53-1.19,1.19-1.19,1.19.53,1.19,1.19Z"></path><path id="use39282" class="st0" d="M37.82,56.68c0,.66-.53,1.19-1.19,1.19h0c-.66,0-1.19-.53-1.19-1.19h0c0-.66.53-1.19,1.19-1.19h0c.66,0,1.19.53,1.19,1.19h0Z"></path><path id="use39284" class="st0" d="M37.82,60.03c0,.66-.53,1.19-1.19,1.19s-1.19-.53-1.19-1.19.53-1.19,1.19-1.19h0c.66,0,1.19.53,1.19,1.19h0Z"></path><path id="use39286" class="st0" d="M37.82,63.37c0,.66-.53,1.19-1.19,1.19s-1.19-.53-1.19-1.19.53-1.19,1.19-1.19,1.19.53,1.19,1.19Z"></path><path id="use39288" class="st0" d="M37.82,66.71c0,.66-.53,1.19-1.19,1.19s-1.19-.53-1.19-1.19.53-1.19,1.19-1.19,1.19.53,1.19,1.19Z"></path><path id="use39290" class="st0" d="M37.82,70.05c0,.66-.53,1.19-1.19,1.19s-1.19-.53-1.19-1.19.53-1.19,1.19-1.19h0c.66,0,1.19.53,1.19,1.19h0Z"></path><path id="use39292" class="st0" d="M37.82,73.4c0,.66-.53,1.19-1.19,1.19s-1.19-.53-1.19-1.19.53-1.19,1.19-1.19,1.19.53,1.19,1.19Z"></path><path id="use39294" class="st0" d="M37.82,76.74c0,.66-.53,1.19-1.19,1.19s-1.19-.53-1.19-1.19.53-1.19,1.19-1.19,1.19.53,1.19,1.19Z"></path><path id="use39296" class="st0" d="M37.82,80.08c0,.66-.53,1.19-1.19,1.19s-1.19-.53-1.19-1.19.53-1.19,1.19-1.19,1.19.53,1.19,1.19Z"></path><path id="use39298" class="st0" d="M37.82,83.42c0,.66-.53,1.19-1.19,1.19s-1.19-.53-1.19-1.19.53-1.19,1.19-1.19,1.19.53,1.19,1.19Z"></path><path id="use39300" class="st0" d="M37.82,86.77c0,.66-.53,1.19-1.19,1.19s-1.19-.53-1.19-1.19.53-1.19,1.19-1.19,1.19.53,1.19,1.19Z"></path><path id="use39302" class="st0" d="M37.82,90.11c0,.66-.53,1.19-1.19,1.19s-1.19-.53-1.19-1.19.53-1.19,1.19-1.19,1.19.53,1.19,1.19Z"></path><path id="use39316" class="st0" d="M41.17,13.23c0,.66-.53,1.19-1.19,1.19s-1.19-.53-1.19-1.19.53-1.19,1.19-1.19,1.19.53,1.19,1.19Z"></path><path id="use39318" class="st0" d="M41.17,16.58c0,.66-.53,1.19-1.19,1.19s-1.19-.53-1.19-1.19.53-1.19,1.19-1.19,1.19.53,1.19,1.19Z"></path><path id="use39320" class="st0" d="M41.17,19.92c0,.66-.53,1.19-1.19,1.19s-1.19-.53-1.19-1.19.53-1.19,1.19-1.19,1.19.53,1.19,1.19Z"></path><path id="use39324" class="st0" d="M41.17,26.6c0,.66-.53,1.19-1.19,1.19s-1.19-.53-1.19-1.19.53-1.19,1.19-1.19,1.19.53,1.19,1.19Z"></path><path id="use39326" class="st0" d="M41.17,29.95c0,.66-.53,1.19-1.19,1.19s-1.19-.53-1.19-1.19.53-1.19,1.19-1.19,1.19.53,1.19,1.19Z"></path><path id="use39328" class="st0" d="M41.17,33.29c0,.66-.53,1.19-1.19,1.19s-1.19-.53-1.19-1.19c0-.66.53-1.19,1.19-1.19s1.19.53,1.19,1.19Z"></path><path id="use39330" class="st0" d="M41.17,36.63c0,.66-.53,1.19-1.19,1.19s-1.19-.53-1.19-1.19.53-1.19,1.19-1.19,1.19.53,1.19,1.19Z"></path><path id="use39332" class="st0" d="M41.17,39.97c0,.66-.53,1.19-1.19,1.19s-1.19-.53-1.19-1.19.53-1.19,1.19-1.19,1.19.53,1.19,1.19Z"></path><path id="use39334" class="st0" d="M41.17,43.32c0,.66-.53,1.19-1.19,1.19s-1.19-.53-1.19-1.19.53-1.19,1.19-1.19,1.19.53,1.19,1.19Z"></path><path id="use39336" class="st0" d="M41.17,46.66c0,.66-.53,1.19-1.19,1.19s-1.19-.53-1.19-1.19.53-1.19,1.19-1.19,1.19.53,1.19,1.19Z"></path><path id="use39338" class="st0" d="M41.17,50c0,.66-.53,1.19-1.19,1.19s-1.19-.53-1.19-1.19.53-1.19,1.19-1.19,1.19.53,1.19,1.19Z"></path><path id="use39340" class="st0" d="M41.17,53.34c0,.66-.53,1.19-1.19,1.19s-1.19-.53-1.19-1.19.53-1.19,1.19-1.19,1.19.53,1.19,1.19Z"></path><path id="use39342" class="st0" d="M41.17,56.68c0,.66-.53,1.19-1.19,1.19h0c-.66,0-1.19-.53-1.19-1.19h0c0-.66.53-1.19,1.19-1.19h0c.66,0,1.19.53,1.19,1.19h0Z"></path><path id="use39344" class="st0" d="M41.17,60.03c0,.66-.53,1.19-1.19,1.19s-1.19-.53-1.19-1.19.53-1.19,1.19-1.19h0c.66,0,1.19.53,1.19,1.19h0Z"></path><path id="use39346" class="st0" d="M41.17,63.37c0,.66-.53,1.19-1.19,1.19s-1.19-.53-1.19-1.19.53-1.19,1.19-1.19,1.19.53,1.19,1.19Z"></path><path id="use39348" class="st0" d="M41.17,66.71c0,.66-.53,1.19-1.19,1.19s-1.19-.53-1.19-1.19.53-1.19,1.19-1.19,1.19.53,1.19,1.19Z"></path><path id="use39350" class="st0" d="M41.17,70.05c0,.66-.53,1.19-1.19,1.19s-1.19-.53-1.19-1.19.53-1.19,1.19-1.19h0c.66,0,1.19.53,1.19,1.19h0Z"></path><path id="use39352" class="st0" d="M41.17,73.4c0,.66-.53,1.19-1.19,1.19s-1.19-.53-1.19-1.19.53-1.19,1.19-1.19,1.19.53,1.19,1.19Z"></path><path id="use39354" class="st0" d="M41.17,76.74c0,.66-.53,1.19-1.19,1.19s-1.19-.53-1.19-1.19.53-1.19,1.19-1.19,1.19.53,1.19,1.19Z"></path><path id="use39356" class="st0" d="M41.17,80.08c0,.66-.53,1.19-1.19,1.19s-1.19-.53-1.19-1.19.53-1.19,1.19-1.19,1.19.53,1.19,1.19Z"></path><path id="use39358" class="st0" d="M41.17,83.42c0,.66-.53,1.19-1.19,1.19s-1.19-.53-1.19-1.19.53-1.19,1.19-1.19,1.19.53,1.19,1.19Z"></path><path id="use39360" class="st0" d="M41.17,86.77c0,.66-.53,1.19-1.19,1.19s-1.19-.53-1.19-1.19.53-1.19,1.19-1.19,1.19.53,1.19,1.19Z"></path><path id="use39376" class="st0" d="M44.51,13.23c0,.66-.53,1.19-1.19,1.19s-1.19-.53-1.19-1.19.53-1.19,1.19-1.19,1.19.53,1.19,1.19Z"></path><path id="use39384" class="st0" d="M44.51,26.6c0,.66-.53,1.19-1.19,1.19s-1.19-.53-1.19-1.19.53-1.19,1.19-1.19,1.19.53,1.19,1.19Z"></path><path id="use39386" class="st0" d="M44.51,29.95c0,.66-.53,1.19-1.19,1.19s-1.19-.53-1.19-1.19.53-1.19,1.19-1.19,1.19.53,1.19,1.19Z"></path><path id="use39388" class="st0" d="M44.51,33.29c0,.66-.53,1.19-1.19,1.19s-1.19-.53-1.19-1.19c0-.66.53-1.19,1.19-1.19s1.19.53,1.19,1.19Z"></path><path id="use39390" class="st0" d="M44.51,36.63c0,.66-.53,1.19-1.19,1.19s-1.19-.53-1.19-1.19.53-1.19,1.19-1.19,1.19.53,1.19,1.19Z"></path><path id="use39392" class="st0" d="M44.51,39.97c0,.66-.53,1.19-1.19,1.19s-1.19-.53-1.19-1.19.53-1.19,1.19-1.19,1.19.53,1.19,1.19Z"></path><path id="use39394" class="st0" d="M44.51,43.32c0,.66-.53,1.19-1.19,1.19s-1.19-.53-1.19-1.19.53-1.19,1.19-1.19,1.19.53,1.19,1.19Z"></path><path id="use39396" class="st0" d="M44.51,46.66c0,.66-.53,1.19-1.19,1.19s-1.19-.53-1.19-1.19.53-1.19,1.19-1.19,1.19.53,1.19,1.19Z"></path><path id="use39398" class="st0" d="M44.51,50c0,.66-.53,1.19-1.19,1.19s-1.19-.53-1.19-1.19.53-1.19,1.19-1.19,1.19.53,1.19,1.19Z"></path><path id="use39400" class="st0" d="M44.51,53.34c0,.66-.53,1.19-1.19,1.19s-1.19-.53-1.19-1.19.53-1.19,1.19-1.19,1.19.53,1.19,1.19Z"></path><path id="use39402" class="st0" d="M44.51,56.68c0,.66-.53,1.19-1.19,1.19h0c-.66,0-1.19-.53-1.19-1.19h0c0-.66.53-1.19,1.19-1.19h0c.66,0,1.19.53,1.19,1.19h0Z"></path><path id="use39404" class="st0" d="M44.51,60.03c0,.66-.53,1.19-1.19,1.19s-1.19-.53-1.19-1.19.53-1.19,1.19-1.19h0c.66,0,1.19.53,1.19,1.19h0Z"></path><path id="use39406" class="st0" d="M44.51,63.37c0,.66-.53,1.19-1.19,1.19s-1.19-.53-1.19-1.19.53-1.19,1.19-1.19,1.19.53,1.19,1.19Z"></path><path id="use39408" class="st0" d="M44.51,66.71c0,.66-.53,1.19-1.19,1.19s-1.19-.53-1.19-1.19.53-1.19,1.19-1.19,1.19.53,1.19,1.19Z"></path><path id="use39410" class="st0" d="M44.51,70.05c0,.66-.53,1.19-1.19,1.19s-1.19-.53-1.19-1.19.53-1.19,1.19-1.19h0c.66,0,1.19.53,1.19,1.19h0Z"></path><path id="use39412" class="st0" d="M44.51,73.4c0,.66-.53,1.19-1.19,1.19s-1.19-.53-1.19-1.19.53-1.19,1.19-1.19,1.19.53,1.19,1.19Z"></path><path id="use39414" class="st0" d="M44.51,76.74c0,.66-.53,1.19-1.19,1.19s-1.19-.53-1.19-1.19.53-1.19,1.19-1.19,1.19.53,1.19,1.19Z"></path><path id="use39450" class="st0" d="M47.85,36.63c0,.66-.53,1.19-1.19,1.19s-1.19-.53-1.19-1.19.53-1.19,1.19-1.19,1.19.53,1.19,1.19Z"></path><path id="use39452" class="st0" d="M47.85,39.97c0,.66-.53,1.19-1.19,1.19s-1.19-.53-1.19-1.19.53-1.19,1.19-1.19,1.19.53,1.19,1.19Z"></path><path id="use39454" class="st0" d="M47.85,43.32c0,.66-.53,1.19-1.19,1.19s-1.19-.53-1.19-1.19.53-1.19,1.19-1.19,1.19.53,1.19,1.19Z"></path><path id="use39456" class="st0" d="M47.85,46.66c0,.66-.53,1.19-1.19,1.19s-1.19-.53-1.19-1.19.53-1.19,1.19-1.19,1.19.53,1.19,1.19Z"></path><path id="use39458" class="st0" d="M47.85,50c0,.66-.53,1.19-1.19,1.19s-1.19-.53-1.19-1.19.53-1.19,1.19-1.19,1.19.53,1.19,1.19Z"></path><path id="use39460" class="st0" d="M47.85,53.34c0,.66-.53,1.19-1.19,1.19s-1.19-.53-1.19-1.19.53-1.19,1.19-1.19,1.19.53,1.19,1.19Z"></path><path id="use39462" class="st0" d="M47.85,56.68c0,.66-.53,1.19-1.19,1.19h0c-.66,0-1.19-.53-1.19-1.19h0c0-.66.53-1.19,1.19-1.19h0c.66,0,1.19.53,1.19,1.19h0Z"></path><path id="use39464" class="st0" d="M47.85,60.03c0,.66-.53,1.19-1.19,1.19s-1.19-.53-1.19-1.19.53-1.19,1.19-1.19h0c.66,0,1.19.53,1.19,1.19h0Z"></path><path id="use39466" class="st0" d="M47.85,63.37c0,.66-.53,1.19-1.19,1.19s-1.19-.53-1.19-1.19.53-1.19,1.19-1.19,1.19.53,1.19,1.19Z"></path><path id="use39468" class="st0" d="M47.85,66.71c0,.66-.53,1.19-1.19,1.19s-1.19-.53-1.19-1.19.53-1.19,1.19-1.19,1.19.53,1.19,1.19Z"></path><path id="use39510" class="st0" d="M51.19,36.63c0,.66-.53,1.19-1.19,1.19s-1.19-.53-1.19-1.19.53-1.19,1.19-1.19,1.19.53,1.19,1.19Z"></path><path id="use39512" class="st0" d="M51.19,39.97c0,.66-.53,1.19-1.19,1.19s-1.19-.53-1.19-1.19.53-1.19,1.19-1.19,1.19.53,1.19,1.19Z"></path><path id="use39514" class="st0" d="M51.19,43.32c0,.66-.53,1.19-1.19,1.19s-1.19-.53-1.19-1.19.53-1.19,1.19-1.19,1.19.53,1.19,1.19Z"></path><path id="use39516" class="st0" d="M51.19,46.66c0,.66-.53,1.19-1.19,1.19s-1.19-.53-1.19-1.19.53-1.19,1.19-1.19,1.19.53,1.19,1.19Z"></path><path id="use39518" class="st0" d="M51.19,50c0,.66-.53,1.19-1.19,1.19s-1.19-.53-1.19-1.19.53-1.19,1.19-1.19,1.19.53,1.19,1.19Z"></path><path id="use39520" class="st0" d="M51.19,53.34c0,.66-.53,1.19-1.19,1.19s-1.19-.53-1.19-1.19.53-1.19,1.19-1.19,1.19.53,1.19,1.19Z"></path><path id="use39522" class="st0" d="M51.19,56.68c0,.66-.53,1.19-1.19,1.19h0c-.66,0-1.19-.53-1.19-1.19h0c0-.66.53-1.19,1.19-1.19h0c.66,0,1.19.53,1.19,1.19h0Z"></path><path id="use39524" class="st0" d="M51.19,60.03c0,.66-.53,1.19-1.19,1.19s-1.19-.53-1.19-1.19.53-1.19,1.19-1.19h0c.66,0,1.19.53,1.19,1.19h0Z"></path><path id="use39526" class="st0" d="M51.19,63.37c0,.66-.53,1.19-1.19,1.19s-1.19-.53-1.19-1.19.53-1.19,1.19-1.19,1.19.53,1.19,1.19Z"></path><path id="use39570" class="st0" d="M54.54,36.63c0,.66-.53,1.19-1.19,1.19s-1.19-.53-1.19-1.19.53-1.19,1.19-1.19,1.19.53,1.19,1.19Z"></path><path id="use39572" class="st0" d="M54.54,39.97c0,.66-.53,1.19-1.19,1.19s-1.19-.53-1.19-1.19.53-1.19,1.19-1.19,1.19.53,1.19,1.19Z"></path><path id="use39574" class="st0" d="M54.54,43.32c0,.66-.53,1.19-1.19,1.19s-1.19-.53-1.19-1.19.53-1.19,1.19-1.19,1.19.53,1.19,1.19Z"></path><path id="use39576" class="st0" d="M54.54,46.66c0,.66-.53,1.19-1.19,1.19s-1.19-.53-1.19-1.19.53-1.19,1.19-1.19,1.19.53,1.19,1.19Z"></path><path id="use39578" class="st0" d="M54.54,50c0,.66-.53,1.19-1.19,1.19s-1.19-.53-1.19-1.19.53-1.19,1.19-1.19,1.19.53,1.19,1.19Z"></path><path id="use39580" class="st0" d="M54.54,53.34c0,.66-.53,1.19-1.19,1.19s-1.19-.53-1.19-1.19.53-1.19,1.19-1.19,1.19.53,1.19,1.19Z"></path><path id="use39582" class="st0" d="M54.54,56.68c0,.66-.53,1.19-1.19,1.19h0c-.66,0-1.19-.53-1.19-1.19h0c0-.66.53-1.19,1.19-1.19h0c.66,0,1.19.53,1.19,1.19h0Z"></path><path id="use39584" class="st0" d="M54.54,60.03c0,.66-.53,1.19-1.19,1.19s-1.19-.53-1.19-1.19.53-1.19,1.19-1.19h0c.66,0,1.19.53,1.19,1.19h0Z"></path><path id="use39632" class="st0" d="M57.88,39.97c0,.66-.53,1.19-1.19,1.19s-1.19-.53-1.19-1.19.53-1.19,1.19-1.19,1.19.53,1.19,1.19Z"></path><path id="use39634" class="st0" d="M57.88,43.32c0,.66-.53,1.19-1.19,1.19s-1.19-.53-1.19-1.19.53-1.19,1.19-1.19,1.19.53,1.19,1.19Z"></path><path id="use39636" class="st0" d="M57.88,46.66c0,.66-.53,1.19-1.19,1.19s-1.19-.53-1.19-1.19.53-1.19,1.19-1.19,1.19.53,1.19,1.19Z"></path><path id="use39638" class="st0" d="M57.88,50c0,.66-.53,1.19-1.19,1.19s-1.19-.53-1.19-1.19.53-1.19,1.19-1.19,1.19.53,1.19,1.19Z"></path><path id="use39640" class="st0" d="M57.88,53.34c0,.66-.53,1.19-1.19,1.19s-1.19-.53-1.19-1.19.53-1.19,1.19-1.19,1.19.53,1.19,1.19Z"></path><path id="use39642" class="st0" d="M57.88,56.68c0,.66-.53,1.19-1.19,1.19h0c-.66,0-1.19-.53-1.19-1.19h0c0-.66.53-1.19,1.19-1.19h0c.66,0,1.19.53,1.19,1.19h0Z"></path><path id="use39692" class="st0" d="M61.22,39.97c0,.66-.53,1.19-1.19,1.19s-1.19-.53-1.19-1.19.53-1.19,1.19-1.19,1.19.53,1.19,1.19Z"></path><path id="use39694" class="st0" d="M61.22,43.32c0,.66-.53,1.19-1.19,1.19s-1.19-.53-1.19-1.19.53-1.19,1.19-1.19,1.19.53,1.19,1.19Z"></path><path id="use39696" class="st0" d="M61.22,46.66c0,.66-.53,1.19-1.19,1.19s-1.19-.53-1.19-1.19.53-1.19,1.19-1.19,1.19.53,1.19,1.19Z"></path><path id="use39698" class="st0" d="M61.22,50c0,.66-.53,1.19-1.19,1.19s-1.19-.53-1.19-1.19.53-1.19,1.19-1.19,1.19.53,1.19,1.19Z"></path><path id="use39700" class="st0" d="M61.22,53.34c0,.66-.53,1.19-1.19,1.19s-1.19-.53-1.19-1.19.53-1.19,1.19-1.19,1.19.53,1.19,1.19Z"></path><path id="use39702" class="st0" d="M61.22,56.68c0,.66-.53,1.19-1.19,1.19h0c-.66,0-1.19-.53-1.19-1.19h0c0-.66.53-1.19,1.19-1.19h0c.66,0,1.19.53,1.19,1.19h0Z"></path><path id="use39752" class="st0" d="M64.56,39.97c0,.66-.53,1.19-1.19,1.19s-1.19-.53-1.19-1.19.53-1.19,1.19-1.19,1.19.53,1.19,1.19Z"></path><path id="use39754" class="st0" d="M64.56,43.32c0,.66-.53,1.19-1.19,1.19s-1.19-.53-1.19-1.19.53-1.19,1.19-1.19,1.19.53,1.19,1.19Z"></path><path id="use39756" class="st0" d="M64.56,46.66c0,.66-.53,1.19-1.19,1.19s-1.19-.53-1.19-1.19.53-1.19,1.19-1.19,1.19.53,1.19,1.19Z"></path><path id="use39758" class="st0" d="M64.56,50c0,.66-.53,1.19-1.19,1.19s-1.19-.53-1.19-1.19.53-1.19,1.19-1.19,1.19.53,1.19,1.19Z"></path><path id="use39810" class="st0" d="M67.91,36.63c0,.66-.53,1.19-1.19,1.19s-1.19-.53-1.19-1.19.53-1.19,1.19-1.19,1.19.53,1.19,1.19Z"></path><path id="use39816" class="st0" d="M67.91,46.66c0,.66-.53,1.19-1.19,1.19s-1.19-.53-1.19-1.19.53-1.19,1.19-1.19,1.19.53,1.19,1.19Z"></path><path id="use39818" class="st0" d="M67.91,50c0,.66-.53,1.19-1.19,1.19s-1.19-.53-1.19-1.19.53-1.19,1.19-1.19,1.19.53,1.19,1.19Z"></path><path id="use39870" class="st0" d="M71.25,36.63c0,.66-.53,1.19-1.19,1.19s-1.19-.53-1.19-1.19.53-1.19,1.19-1.19,1.19.53,1.19,1.19Z"></path><path id="use39872" class="st0" d="M71.25,39.97c0,.66-.53,1.19-1.19,1.19s-1.19-.53-1.19-1.19.53-1.19,1.19-1.19,1.19.53,1.19,1.19Z"></path><path id="use39930" class="st0" d="M74.59,36.63c0,.66-.53,1.19-1.19,1.19s-1.19-.53-1.19-1.19.53-1.19,1.19-1.19,1.19.53,1.19,1.19Z"></path><path id="use39932" class="st0" d="M74.59,39.97c0,.66-.53,1.19-1.19,1.19s-1.19-.53-1.19-1.19.53-1.19,1.19-1.19,1.19.53,1.19,1.19Z"></path><path id="use39988" class="st0" d="M77.93,33.29c0,.66-.53,1.19-1.19,1.19s-1.19-.53-1.19-1.19c0-.66.53-1.19,1.19-1.19s1.19.53,1.19,1.19Z"></path><path id="use39990" class="st0" d="M77.93,36.63c0,.66-.53,1.19-1.19,1.19s-1.19-.53-1.19-1.19.53-1.19,1.19-1.19,1.19.53,1.19,1.19Z"></path><path id="use39992" class="st0" d="M77.93,39.97c0,.66-.53,1.19-1.19,1.19s-1.19-.53-1.19-1.19.53-1.19,1.19-1.19,1.19.53,1.19,1.19Z"></path><path id="use39994" class="st0" d="M77.93,43.32c0,.66-.53,1.19-1.19,1.19s-1.19-.53-1.19-1.19.53-1.19,1.19-1.19,1.19.53,1.19,1.19Z"></path><path id="use39996" class="st0" d="M77.93,46.66c0,.66-.53,1.19-1.19,1.19s-1.19-.53-1.19-1.19.53-1.19,1.19-1.19,1.19.53,1.19,1.19Z"></path><path id="use40046" class="st0" d="M81.28,29.95c0,.66-.53,1.19-1.19,1.19s-1.19-.53-1.19-1.19.53-1.19,1.19-1.19,1.19.53,1.19,1.19Z"></path><path id="use40048" class="st0" d="M81.28,33.29c0,.66-.53,1.19-1.19,1.19s-1.19-.53-1.19-1.19c0-.66.53-1.19,1.19-1.19s1.19.53,1.19,1.19Z"></path><path id="use40050" class="st0" d="M81.28,36.63c0,.66-.53,1.19-1.19,1.19s-1.19-.53-1.19-1.19.53-1.19,1.19-1.19,1.19.53,1.19,1.19Z"></path><path id="use40052" class="st0" d="M81.28,39.97c0,.66-.53,1.19-1.19,1.19s-1.19-.53-1.19-1.19.53-1.19,1.19-1.19,1.19.53,1.19,1.19Z"></path><path id="use40054" class="st0" d="M81.28,43.32c0,.66-.53,1.19-1.19,1.19s-1.19-.53-1.19-1.19.53-1.19,1.19-1.19,1.19.53,1.19,1.19Z"></path><path id="use40106" class="st0" d="M84.62,29.95c0,.66-.53,1.19-1.19,1.19s-1.19-.53-1.19-1.19.53-1.19,1.19-1.19,1.19.53,1.19,1.19Z"></path><path id="use40108" class="st0" d="M84.62,33.29c0,.66-.53,1.19-1.19,1.19s-1.19-.53-1.19-1.19c0-.66.53-1.19,1.19-1.19s1.19.53,1.19,1.19Z"></path><path id="use40168" class="st0" d="M87.96,33.29c0,.66-.53,1.19-1.19,1.19s-1.19-.53-1.19-1.19c0-.66.53-1.19,1.19-1.19s1.19.53,1.19,1.19Z"></path></g><metadata></metadata></svg>