<svg xmlns="http://www.w3.org/2000/svg" xmlns:i="http://ns.adobe.com/AdobeIllustrator/10.0/" id="Layer_1" viewBox="0 0 100 100"><defs><style>      .st0 {        fill: #d80000;      }    </style></defs><path class="st0" d="M45.26,72.52c-1.79,0-3.24-1.45-3.24-3.24s1.45-3.24,3.24-3.24,3.24,1.45,3.24,3.24-1.45,3.24-3.24,3.24ZM45.26,68.78c-.28,0-.51.23-.51.51,0,.56,1.02.56,1.02,0,0-.28-.23-.51-.51-.51ZM57.43,72.52c-1.79,0-3.24-1.45-3.24-3.24s1.45-3.24,3.24-3.24,3.24,1.45,3.24,3.24-1.45,3.24-3.24,3.24ZM57.43,68.78c-.28,0-.51.23-.51.51,0,.56,1.02.56,1.02,0,0-.28-.23-.51-.51-.51ZM67.62,41.46c-.6-.79-1.52-1.24-2.51-1.24h-30.95l-.81-3.02c-.41-1.53-1.8-2.6-3.38-2.6h-2.03c-.75,0-1.36.61-1.36,1.36s.61,1.36,1.36,1.36h2.03c.35,0,.66.24.75.58l6.51,24.33c.48,1.78,2.1,3.03,3.94,3.03h21.84c.75,0,1.36-.61,1.36-1.36s-.61-1.36-1.36-1.36h-21.84c-.61,0-1.15-.42-1.31-1.01l-.5-1.86h20.5c2.47,0,4.63-1.67,5.27-4.05l3.04-11.42c.26-.96.05-1.96-.55-2.75h0ZM65.46,43.12c.05.07.13.2.08.39l-1.35,5.08h-4.78l.76-5.64h4.95c.19,0,.3.11.35.17h0ZM56.65,48.58h-5.01v-5.64h5.77l-.76,5.64ZM48.92,42.94v5.64h-5l-.76-5.64h5.77ZM40.4,42.94l.76,5.64h-4.78l-1.51-5.64h5.52ZM41.54,51.31l.76,5.64h-3.67l-1.51-5.64h4.41ZM44.29,51.31h4.63v5.64h-3.87l-.76-5.64ZM51.64,56.95v-5.64h4.64l-.76,5.64h-3.88ZM59.86,56.95h-1.59l.76-5.64h4.43l-.96,3.61c-.32,1.19-1.4,2.03-2.64,2.03ZM30.84,19.76c0-.71-.57-1.28-1.28-1.28h-14.01c-.71,0-1.28.57-1.28,1.28s.57,1.28,1.28,1.28h14.01c.71,0,1.28-.57,1.28-1.28ZM69.33,19.76c0,.75-.61,1.36-1.36,1.36s-1.36-.61-1.36-1.36.61-1.36,1.36-1.36c.75,0,1.36.61,1.36,1.36ZM73.59,18.4c-.75,0-1.36.61-1.36,1.36s.61,1.36,1.36,1.36,1.36-.61,1.36-1.36-.61-1.36-1.36-1.36ZM79.21,18.4c-.75,0-1.36.61-1.36,1.36s.61,1.36,1.36,1.36,1.36-.61,1.36-1.36-.61-1.36-1.36-1.36ZM91.23,77.93l-4.18-3.52c0-.08.02-.17.02-.25V20.93c0-4.09-3.34-7.43-7.43-7.43H15.2c-4.09,0-7.43,3.34-7.43,7.43v53.22c0,4.09,3.34,7.43,7.43,7.43h57.19v5.1c0,1.1.62,2.07,1.61,2.54.99.46,2.13.32,2.98-.38l2.55-2.12,1.42,3.05c.44.95,1.23,1.68,2.21,2.04.44.16.9.24,1.35.24.56,0,1.13-.12,1.65-.37.95-.44,1.67-1.23,2.03-2.21.36-.99.31-2.05-.13-3l-1.42-3.05,3.26-.58c1.08-.19,1.93-.97,2.21-2.04.28-1.06-.06-2.16-.9-2.86h0ZM10.49,20.93c0-2.59,2.11-4.7,4.71-4.7h64.44c2.6,0,4.71,2.11,4.71,4.7v2.35H10.49v-2.35ZM72.39,68.06v10.79s-57.18,0-57.18,0c-2.6,0-4.71-2.11-4.71-4.7V26.01h73.86v46.11l-7.36-6.21c-.84-.71-1.99-.86-2.98-.4-1,.46-1.62,1.43-1.62,2.54h0ZM89.44,80.14l-5,.89c-.42.07-.77.34-.97.71-.2.38-.2.82-.03,1.2l2.17,4.66c.14.29.15.61.04.92-.11.3-.33.54-.62.68-.29.13-.62.15-.92.04-.3-.11-.54-.33-.68-.62l-2.17-4.66c-.18-.38-.52-.66-.94-.76-.1-.02-.2-.03-.3-.03-.31,0-.62.11-.87.31l-4.04,3.19.11-18.69,14.24,12.01-.04.14Z"></path><metadata></metadata></svg>