<svg xmlns="http://www.w3.org/2000/svg" xmlns:i="http://ns.adobe.com/AdobeIllustrator/10.0/" id="Layer_1" viewBox="0 0 100 100"><defs><style>      .st0 {        fill: #d80000;      }    </style></defs><path class="st0" d="M86.82,39.87v-2.73c0-1.14-.46-2.23-1.28-3.03-.83-.79-1.94-1.2-3.08-1.16-5.03.14-10.04.65-15,1.53l-1.8.35c-.87-8.66-8.61-14.97-17.27-14.1-7.19.73-12.97,6.25-14.01,13.4v.71c-5.55-1.1-11.17-1.74-16.83-1.9-2.34-.07-4.29,1.78-4.36,4.12,0,.04,0,.07,0,.11v2.73c-3.17.65-5.46,3.44-5.45,6.68v38.18c0,3.77,3.05,6.82,6.82,6.82h70.91c3.77,0,6.82-3.05,6.82-6.82v-38.18c.02-3.26-2.26-6.07-5.45-6.72ZM37.1,34.52c.89-5.83,5.56-10.34,11.41-11.03.49-.05.99-.08,1.49-.08,3.2,0,6.3,1.18,8.67,3.33,5.37,4.8,5.83,13.04,1.03,18.41-.55.61-1.15,1.17-1.8,1.67-2.34,1.74-3.73,4.47-3.75,7.39,0,1.07-.87,1.93-1.94,1.94h-.86v-9.55c0-.32-.11-.63-.31-.87l-4.96-5.95h7.43l-2.44,2.44c-.49.57-.42,1.43.15,1.92.51.44,1.26.44,1.77,0l4.77-4.77c.53-.54.52-1.4-.02-1.93-.25-.25-.59-.38-.94-.39h-13.64c-.75,0-1.36.61-1.37,1.36,0,.32.11.63.32.87l6.5,7.8v9.05h-.86c-1.08,0-1.95-.87-1.95-1.95,0,0,0,0,0-.01-.03-2.91-1.42-5.64-3.76-7.38-3.78-2.87-5.68-7.58-4.96-12.27ZM15.91,37.18c0-.84.69-1.51,1.53-1.5.01,0,.03,0,.04,0,5.65.16,11.28.8,16.83,1.94.32,4.49,2.56,8.62,6.15,11.33,1.68,1.22,2.69,3.16,2.73,5.24,0,2.55,2.04,4.63,4.6,4.68h4.45c2.59,0,4.68-2.11,4.68-4.7,0,0,0,0,0-.01.04-2.06,1.05-3.98,2.73-5.18,3.57-2.73,5.8-6.86,6.11-11.35l2.26-.45c4.8-.85,9.65-1.35,14.52-1.49.41-.02.82.14,1.1.44.29.28.45.67.45,1.08v43.35c0,.8-.63,1.46-1.43,1.5-10.7.14-21.29,2.19-31.28,6.04v-23.77h1.36c.75,0,1.36-.61,1.36-1.36s-.61-1.36-1.36-1.36h-5.45c-.75,0-1.36.61-1.36,1.36s.61,1.36,1.36,1.36h1.36v23.78c-9.98-3.86-20.58-5.91-31.28-6.05-.81-.03-1.45-.69-1.45-1.5v-43.36ZM10.46,84.77v-38.18c0-1.73,1.1-3.27,2.73-3.85v37.8c.01,2.28,1.82,4.14,4.09,4.23,8.56.2,17.05,1.58,25.24,4.09H14.55c-2.26,0-4.09-1.83-4.09-4.09ZM89.54,84.77c0,2.26-1.83,4.09-4.09,4.09h-27.98c8.19-2.51,16.69-3.89,25.25-4.09,2.28-.09,4.08-1.95,4.09-4.23v-37.84c1.64.58,2.74,2.14,2.73,3.89v38.18Z"></path><path class="st0" d="M21.27,43.86c1.8.12,3.61.29,5.39.5h.16c.75.05,1.4-.53,1.45-1.28.05-.75-.53-1.4-1.28-1.45-1.81-.22-3.68-.4-5.52-.52-.75-.05-1.4.52-1.45,1.27-.05.75.52,1.4,1.27,1.45h-.01Z"></path><path class="st0" d="M21.27,49.5c3.33.22,6.64.6,9.93,1.16h.23c.75.06,1.42-.49,1.48-1.25.06-.75-.49-1.42-1.25-1.48-3.38-.57-6.78-.97-10.2-1.2-.75-.05-1.4.52-1.45,1.27-.05.75.52,1.4,1.27,1.45v.04Z"></path><path class="st0" d="M20,57.6c-.05.75.52,1.39,1.27,1.45,7.29.45,14.51,1.76,21.49,3.91.72.23,1.49-.17,1.71-.89.23-.72-.17-1.49-.89-1.71-7.19-2.24-14.62-3.61-22.13-4.09-.75-.05-1.4.53-1.44,1.28,0,.02,0,.04,0,.06Z"></path><path class="st0" d="M43.59,67.05c-7.19-2.24-14.62-3.61-22.13-4.09-.75-.05-1.4.52-1.45,1.27-.05.75.52,1.4,1.27,1.45,7.29.45,14.51,1.77,21.49,3.93.75.11,1.44-.41,1.55-1.15.08-.58-.21-1.15-.73-1.41Z"></path><path class="st0" d="M43.59,73.86c-7.19-2.24-14.62-3.61-22.13-4.09-.75-.05-1.4.52-1.45,1.27-.05.75.52,1.4,1.27,1.45,7.3.51,14.51,1.88,21.48,4.09.75.23,1.55-.19,1.78-.95.23-.75-.19-1.55-.95-1.78Z"></path><path class="st0" d="M56.82,63.04c.14.02.27.02.41,0,6.98-2.16,14.2-3.48,21.49-3.93.75-.05,1.32-.7,1.27-1.45-.05-.75-.7-1.32-1.45-1.27-7.51.48-14.94,1.85-22.13,4.09-.75.11-1.27.82-1.16,1.57.11.75.82,1.27,1.57,1.16v-.16Z"></path><path class="st0" d="M56.82,69.68c.14.02.27.02.41,0,6.98-2.18,14.19-3.52,21.49-4,.75-.05,1.32-.7,1.27-1.45-.05-.75-.7-1.32-1.45-1.27-7.51.48-14.94,1.85-22.13,4.09-.75.11-1.27.82-1.16,1.57.11.75.82,1.27,1.57,1.16v-.1Z"></path><path class="st0" d="M56.82,76.59c.14.02.27.02.41,0,6.98-2.16,14.2-3.48,21.49-3.93.75-.05,1.32-.7,1.27-1.45-.05-.75-.7-1.32-1.45-1.27-7.51.43-14.94,1.75-22.13,3.93-.75.11-1.27.82-1.16,1.57.11.75.82,1.27,1.57,1.16Z"></path><path class="st0" d="M50,16.59c.75,0,1.36-.61,1.36-1.36v-5.45c0-.75-.61-1.36-1.36-1.36s-1.36.61-1.36,1.36v5.45c0,.75.61,1.36,1.36,1.36Z"></path><path class="st0" d="M59.64,20.59c.36,0,.71-.14.97-.4l3.86-3.86c.49-.57.42-1.43-.15-1.92-.51-.44-1.26-.44-1.77,0l-3.87,3.85c-.53.53-.54,1.39,0,1.93.26.26.61.41.98.4Z"></path><path class="st0" d="M39.39,20.19c.57.49,1.43.42,1.92-.15.44-.51.44-1.26,0-1.77l-3.85-3.87c-.57-.49-1.43-.42-1.92.15-.44.51-.44,1.26,0,1.77l3.85,3.87Z"></path><metadata></metadata></svg>