<svg xmlns="http://www.w3.org/2000/svg" xmlns:i="http://ns.adobe.com/AdobeIllustrator/10.0/" id="Layer_1" viewBox="0 0 100 100"><defs><style>      .st0 {        fill: #d80000;      }    </style></defs><g id="healthcare-covid19-coronavirus-hand-hearth"><path class="st0" d="M58.38,23.33h-4.19v-4.19c0-.77-.63-1.4-1.4-1.4h-5.59c-.77,0-1.4.63-1.4,1.4v4.19h-4.19c-.77,0-1.4.63-1.4,1.4v5.59c0,.77.63,1.4,1.4,1.4h4.19v4.19c0,.77.63,1.4,1.4,1.4h5.59c.77,0,1.4-.63,1.4-1.4v-4.19h4.19c.77,0,1.4-.63,1.4-1.4v-5.59c0-.77-.63-1.4-1.4-1.4ZM56.98,28.92h-4.19c-.77,0-1.4.63-1.4,1.4v4.19h-2.79v-4.19c0-.77-.63-1.4-1.4-1.4h-4.19v-2.79h4.19c.77,0,1.4-.63,1.4-1.4v-4.19h2.79v4.19c0,.77.63,1.4,1.4,1.4h4.19v2.79Z"></path><path class="st0" d="M88.72,30.82c.03-.25.04-.49.04-.74-.01-2.64-1.86-4.91-4.44-5.46-2.94-.56-5.81,1.25-6.56,4.15l-6.14,17.68c-.09.04-.18.08-.27.13l-12.34,7.23c-3.84,2.26-6.21,6.38-6.21,10.84v13.15c-.77,0-1.4.63-1.4,1.4v11.17c0,.77.63,1.4,1.4,1.4h19.55c.77,0,1.4-.63,1.4-1.4v-11.17c0-.77-.63-1.4-1.4-1.4v-3.07c0-1.19.51-2.33,1.4-3.13l9.44-8.39c1.03-.9,1.77-2.09,2.12-3.42l6.06-22.66c.13-.47.2-.96.2-1.45-.01-2.01-1.09-3.85-2.83-4.85ZM80.43,29.59c.36-1.5,1.8-2.47,3.32-2.23,1.29.27,2.22,1.41,2.22,2.72v.03c-2.56.05-4.78,1.79-5.43,4.27l-3.9,12.02c-.59-.28-1.22-.46-1.87-.53l5.66-16.28ZM70.94,88.96h-16.76v-8.38h16.76v8.38ZM88.66,36.39l-6.07,22.68c-.21.79-.65,1.5-1.26,2.04l-9.45,8.39c-1.48,1.33-2.33,3.23-2.33,5.22v3.07h-13.96v-13.15c.01-3.47,1.85-6.67,4.83-8.43l12.33-7.22c1.33-.78,3.04-.33,3.82,1.01,0,0,0,0,0,.01.36.65.46,1.41.28,2.12-.2.72-.67,1.32-1.31,1.69l-8,4.62c-.65.41-.84,1.28-.43,1.93.39.61,1.18.82,1.83.49l8-4.62c1.29-.73,2.23-1.96,2.61-3.39.38-1.43.18-2.95-.56-4.23l-.08-.13,4.31-13.31c.36-1.5,1.8-2.47,3.32-2.23,1.29.27,2.22,1.41,2.22,2.72,0,.25-.03.49-.1.73Z"></path><path class="st0" d="M47.21,77.79v-13.15c0-4.46-2.37-8.58-6.21-10.84l-12.34-7.25c-.08-.04-.18-.07-.27-.11l-6.1-17.58c-.74-2.94-3.63-4.79-6.6-4.24-2.58.55-4.43,2.82-4.44,5.46,0,.25.01.49.04.74-1.74.99-2.82,2.84-2.83,4.85,0,.49.06.98.18,1.45l6.07,22.65c.35,1.33,1.09,2.53,2.12,3.43l9.43,8.39c.89.79,1.41,1.93,1.41,3.13v3.07c-.77,0-1.4.63-1.4,1.4v11.17c0,.77.63,1.4,1.4,1.4h19.55c.77,0,1.4-.63,1.4-1.4v-11.17c0-.77-.63-1.4-1.4-1.4ZM14.03,30.08c0-1.31.92-2.45,2.21-2.72,1.56-.23,3.04.79,3.38,2.33l5.61,16.18c-.65.07-1.28.25-1.87.53l-3.87-11.95c-.65-2.5-2.87-4.28-5.46-4.34v-.03ZM28.11,69.49l-9.44-8.39c-.61-.54-1.05-1.26-1.26-2.05l-6.09-22.66c-.06-.24-.09-.48-.08-.73,0-1.31.92-2.45,2.21-2.72,1.55-.23,3.02.77,3.37,2.3l4.29,13.24-.08.13c-.74,1.28-.94,2.8-.56,4.23.38,1.44,1.32,2.66,2.61,3.39l8,4.62c.68.36,1.53.09,1.88-.59.34-.64.12-1.44-.49-1.83l-8-4.62c-.64-.37-1.12-.97-1.31-1.69-.18-.72-.08-1.48.28-2.12.77-1.34,2.47-1.8,3.81-1.03,0,0,0,0,0,0l12.34,7.23c2.98,1.77,4.82,4.97,4.83,8.43v13.15h-13.96v-3.07c0-1.99-.86-3.89-2.35-5.22ZM45.81,88.96h-16.76v-8.38h16.76v8.38Z"></path><path class="st0" d="M69.75,12.35c-5.44-5.45-14.28-5.46-19.73-.02,0,0-.01.01-.02.02h0c-5.44-5.45-14.28-5.46-19.73-.02,0,0-.01.01-.02.02-5.44,5.45-5.44,14.28,0,19.74l18.77,18.77c.55.55,1.43.55,1.97,0l18.77-18.77c5.44-5.45,5.44-14.28,0-19.74ZM50,47.89l-17.78-17.78c-4.36-4.37-4.35-11.44.01-15.8,2.1-2.09,4.94-3.27,7.9-3.27,2.96-.01,5.81,1.17,7.89,3.28l.99.99c.55.55,1.43.55,1.97,0l.99-.99c4.35-4.36,11.42-4.37,15.78-.01,0,0,0,0,.01.01,4.36,4.36,4.36,11.43,0,15.79l-17.78,17.78Z"></path></g><metadata></metadata></svg>