<svg xmlns="http://www.w3.org/2000/svg" xmlns:i="http://ns.adobe.com/AdobeIllustrator/10.0/" id="Layer_1" viewBox="0 0 100 100"><defs><style>      .st0 {        fill: #d80000;      }    </style></defs><path class="st0" d="M88.43,41.64c-.92,0-1.67.75-1.67,1.67v28.41c0,.92-.75,1.67-1.67,1.67H14.91c-.92,0-1.67-.75-1.67-1.67V24.93c0-.92.75-1.67,1.67-1.67h25.07c.92,0,1.67-.75,1.67-1.67s-.75-1.67-1.67-1.67H14.91c-2.76,0-5.01,2.25-5.01,5.01v46.79c0,2.76,2.25,5.01,5.01,5.01h70.18c2.76,0,5.01-2.25,5.01-5.01v-28.41c0-.92-.75-1.67-1.67-1.67Z"></path><path class="st0" d="M63.37,86.76h-3.34v-5.01c0-.92-.75-1.67-1.67-1.67s-1.67.75-1.67,1.67v5.01h-13.37v-5.01c0-.92-.75-1.67-1.67-1.67s-1.67.75-1.67,1.67v5.01h-3.34c-.92,0-1.67.75-1.67,1.67s.75,1.67,1.67,1.67h26.74c.92,0,1.67-.75,1.67-1.67s-.75-1.67-1.67-1.67Z"></path><path class="st0" d="M34.96,61.7c-.92,0-1.67.75-1.67,1.67s.75,1.67,1.67,1.67h43.45c.92,0,1.67-.75,1.67-1.67s-.75-1.67-1.67-1.67h-43.45Z"></path><path class="st0" d="M21.59,61.7c-.92,0-1.67.75-1.67,1.67s.75,1.67,1.67,1.67h5.01c.92,0,1.67-.75,1.67-1.67s-.75-1.67-1.67-1.67h-5.01Z"></path><path class="st0" d="M46.06,37.02l2.67.53c.17.48.37.94.58,1.4l-1.51,2.26c-.9,1.35-.72,3.16.43,4.31l2.91,2.91c1.14,1.15,2.95,1.33,4.31.43l2.27-1.51c.46.22.92.41,1.38.58l.53,2.67c.32,1.59,1.73,2.74,3.35,2.74h4.12c1.62,0,3.03-1.15,3.35-2.75l.53-2.67c.48-.17.94-.37,1.4-.58l2.26,1.51c1.35.9,3.16.72,4.31-.43l2.91-2.91c1.15-1.15,1.33-2.96.43-4.31l-1.51-2.27c.22-.46.41-.92.58-1.38l2.67-.53c1.59-.32,2.74-1.72,2.74-3.35v-4.12c0-1.62-1.15-3.03-2.75-3.35l-2.67-.53c-.17-.48-.37-.94-.58-1.4l1.51-2.26c.9-1.35.72-3.16-.43-4.31l-2.91-2.91c-1.14-1.14-2.95-1.33-4.31-.43l-2.27,1.51c-.46-.22-.92-.41-1.38-.58l-.53-2.67c-.32-1.59-1.73-2.74-3.35-2.74h-4.12c-1.62,0-3.03,1.15-3.35,2.74l-.53,2.67c-.47.17-.93.37-1.39.58l-2.27-1.52c-1.35-.9-3.16-.72-4.31.43l-2.91,2.91c-1.15,1.15-1.33,2.96-.43,4.31l1.52,2.27c-.21.46-.41.92-.58,1.38l-2.68.53c-1.59.32-2.74,1.73-2.74,3.35v4.12c0,1.62,1.15,3.03,2.75,3.35h0ZM46.72,29.49l3.62-.73c.6-.12,1.1-.57,1.27-1.16.27-.89.64-1.78,1.1-2.64.29-.54.26-1.21-.08-1.72l-2.05-3.17,3-2.92,3.08,2.05c.51.34,1.18.38,1.72.08.86-.46,1.74-.83,2.64-1.1.59-.18,1.04-.67,1.16-1.27l.8-3.68,4.19.06.72,3.62c.12.61.57,1.1,1.16,1.27.87.26,1.76.63,2.64,1.1.54.29,1.21.26,1.72-.08l3.17-2.05,2.92,3-2.05,3.07c-.34.52-.37,1.18-.08,1.72.44.82.81,1.71,1.09,2.65.18.59.67,1.04,1.27,1.16l3.62.73.06.07-.06,4.19-3.62.72c-.61.12-1.1.57-1.27,1.16-.26.87-.63,1.76-1.1,2.63-.29.54-.26,1.21.08,1.72l2.05,3.17-3,2.92-3.07-2.05c-.51-.34-1.18-.37-1.72-.08-.82.45-1.71.81-2.65,1.09-.59.18-1.04.67-1.16,1.27l-.8,3.68-4.19-.06-.72-3.62c-.12-.61-.57-1.1-1.16-1.27-.87-.26-1.76-.63-2.64-1.1-.25-.13-.52-.2-.79-.2-.32,0-.65.1-.93.28l-3.17,2.05-2.92-3,2.05-3.07c.34-.52.37-1.18.08-1.72-.45-.83-.81-1.71-1.09-2.65-.18-.59-.67-1.04-1.27-1.16l-3.68-.8.06-4.19Z"></path><path class="st0" d="M65.04,41.64c5.53,0,10.03-4.5,10.03-10.03,0-.68-.07-1.35-.2-2-.18-.9-1.06-1.49-1.97-1.31-.9.18-1.49,1.07-1.31,1.97.09.44.13.89.13,1.34,0,3.69-3,6.68-6.68,6.68s-6.68-3-6.68-6.68,3-6.68,6.68-6.68c.45,0,.9.04,1.34.13.9.18,1.78-.4,1.97-1.31.18-.9-.4-1.78-1.31-1.97-.66-.13-1.33-.2-2-.2-5.53,0-10.03,4.5-10.03,10.03s4.5,10.03,10.03,10.03h0Z"></path><metadata></metadata></svg>