<svg xmlns="http://www.w3.org/2000/svg" xmlns:i="http://ns.adobe.com/AdobeIllustrator/10.0/" id="Layer_1" viewBox="0 0 100 100"><defs><style>      .st0 {        fill: #d80000;      }    </style></defs><path class="st0" d="M8.9,44.52h7.6c.45,1.62,1.1,3.18,1.93,4.64l-5.38,5.38c-.26.26-.4.61-.4.97s.14.71.4.97l5.81,5.81c.54.53,1.4.53,1.94,0l5.38-5.38c1.46.83,3.02,1.48,4.64,1.93v7.6c0,.76.61,1.37,1.37,1.37h8.22c.76,0,1.37-.61,1.37-1.37v-7.6c1.62-.45,3.18-1.1,4.64-1.93l5.38,5.38c.54.51,1.39.51,1.94,0l5.81-5.81c.26-.26.4-.61.4-.97s-.14-.71-.4-.97l-5.38-5.38c.83-1.46,1.48-3.02,1.93-4.64h7.6c.76,0,1.37-.61,1.37-1.37v-8.22c0-.76-.61-1.37-1.37-1.37h-7.6c-.45-1.62-1.1-3.18-1.93-4.64l5.38-5.38c.26-.26.4-.61.4-.97s-.14-.71-.4-.97l-5.81-5.81c-.54-.53-1.4-.53-1.94,0l-5.38,5.38c-1.46-.83-3.02-1.48-4.64-1.93v-7.6c0-.76-.61-1.37-1.37-1.37h-8.22c-.76,0-1.37.61-1.37,1.37v7.6c-1.62.45-3.18,1.1-4.64,1.93l-5.38-5.38c-.54-.51-1.39-.51-1.94,0l-5.81,5.81c-.26.26-.4.61-.4.97s.14.71.4.97l5.38,5.38c-.83,1.46-1.48,3.02-1.93,4.64h-7.6c-.76,0-1.37.61-1.37,1.37v8.22c0,.76.61,1.37,1.37,1.37ZM10.27,36.3h7.3c.64,0,1.2-.45,1.34-1.08.45-2.05,1.26-4.01,2.4-5.77.35-.54.27-1.25-.19-1.71l-5.17-5.17,3.88-3.88,5.17,5.17c.46.46,1.17.53,1.71.19,1.77-1.14,3.72-1.95,5.77-2.4.63-.14,1.08-.7,1.08-1.34v-7.3h5.48v7.3c0,.64.45,1.2,1.08,1.34,2.05.45,4.01,1.26,5.77,2.4.54.35,1.25.27,1.71-.19l5.17-5.17,3.87,3.88-5.17,5.17c-.46.46-.53,1.17-.19,1.71,1.14,1.77,1.95,3.72,2.4,5.77.14.63.7,1.08,1.34,1.08h7.3v5.48h-7.3c-.64,0-1.2.45-1.34,1.08-.45,2.05-1.26,4.01-2.4,5.77-.35.54-.27,1.25.19,1.71l5.17,5.17-3.88,3.88-5.17-5.17c-.46-.46-1.17-.53-1.71-.19-1.77,1.14-3.72,1.95-5.77,2.4-.63.14-1.08.69-1.08,1.34v7.3h-5.48v-7.3c0-.64-.45-1.2-1.08-1.34-2.05-.45-4.01-1.26-5.77-2.4-.54-.35-1.25-.27-1.71.19l-5.17,5.17-3.87-3.88,5.17-5.17c.46-.46.53-1.17.19-1.71-1.14-1.77-1.95-3.72-2.4-5.77-.14-.63-.69-1.08-1.34-1.08h-7.3v-5.48Z"></path><path class="st0" d="M36.3,50c6.05,0,10.96-4.91,10.96-10.96s-4.91-10.96-10.96-10.96-10.96,4.91-10.96,10.96c0,6.05,4.91,10.95,10.96,10.96ZM36.3,30.82c4.54,0,8.22,3.68,8.22,8.22s-3.68,8.22-8.22,8.22-8.22-3.68-8.22-8.22c0-4.54,3.68-8.22,8.22-8.22Z"></path><path class="st0" d="M36.3,54.11c8.32,0,15.07-6.75,15.07-15.07s-6.75-15.07-15.07-15.07-15.07,6.75-15.07,15.07c.01,8.32,6.75,15.06,15.07,15.07ZM36.3,26.71c6.81,0,12.33,5.52,12.33,12.33s-5.52,12.33-12.33,12.33-12.33-5.52-12.33-12.33c0-6.81,5.52-12.32,12.33-12.33Z"></path><path class="st0" d="M85.62,73.29v-10.96c0-.76-.61-1.37-1.37-1.37h-2.74v-10.96c0-.76-.61-1.37-1.37-1.37h-12.33c-.76,0-1.37.61-1.37,1.37v10.96h-6.85c-.76,0-1.37.61-1.37,1.37v10.96H14.38c-3.78,0-6.85,3.07-6.85,6.85v2.74c0,3.78,3.07,6.85,6.85,6.85h71.24c3.78,0,6.85-3.07,6.85-6.85v-2.74c0-3.78-3.07-6.85-6.85-6.85ZM82.88,73.29h-9.59v-9.59h9.59v9.59ZM69.18,51.37h9.59v9.59h-9.59v-9.59ZM60.96,63.7h9.59v9.59h-9.59v-9.59ZM89.73,82.88c0,2.27-1.84,4.11-4.11,4.11H14.38c-2.27,0-4.11-1.84-4.11-4.11v-2.74c0-2.27,1.84-4.11,4.11-4.11h71.24c2.27,0,4.11,1.84,4.11,4.11v2.74Z"></path><path class="st0" d="M50,77.4c-2.27,0-4.11,1.84-4.11,4.11s1.84,4.11,4.11,4.11,4.11-1.84,4.11-4.11-1.84-4.11-4.11-4.11ZM50,82.88c-.76,0-1.37-.61-1.37-1.37s.61-1.37,1.37-1.37,1.37.61,1.37,1.37-.61,1.37-1.37,1.37Z"></path><path class="st0" d="M36.3,77.4c-2.27,0-4.11,1.84-4.11,4.11s1.84,4.11,4.11,4.11,4.11-1.84,4.11-4.11-1.84-4.11-4.11-4.11ZM36.3,82.88c-.76,0-1.37-.61-1.37-1.37s.61-1.37,1.37-1.37,1.37.61,1.37,1.37-.61,1.37-1.37,1.37Z"></path><path class="st0" d="M63.7,77.4c-2.27,0-4.11,1.84-4.11,4.11s1.84,4.11,4.11,4.11,4.11-1.84,4.11-4.11-1.84-4.11-4.11-4.11ZM63.7,82.88c-.76,0-1.37-.61-1.37-1.37s.61-1.37,1.37-1.37,1.37.61,1.37,1.37-.61,1.37-1.37,1.37Z"></path><path class="st0" d="M22.6,77.4c-2.27,0-4.11,1.84-4.11,4.11s1.84,4.11,4.11,4.11,4.11-1.84,4.11-4.11-1.84-4.11-4.11-4.11ZM22.6,82.88c-.76,0-1.37-.61-1.37-1.37s.61-1.37,1.37-1.37,1.37.61,1.37,1.37-.61,1.37-1.37,1.37Z"></path><path class="st0" d="M77.4,77.4c-2.27,0-4.11,1.84-4.11,4.11s1.84,4.11,4.11,4.11,4.11-1.84,4.11-4.11-1.84-4.11-4.11-4.11ZM77.4,82.88c-.76,0-1.37-.61-1.37-1.37s.61-1.37,1.37-1.37,1.37.61,1.37,1.37-.61,1.37-1.37,1.37Z"></path><metadata></metadata></svg>