<svg xmlns="http://www.w3.org/2000/svg" xmlns:i="http://ns.adobe.com/AdobeIllustrator/10.0/" id="Layer_1" viewBox="0 0 100 100"><defs><style>      .st0 {        fill: none;        stroke: #d80000;        stroke-linecap: round;        stroke-linejoin: round;        stroke-width: 2px;      }    </style></defs><path class="st0" d="M53.17,92.79v-4.75c0-2.48-1.58-5.65-1.58-12.68,0-4.66,8.96-11.64,8.96-11.64l8.47-5.79c5.65-6.83,3.96-9.51,12.68-9.51,0,0-1.06,6.27-3.17,11.09,0,0-4.95,4.75-7.92,7.92"></path><path class="st0" d="M81.69,48.42v-3.17s-1.58-14.36,6.34-14.36l1.58,14.26s-1.58,15.35-1.58,17.53c0,3.17-17.43,14.21-17.43,22.19v7.92"></path><path class="st0" d="M46.83,92.79v-4.75c0-2.48,1.58-5.65,1.58-12.68,0-4.66-8.96-11.64-8.96-11.64l-8.47-5.79c-5.65-6.83-3.96-9.51-12.68-9.51,0,0,1.06,6.27,3.17,11.09,0,0,4.95,4.75,7.92,7.92"></path><path class="st0" d="M18.31,48.42v-3.17s1.58-14.36-6.34-14.36l-1.58,14.26s1.58,15.35,1.58,17.53c0,3.17,17.43,14.21,17.43,22.19v7.92"></path><circle class="st0" cx="50" cy="30.98" r="23.77"></circle><ellipse class="st0" cx="50" cy="30.98" rx="12.68" ry="23.77"></ellipse><path class="st0" d="M50,7.21v47.54"></path><path class="st0" d="M73.77,30.98H26.23"></path><path class="st0" d="M70.09,18.31H29.91"></path><path class="st0" d="M70.09,43.66H29.91"></path><metadata></metadata></svg>