<svg xmlns="http://www.w3.org/2000/svg" xmlns:i="http://ns.adobe.com/AdobeIllustrator/10.0/" id="Line_stroke_cut_Ex" viewBox="0 0 100 100"><defs><style>      .st0 {        fill: #d80000;      }    </style></defs><path class="st0" d="M86.52,88.97c0,.19-.16.35-.35.35h-27.74v2.81h27.74c1.74,0,3.16-1.42,3.16-3.16V28.96h-2.81v60.01Z"></path><path class="st0" d="M86.16,7.87H30.69c-1.74,0-3.16,1.42-3.16,3.16v24.93h2.81V11.03c0-.19.16-.35.35-.35h10.88v4.21h-7.02c-.78,0-1.4.63-1.4,1.4v19.66h2.81v-18.26h5.62v1.05c0,1.74,1.42,3.16,3.16,3.16h27.39c1.74,0,3.16-1.42,3.16-3.16v-1.05h5.62v64.6h-19.66v2.81h21.07c.78,0,1.4-.63,1.4-1.4V16.29c0-.78-.63-1.4-1.4-1.4h-7.02v-4.21h10.88c.19,0,.35.16.35.35v15.1h2.81v-15.1c0-1.74-1.42-3.16-3.16-3.16ZM72.47,18.75c0,.19-.16.35-.35.35h-27.39c-.19,0-.35-.16-.35-.35v-8.08h28.09v8.08Z"></path><g><path class="st0" d="M30.34,64.04h-5.62c-.78,0-1.4.63-1.4,1.4v4.21h-4.21c-.78,0-1.4.63-1.4,1.4v5.62c0,.78.63,1.4,1.4,1.4h4.21v4.21c0,.78.63,1.4,1.4,1.4h5.62c.78,0,1.4-.63,1.4-1.4v-4.21h4.21c.78,0,1.4-.63,1.4-1.4v-5.62c0-.78-.63-1.4-1.4-1.4h-4.21v-4.21c0-.78-.63-1.4-1.4-1.4ZM34.55,72.47v2.81h-4.21c-.78,0-1.4.63-1.4,1.4v4.21h-2.81v-4.21c0-.78-.63-1.4-1.4-1.4h-4.21v-2.81h4.21c.78,0,1.4-.63,1.4-1.4v-4.21h2.81v4.21c0,.78.63,1.4,1.4,1.4h4.21Z"></path><path class="st0" d="M48.6,72.47c-1.46,0-2.9.32-4.21.95v-13.59c0-.37-.15-.73-.41-.99l-2.4-2.4v-3.65c1.6-.18,2.81-1.53,2.81-3.14v-7.72c0-1.74-1.42-3.16-3.16-3.16H13.84c-1.74,0-3.16,1.42-3.16,3.16v7.72c0,1.61,1.21,2.96,2.81,3.14v3.65l-2.4,2.4c-.26.26-.41.62-.41.99v7.02h2.81v-6.44l1.99-1.99h19.08v-2.81h-18.26v-2.81h22.47v4.21c0,.37.15.73.41.99l2.4,2.4v15.02c-3.8,3.87-3.74,10.08.13,13.88,0,0,.01.01.02.02H13.84c-.19,0-.35-.16-.35-.35v-19.31h-2.81v19.31c0,1.74,1.42,3.16,3.16,3.16h34.76c5.43,0,9.83-4.4,9.83-9.83s-4.4-9.83-9.83-9.83ZM13.84,50c-.19,0-.35-.16-.35-.35v-7.72c0-.19.16-.35.35-.35h27.39c.19,0,.35.16.35.35v7.72c0,.19-.16.35-.35.35H13.84ZM41.57,82.3c0-2.01.86-3.92,2.37-5.25l6.88,11.91c-3.68,1.23-7.66-.76-8.89-4.44-.24-.72-.36-1.47-.36-2.22h0ZM53.25,87.56l-6.88-11.91c3.68-1.23,7.65.76,8.88,4.43.89,2.67.1,5.62-2,7.48Z"></path></g><path class="st0" d="M68.26,34.55c0-5.43-4.4-9.83-9.83-9.83s-9.83,4.4-9.83,9.83,4.4,9.83,9.83,9.83c5.43,0,9.82-4.4,9.83-9.83ZM51.4,34.55c0-3.88,3.14-7.02,7.02-7.02s7.02,3.14,7.02,7.02-3.14,7.02-7.02,7.02c-3.88,0-7.02-3.15-7.02-7.02Z"></path><path class="st0" d="M59.83,38.76v-2.81h2.81v-2.81h-2.81v-2.81h-2.81v2.81h-2.81v2.81h2.81v2.81h2.81Z"></path><path class="st0" d="M47.19,50h21.07v2.81h-21.07v-2.81Z"></path><path class="st0" d="M71.07,50h7.02v2.81h-7.02v-2.81Z"></path><path class="st0" d="M50,64.04h18.26v2.81h-18.26v-2.81Z"></path><path class="st0" d="M71.07,64.04h7.02v2.81h-7.02v-2.81Z"></path><path class="st0" d="M47.19,57.02h8.43v2.81h-8.43v-2.81Z"></path><path class="st0" d="M58.43,57.02h19.66v2.81h-19.66v-2.81Z"></path><path class="st0" d="M47.19,13.48h2.81v2.81h-2.81v-2.81Z"></path><path class="st0" d="M66.85,13.48h2.81v2.81h-2.81v-2.81Z"></path><path class="st0" d="M52.81,13.48h11.24v2.81h-11.24v-2.81Z"></path><path class="st0" d="M58.43,71.07h19.66v2.81h-19.66v-2.81Z"></path><metadata></metadata></svg>