<svg xmlns="http://www.w3.org/2000/svg" xmlns:i="http://ns.adobe.com/AdobeIllustrator/10.0/" id="Layer_1" viewBox="0 0 100 100"><defs><style>      .st0 {        fill: #da0000;      }    </style></defs><path class="st0" d="M89.88,59.86c-1.55-2.28-4.67-2.88-6.96-1.35l-10.4,6.96-.03-21.66,3.61,3.38c.77.72,1.77,1.12,2.82,1.12h0c1.14,0,2.23-.48,3.01-1.31.75-.8,1.15-1.86,1.11-2.96-.04-1.1-.5-2.12-1.3-2.88l-6.85-6.42c-.47-.44-1.21-.42-1.64.05-.44.47-.42,1.2.05,1.64l6.85,6.42c.35.33.55.78.57,1.26.02.48-.16.94-.49,1.29-.34.37-.81.57-1.31.57h0c-.46,0-.9-.17-1.23-.49h0s-27.2-25.48-27.2-25.48c-.45-.42-1.15-.42-1.59,0l-27.13,25.56c-.35.33-.81.5-1.29.49-.48-.01-.93-.22-1.26-.57-.33-.35-.5-.81-.49-1.29.01-.48.22-.93.57-1.26l29.16-27.47c.69-.65,1.78-.65,2.47,0l17.06,15.98c.47.44,1.2.42,1.64-.05.44-.47.42-1.2-.05-1.64l-17.06-15.98c-1.59-1.49-4.07-1.48-5.65,0l-9.33,8.79v-1.57c0-.49-.2-.96-.55-1.31-.35-.35-.81-.54-1.31-.54h-6.68c-.49.01-.96.2-1.31.55-.35.35-.54.81-.54,1.31l.02,11.32-9.46,8.91c-.8.76-1.26,1.78-1.3,2.88s.37,2.15,1.12,2.95c.76.8,1.78,1.26,2.88,1.3.04,0,.08,0,.13,0,1.06,0,2.06-.4,2.83-1.12l3.61-3.4v10.23c-1.15-.17-2.33-.26-3.52-.26h-1.99v-.7c0-2.34-1.91-4.25-4.25-4.25h-3.72c-2.34,0-4.25,1.9-4.25,4.25v18.23c0,.64.52,1.16,1.16,1.16s1.16-.52,1.16-1.16v-18.23c0-1.06.86-1.92,1.92-1.92h3.72c1.06,0,1.92.86,1.92,1.92v27.55c0,1.06-.86,1.92-1.92,1.92h-3.72c-1.06,0-1.92-.86-1.92-1.92v-2.04c0-.64-.52-1.16-1.16-1.16s-1.16.52-1.16,1.16v2.04c0,2.34,1.91,4.25,4.25,4.25h3.72c2.34,0,4.25-1.9,4.25-4.25v-.16l17.04,6.45s.06.02.1.03c.74.21,1.48.31,2.21.31.4,0,.79-.03,1.18-.09l25.03-3.61s.01,0,.02,0c2.13-.34,4.14-1.24,5.81-2.6.01-.01.03-.02.04-.04l16.17-14.55c1.88-1.67,2.24-4.5.82-6.59ZM35.2,21.49v3.28s-5.71,5.38-5.71,5.38v-8.65s5.71,0,5.71,0ZM49.7,22.46l20.46,19.17.04,25.4-3.29,2.2-3.49-.2-.09-.93c-.32-3.26-2.73-5.89-5.92-6.51l-.02-15.11c0-1.16-.95-2.1-2.11-2.1h0l-11.09.02c-.56,0-1.09.22-1.49.62-.4.4-.62.93-.61,1.49l.02,13.18c-2.2-.5-4.29-1.33-6.25-2.48-.24-.14-.49-.28-.74-.42-.1-.05-.2-.1-.29-.15-.15-.08-.3-.16-.46-.23-.12-.06-.25-.12-.37-.18-.13-.06-.26-.12-.39-.18-.13-.06-.27-.12-.4-.18-.12-.05-.25-.11-.37-.16-.14-.06-.28-.11-.42-.17-.12-.05-.25-.1-.37-.14-.14-.05-.28-.1-.42-.15-.13-.05-.26-.09-.39-.13-.13-.04-.27-.09-.4-.13-.14-.05-.29-.09-.43-.13-.12-.04-.25-.07-.37-.11-.16-.05-.32-.09-.49-.13-.08-.02-.15-.04-.23-.06l-.02-12.87,20.4-19.22ZM55.08,61.31l-9.73-1.12-.92-.11-.02-13.36h10.64s.02,14.58.02,14.58ZM87.51,64.71l-16.16,14.53c-1.35,1.09-2.96,1.81-4.67,2.09l-25.02,3.61s-.01,0-.02,0h-.02c-.76.12-1.55.07-2.35-.15l-17.81-6.74v-21.88h1.99c1.69,0,3.38.2,5.02.58.06.01.12.03.18.04.2.05.4.1.6.15.02,0,.03,0,.05.01.2.05.4.11.6.17.04.01.07.02.11.03.21.07.42.13.63.21.02,0,.04.02.06.02.44.15.87.32,1.3.49.02,0,.05.02.07.03.21.09.42.18.63.28,0,0,.01,0,.02,0,.2.09.4.19.61.29.02.01.05.02.07.03.2.1.39.2.58.3.04.02.07.04.11.06.19.11.39.21.58.33,2.77,1.62,5.78,2.67,8.96,3.12.01,0,.02,0,.03,0l13.03,1.5c.07.01.14.02.21.04,1.92.36,3.43,1.78,3.94,3.62.08.27.13.56.16.85l.05.52-24.43-2.14c-.64-.06-1.2.42-1.26,1.06-.06.64.42,1.2,1.06,1.26l25.82,2.26s.01,0,.02,0,.01,0,.02,0l4.87.27s.04,0,.07,0c.02,0,.05,0,.07,0,.03,0,.05,0,.08,0,.03,0,.07-.01.1-.02.02,0,.05,0,.07-.02.04-.01.07-.03.11-.04.02,0,.04-.01.06-.02.05-.03.11-.05.16-.09l4.13-2.77h0s12.21-8.17,12.21-8.17c1.23-.83,2.91-.5,3.74.72.76,1.12.57,2.64-.44,3.54Z"></path><metadata></metadata></svg>