<svg xmlns="http://www.w3.org/2000/svg" xmlns:i="http://ns.adobe.com/AdobeIllustrator/10.0/" id="Layer_1" viewBox="0 0 100 100"><defs><style>      .st0 {        fill: #d80000;      }    </style></defs><path class="st0" d="M21.28,43.97c-.37,0-.72-.25-.83-.63-.12-.46.16-.93.61-1.05,2.2-.6,4.39-1.11,6.55-1.53,7.17-1.37,14.88-2.09,22.37-2.09s15.3.72,22.37,2.09c2.37.47,4.52.97,6.55,1.53.46.12.72.6.61,1.05-.12.46-.6.72-1.05.61-1.99-.54-4.11-1.04-6.43-1.51-6.96-1.35-14.58-2.06-22.03-2.06s-14.99.7-22.05,2.06c-2.11.4-4.27.91-6.41,1.51-.12.02-.19.02-.26.02h0Z"></path><path class="st0" d="M43.64,79.84c-.47,0-.86-.39-.86-.86v-3.69c0-11.07-10.56-20.78-22.58-20.78-.47,0-.86-.39-.86-.86s.39-.86.86-.86c5.99,0,12.09,2.41,16.76,6.57,4.87,4.36,7.54,10.01,7.54,15.92v3.69c0,.49-.39.88-.86.88Z"></path><path class="st0" d="M56.34,79.84c-.47,0-.86-.39-.86-.86v-3.69c0-5.9,2.69-11.56,7.54-15.92,4.66-4.16,10.75-6.57,16.76-6.57.47,0,.86.39.86.86s-.39.86-.86.86c-12.03.02-22.59,9.73-22.59,20.78v3.69c.02.46-.37.84-.84.84Z"></path><path class="st0" d="M49.98,59.95c-4.02,0-7.27-3.27-7.27-7.27s3.27-7.27,7.27-7.27,7.27,3.27,7.27,7.27c.02,4.01-3.25,7.27-7.27,7.27ZM49.98,47.11c-3.07,0-5.55,2.49-5.55,5.55s2.49,5.55,5.55,5.55,5.55-2.49,5.55-5.55-2.48-5.55-5.55-5.55Z"></path><g><path class="st0" d="M71.1,31.21c-.21,0-.44-.09-.61-.25-.33-.33-.33-.88,0-1.21l4.99-5.01c.33-.33.88-.33,1.21,0s.33.88,0,1.21l-4.99,5.01c-.16.16-.39.25-.6.25Z"></path><path class="st0" d="M28.87,31.21c-.21,0-.44-.09-.61-.25l-4.97-5.01c-.33-.33-.33-.88,0-1.21s.88-.33,1.21,0l4.99,5.01c.33.33.33.88,0,1.21-.18.16-.39.25-.61.25Z"></path></g><g><path class="st0" d="M23.89,78.42c-.21,0-.44-.09-.61-.25-.33-.33-.33-.88,0-1.21l4.99-4.99c.33-.33.88-.33,1.21,0s.33.88,0,1.21l-4.99,4.99c-.16.16-.39.25-.6.25h0Z"></path><path class="st0" d="M76.09,78.42c-.21,0-.44-.09-.61-.25l-4.99-4.99c-.33-.33-.33-.88,0-1.21s.88-.33,1.21,0l4.99,4.99c.33.33.33.88,0,1.21-.16.16-.39.25-.6.25Z"></path></g><path class="st0" d="M63.32,86.33h-26.65c-.84,0-1.65-.18-2.42-.53-4.09-1.88-7.77-4.44-10.95-7.64-7.31-7.29-11.23-17.01-11.07-27.34.35-20.78,17.53-37.44,38.32-37.14,9.98.16,19.33,4.15,26.35,11.24,7.03,7.1,10.88,16.53,10.88,26.53s-3.94,19.55-11.07,26.71c-3.2,3.2-6.87,5.76-10.95,7.62-.74.37-1.56.54-2.44.54h0ZM49.98,15.42c-19.59,0-35.72,15.79-36.05,35.45-.18,9.86,3.6,19.12,10.58,26.09,3.04,3.04,6.55,5.48,10.45,7.27.54.23,1.12.37,1.72.37h26.65c.63,0,1.19-.12,1.7-.37,3.9-1.79,7.41-4.23,10.45-7.27,6.8-6.8,10.58-15.86,10.58-25.49,0-19.59-15.95-35.77-35.54-36.07-.21.02-.37.02-.54.02h0Z"></path><path class="st0" d="M60.54,79.86h-21.12c-.86,0-1.7-.19-2.46-.54-3.23-1.51-6.17-3.57-8.7-6.11-5.2-5.24-8.38-12.14-8.93-19.48-.07-.83-.09-1.56-.09-2.28,0-16.94,13.79-30.73,30.75-30.73s30.75,13.79,30.75,30.73c0,.67-.04,1.42-.09,2.28-.53,7.33-3.71,14.25-8.93,19.48-2.55,2.55-5.48,4.6-8.7,6.11-.79.35-1.63.54-2.49.54ZM49.98,22.46c-16.01,0-29.02,13-29.02,29.01,0,.65.04,1.37.09,2.14.51,6.9,3.51,13.44,8.43,18.38,2.41,2.41,5.17,4.34,8.22,5.78.53.25,1.12.39,1.72.39h21.12c.61,0,1.19-.14,1.72-.39,3.06-1.44,5.83-3.36,8.22-5.78,4.94-4.94,7.92-11.46,8.43-18.38.05-.81.09-1.51.09-2.14,0-16.01-13.02-29.01-29.02-29.01h0Z"></path><path class="st0" d="M65.64,59.23c-.12,0-.21-.02-.33-.07-.44-.19-.65-.69-.46-1.12,1.07-2.49,1.62-5.31,1.62-8.12,0-3.18-.69-6.31-2.02-9.03-.21-.42-.04-.95.4-1.14.42-.21.95-.04,1.14.4,1.44,2.97,2.2,6.36,2.2,9.79,0,3.04-.61,6.1-1.76,8.8-.12.3-.44.49-.79.49Z"></path><path class="st0" d="M34.31,59.23c-.33,0-.65-.21-.79-.53-1.16-2.76-1.76-5.71-1.76-8.8,0-3.41.76-6.8,2.2-9.79.21-.42.72-.61,1.14-.4s.61.72.4,1.14c-1.34,2.76-2.02,5.89-2.02,9.03,0,2.85.54,5.59,1.62,8.12.19.44-.02.95-.46,1.12-.12.09-.21.11-.33.11Z"></path><path class="st0" d="M50.07,67.25c-.47,0-.86-.39-.86-.86v-1.58c0-.47.39-.86.86-.86s.86.39.86.86v1.58c0,.47-.39.86-.86.86Z"></path><path class="st0" d="M50.07,73.32c-.47,0-.86-.39-.86-.86v-1.58c0-.47.39-.86.86-.86s.86.39.86.86v1.58c0,.49-.39.86-.86.86Z"></path><metadata></metadata></svg>